<?xml version="1.0" encoding="utf-8"?>
<!-- Generator: Adobe Illustrator 23.0.0, SVG Export Plug-In . SVG Version: 6.00 Build 0)  -->
<svg version="1.1" id="Capa_1" xmlns="http://www.w3.org/2000/svg" xmlns:xlink="http://www.w3.org/1999/xlink" x="0px" y="0px"
	 viewBox="0 0 512 512" style="enable-background:new 0 0 512 512;" xml:space="preserve">
<style type="text/css">
	.st0{fill:#40154B;stroke:#F9EEE5;stroke-miterlimit:10;}
	.st1{fill:#F9EEE5;stroke:#F9EEE5;stroke-miterlimit:10;}
	.st2{fill:#40154B;}
	.st3{fill:none;}
	.st4{fill:#FAF0E8;}
	.st5{fill-rule:evenodd;clip-rule:evenodd;fill:#F9EEE5;}
	.st6{fill:#F9EEE5;stroke:#40154B;stroke-miterlimit:10;}
	.st7{fill:#F9EEE5;stroke:#40154B;stroke-width:2;stroke-miterlimit:10;}
</style>
<path class="st0" d="M270.5,218l-29.5-0.7c-54.4-1.2-97.9-46.7-96.6-101.1v0c1.2-54.4,46.7-97.9,101.1-96.6l29.5,0.7
	c54.4,1.2,97.9,46.7,96.6,101.1v0C370.4,175.7,324.9,219.2,270.5,218z"/>
<path class="st0" d="M303.3,311.8l-97.6-2.2c-68.9-1.5-124-59.2-122.5-128.1l0,0c1.5-68.9,59.2-124,128.1-122.5l97.6,2.2
	c68.9,1.5,124,59.2,122.5,128.1v0C429.8,258.2,372.2,313.3,303.3,311.8z"/>
<path class="st0" d="M140.1,266.8c0,0-13.2-7.9-18.2-8.4c-5-0.5-15.5,3.4-18.7,7.2c-5.4,6.6-6.5,25-6.2,33.6
	c0.2,7.5,4.3,22.1,7.2,29.1c2.3,5.6,8.1,16.5,12.4,20.8c2.8,2.8,9.6,7.1,13.4,8.1c3.9,1,12.5,1.2,16.2-0.4c3.6-1.6,12-10.1,12-10.1
	L140.1,266.8z"/>
<path class="st0" d="M376.2,267.4c0,0,13.3-8.1,18.3-8.2c5-0.1,15.4,3.5,18.6,7.4c5.4,6.6,6.2,25.1,5.9,33.6
	c-0.3,7.5-4.5,22.1-7.5,29c-2.4,5.6-8.3,16.4-12.6,20.6c-2.8,2.8-9.7,7-13.5,8c-3.9,1-16.2-0.6-16.2-0.6L357.4,347L376.2,267.4z"/>
<path class="st1" d="M302,485.7l-80.5-1.5c-44.2-1-70.3-24.6-66.5-75.4l-4.6-56.8l-2.6-165.4c1-44.1,37.6-79.4,81.3-78.5l55.5,1.2
	c47.4,1.1,85.3,41.1,84.3,88.9l-3.6,161l-4.5,55.9C368.4,456.4,338.6,486.5,302,485.7z"/>
<g>
	<g>
		<path class="st2" d="M371.3,255.8l1-8.3h1.4l9.1-2.1l-4.5-1.4l-4.8-4.8l-1.2-4.3l8.5,2.7l-6-5.6l-3.1-6.4l5.2,3.9l-4.3-7.6
			l4.3,3.1v-1.9l-3.5-6.2l-1.8-0.8l0.7-5.8h1.4l9.1-2.1l-4.5-1.4l-4.8-4.8l-1.2-4.3l8.5,2.7l-6-5.6l-3.1-6.4l5.2,3.9l-4.3-7.6
			l4.3,3.1v-1.9l-3.5-6.2l-4.3-2.1l-1.9-5.6v-7.4l-9.5-5.2v9.9l1,14l-1-1.1v14.5v9.9l1.4,20.9l3.3,6.6l2.1,6.4l-1.2,8.7l-0.4,1.1
			l-2.1-3.1l-1.6,14.4l0,0.1l0,0.1h0l-1.1,9.7l-0.9,20.9l2.5,6.9l1.3,6.6l-1.6,6.2l-0.7-1.1l-0.5,4.7l-4.9,10.7l3.7,0.4l-0.9,8.4
			l-0.2,4.9l-0.4,0.6c0,0-10.7,14.8-12.3,20.5c-1.1,4-1.7,10.5-1.9,17.7l-11.6-9c0,0-8.8-9.1-12.7-10.5c-4.7-1.7-15.1-1-19.9,0
			c-5.6,1.1-15.7,6.8-21.1,8.5c-6,2-24.5,6.4-24.5,6.4s-13.4-3.2-17.9-4.5c-6.5-1.8-19.1-8.1-25.8-8c-6.6,0-19.1,5.2-25,8
			c-4.2,2-14.4,9.3-17.2,11.4c0.1-7.7-0.2-15.1-1.1-20l0.4-0.5l-0.8-1.3c0,0,0-0.1,0-0.1c-1.5-5.8-7.4-15.9-7.4-15.9l-0.6-2.9
			l-2.3-7.4l-1.8-11.8l-3.6-11.9l-1.2-8.9l-1.6-6.3l2.5-6.9l-0.9-20.9l-1.1-9.9l-0.9-8.4h2.4l-4.1-12.6l-1.2-8.7l2.1-6.4l0.6-1.2
			h2.7l-1.1-3.3l1.1-2.2l1.4-20.9v-9.9v-14.5l-0.3,0.4l0.3-4.9v-9.9l-9.5,5.2v7.4l-1.9,5.6l-4.3,2.1l-3.5,6.2v1.9l4.3-3.1l-4.3,7.6
			l5.2-3.9l-3.1,6.4l-6,5.6l8.5-2.7L133,197l-4.8,4.8l-4.5,1.4l8.6,2l-2.6,4.6v1.9l4.3-3.1l-4.3,7.6l5.2-3.9l-3.1,6.4l-6,5.6
			l8.5-2.7l-1.2,4.3l-4.8,4.8l-4.5,1.4l9.1,2.1h1.4l1,8.3l2.1,4.8l3.5,0.9l0.4,3.6l-4.7,5.9l0.6,5.3l0.8,7.4l-1.2,5.8l-4.1,2.5
			l-2.8,6.6l0.2,1.8l4-3.6l-3.5,8.1l4.7-4.5l-2.4,6.7l-5.3,6.2l8.1-3.6l-0.7,4.5l-4.2,5.3l-4.4,1.9l9.3,1l1.4-0.2l2,8.1l0.4,0.6
			l1,11.2l-3.2,4.6l-2.3,4l-1.5,2.2l-2,2.3l2.4-1.2l0.5,5l1.5,4.2l-8.6-2.1l6.4,5.2l3.5,6.2l-5.4-3.6l4.8,7.3l-4.5-2.8l0.1,1.9
			l3.9,6l4.5,1.8l2.2,5.4l0.5,7.4l0.4,5.4l1.4,1.2l1.2,25.9c0,0-0.2,6.3,0.3,14.7l-0.2,0.8l0.3,0.5c0.6,7.7,1.8,17,4.5,24.5l0,2.9
			l0.9,1.6l0.5-1c0.5,1.2,1.1,2.4,1.8,3.4l0,1.5l0.4-0.9c0.6,0.9,1.2,1.8,1.9,2.6c0.1,0.2,0.3,0.3,0.4,0.5l-2.1,6.8l4.3-4.6
			c0.9,0.9,1.8,1.8,2.8,2.6l-1.7,6.3l-3.2,3.5l8.9-2.7l1.3-0.7l5,6.7l4.2,3.1l4.7-1.3l2.9-1.6l0,0.2l3.9,5.9l1.7,0.8l-0.8-5.1
			c0,0,0.1,0,0.1,0l4.7,7.1l-1.1-5.8c0.2,0.1,0.3,0.1,0.5,0.2l3.8,4.9l2.3,7.9l1.4-8.8l3.3,3.1l2.1,6.4l-0.8,4.7l5.9-7.2l0.7-1.3
			l7.8,2.8l5.2,0.3l3.3-3.7l0.2-0.5l5.5,1.3l17.1,2.2l0,0.4l1.7-0.2l1.4,0.2l0-0.3l17.2-1.9l26.8-5.6c0,0,1.5-0.3,4-0.8l1.5,1.8
			l4.3-0.2l6.4-2.3l0.6,1.1l5,6.1l-0.7-4l1.7-5.4l2.7-2.5l1.3,7.4l1.8-6.6l3.5-4.7l-0.9,5.4l3.9-6.1l-0.6,4.4l1.4-0.7l3.2-4.9
			l-0.1-2.8c3.7-2.4,7.3-5.2,10.4-8.3l2.3-1.1l0.7-2.3c1-1.4,1.9-2.9,2.7-4.5l1.5-0.8l1.9-4.9l-1.4,0.7c5.6-16.3,5.2-39.2,5.2-39.2
			l1.8-27l0.2,0l2.5-4.5l1.9-8.1l1.4,0.1l9.3-1.1l-4.4-1.9l-4.2-5.2l-0.8-4.4l8.2,3.5l-5.4-6.2l-2.4-6.7l4.7,4.4l-3.5-8.1l4,3.5
			l0.2-1.9l-2.9-6.5l-4.1-2.5l-1.3-5.7l0.8-7.4l0.6-5.3l-0.5-0.6l0.1-1.9l-0.7,1.1l-0.7-0.9l1.2-2.1l2-8.1l1.4,0.2l9.3-1l-4.4-1.9
			l-4.2-5.3l-0.7-4.5l8.1,3.6l-5.3-6.2l-2.4-6.7l4.7,4.5l-3.5-8.1l4,3.6l0.2-1.8l-2.8-6.6l-4.1-2.5l-1.2-5.8l0.8-7.4l0.6-5.3
			l-1.2-1.5l1.8-0.5L371.3,255.8z M172.7,447.2C172.7,447.2,172.7,447.2,172.7,447.2l7.4-3C177.4,446,174.7,447.6,172.7,447.2z
			 M334.2,413.5c-1.4,5.1-8.1,19.8-8.1,19.8l-2.7,10.8c-1.9-1.3-3.7-2.5-5.2-2.7c-10.2-1.7-39.2,12.8-39.2,12.8s-9.3-7.6-13.1-8.7
			c-3-0.9-12.6,0.3-12.6,0.3s-10.3-1.4-13.6-0.5c-3.8,1-13.3,8.4-13.3,8.4s-24.5-12.8-36.3-13.6l-2.7-11.1c0,0-6.5-11.4-8.1-15.4
			c-1.9-4.8-6-14.9-5.3-20c0.6-4.2,5.2-12.1,8.7-14.5c5.8-4,20.8-5.1,27.9-4.9c10.3,0.3,40.2,9.8,40.2,9.8s19.1-7.4,26.1-8.5
			c5.9-0.9,17.8-0.8,23.6,0c4.6,0.6,14.3,1.1,18.2,3.6c6.1,4,15.4,16.6,17.1,23.7C336.5,405.4,334.9,410.9,334.2,413.5z"/>
	</g>
	<g>
		<path class="st3" d="M371.3,255.8l1-8.3h1.4l9.1-2.1l-4.5-1.4l-4.8-4.8l-1.2-4.3l8.5,2.7l-6-5.6l-3.1-6.4l5.2,3.9l-4.3-7.6
			l4.3,3.1v-1.9l-3.5-6.2l-1.8-0.8l0.7-5.8h1.4l9.1-2.1l-4.5-1.4l-4.8-4.8l-1.2-4.3l8.5,2.7l-6-5.6l-3.1-6.4l5.2,3.9l-4.3-7.6
			l4.3,3.1v-1.9l-3.5-6.2l-4.3-2.1l-1.9-5.6v-7.4l-9.5-5.2v9.9l1,14l-1-1.1v14.5v9.9l1.4,20.9l3.3,6.6l2.1,6.4l-1.2,8.7l-0.4,1.1
			l-2.1-3.1l-1.6,14.4l0,0.1l0,0.1h0l-1.1,9.7l-0.9,20.9l2.5,6.9l1.3,6.6l-1.6,6.2l-0.7-1.1l-0.5,4.7l-4.9,10.7l3.7,0.4l-0.9,8.4
			l-0.2,4.9l-0.4,0.6c0,0-10.7,14.8-12.3,20.5c-1.1,4-1.7,10.5-1.9,17.7l-11.6-9c0,0-8.8-9.1-12.7-10.5c-4.7-1.7-15.1-1-19.9,0
			c-5.6,1.1-15.7,6.8-21.1,8.5c-6,2-24.5,6.4-24.5,6.4s-13.4-3.2-17.9-4.5c-6.5-1.8-19.1-8.1-25.8-8c-6.6,0-19.1,5.2-25,8
			c-4.2,2-14.4,9.3-17.2,11.4c0.1-7.7-0.2-15.1-1.1-20l0.4-0.5l-0.8-1.3c0,0,0-0.1,0-0.1c-1.5-5.8-7.4-15.9-7.4-15.9l-0.6-2.9
			l-2.3-7.4l-1.8-11.8l-3.6-11.9l-1.2-8.9l-1.6-6.3l2.5-6.9l-0.9-20.9l-1.1-9.9l-0.9-8.4h2.4l-4.1-12.6l-1.2-8.7l2.1-6.4l0.6-1.2
			h2.7l-1.1-3.3l1.1-2.2l1.4-20.9v-9.9v-14.5l-0.3,0.4l0.3-4.9v-9.9l-9.5,5.2v7.4l-1.9,5.6l-4.3,2.1l-3.5,6.2v1.9l4.3-3.1l-4.3,7.6
			l5.2-3.9l-3.1,6.4l-6,5.6l8.5-2.7L133,197l-4.8,4.8l-4.5,1.4l8.6,2l-2.6,4.6v1.9l4.3-3.1l-4.3,7.6l5.2-3.9l-3.1,6.4l-6,5.6
			l8.5-2.7l-1.2,4.3l-4.8,4.8l-4.5,1.4l9.1,2.1h1.4l1,8.3l2.1,4.8l3.5,0.9l0.4,3.6l-4.7,5.9l0.6,5.3l0.8,7.4l-1.2,5.8l-4.1,2.5
			l-2.8,6.6l0.2,1.8l4-3.6l-3.5,8.1l4.7-4.5l-2.4,6.7l-5.3,6.2l8.1-3.6l-0.7,4.5l-4.2,5.3l-4.4,1.9l9.3,1l1.4-0.2l2,8.1l0.4,0.6
			l1,11.2l-3.2,4.6l-2.3,4l-1.5,2.2l-2,2.3l2.4-1.2l0.5,5l1.5,4.2l-8.6-2.1l6.4,5.2l3.5,6.2l-5.4-3.6l4.8,7.3l-4.5-2.8l0.1,1.9
			l3.9,6l4.5,1.8l2.2,5.4l0.5,7.4l0.4,5.4l1.4,1.2l1.2,25.9c0,0-0.2,6.3,0.3,14.7l-0.2,0.8l0.3,0.5c0.6,7.7,1.8,17,4.5,24.5l0,2.9
			l0.9,1.6l0.5-1c0.5,1.2,1.1,2.4,1.8,3.4l0,1.5l0.4-0.9c0.6,0.9,1.2,1.8,1.9,2.6c0.1,0.2,0.3,0.3,0.4,0.5l-2.1,6.8l4.3-4.6
			c0.9,0.9,1.8,1.8,2.8,2.6l-1.7,6.3l-3.2,3.5l8.9-2.7l1.3-0.7l5,6.7l4.2,3.1l4.7-1.3l2.9-1.6l0,0.2l3.9,5.9l1.7,0.8l-0.8-5.1
			c0,0,0.1,0,0.1,0l4.7,7.1l-1.1-5.8c0.2,0.1,0.3,0.1,0.5,0.2l3.8,4.9l2.3,7.9l1.4-8.8l3.3,3.1l2.1,6.4l-0.8,4.7l5.9-7.2l0.7-1.3
			l7.8,2.8l5.2,0.3l3.3-3.7l0.2-0.5l5.5,1.3l17.1,2.2l0,0.4l1.7-0.2l1.4,0.2l0-0.3l17.2-1.9l26.8-5.6c0,0,1.5-0.3,4-0.8l1.5,1.8
			l4.3-0.2l6.4-2.3l0.6,1.1l5,6.1l-0.7-4l1.7-5.4l2.7-2.5l1.3,7.4l1.8-6.6l3.5-4.7l-0.9,5.4l3.9-6.1l-0.6,4.4l1.4-0.7l3.2-4.9
			l-0.1-2.8c3.7-2.4,7.3-5.2,10.4-8.3l2.3-1.1l0.7-2.3c1-1.4,1.9-2.9,2.7-4.5l1.5-0.8l1.9-4.9l-1.4,0.7c5.6-16.3,5.2-39.2,5.2-39.2
			l1.8-27l0.2,0l2.5-4.5l1.9-8.1l1.4,0.1l9.3-1.1l-4.4-1.9l-4.2-5.2l-0.8-4.4l8.2,3.5l-5.4-6.2l-2.4-6.7l4.7,4.4l-3.5-8.1l4,3.5
			l0.2-1.9l-2.9-6.5l-4.1-2.5l-1.3-5.7l0.8-7.4l0.6-5.3l-0.5-0.6l0.1-1.9l-0.7,1.1l-0.7-0.9l1.2-2.1l2-8.1l1.4,0.2l9.3-1l-4.4-1.9
			l-4.2-5.3l-0.7-4.5l8.1,3.6l-5.3-6.2l-2.4-6.7l4.7,4.5l-3.5-8.1l4,3.6l0.2-1.8l-2.8-6.6l-4.1-2.5l-1.2-5.8l0.8-7.4l0.6-5.3
			l-1.2-1.5l1.8-0.5L371.3,255.8z M172.7,447.2C172.7,447.2,172.7,447.2,172.7,447.2l7.4-3C177.4,446,174.7,447.6,172.7,447.2z
			 M334.2,413.5c-1.4,5.1-8.1,19.8-8.1,19.8l-2.7,10.8c-1.9-1.3-3.7-2.5-5.2-2.7c-10.2-1.7-39.2,12.8-39.2,12.8s-9.3-7.6-13.1-8.7
			c-3-0.9-12.6,0.3-12.6,0.3s-10.3-1.4-13.6-0.5c-3.8,1-13.3,8.4-13.3,8.4s-24.5-12.8-36.3-13.6l-2.7-11.1c0,0-6.5-11.4-8.1-15.4
			c-1.9-4.8-6-14.9-5.3-20c0.6-4.2,5.2-12.1,8.7-14.5c5.8-4,20.8-5.1,27.9-4.9c10.3,0.3,40.2,9.8,40.2,9.8s19.1-7.4,26.1-8.5
			c5.9-0.9,17.8-0.8,23.6,0c4.6,0.6,14.3,1.1,18.2,3.6c6.1,4,15.4,16.6,17.1,23.7C336.5,405.4,334.9,410.9,334.2,413.5z"/>
		<g>
			<path class="st4" d="M333.9,413.5c-0.1-0.1,0.3-1.4,0.9-3.9c0.3-1.3,0.6-2.8,0.7-4.6c0-0.5,0-0.9,0-1.4c0-0.2-0.1-0.5-0.1-0.7
				c-0.1-0.2-0.1-0.5-0.2-0.7c-0.3-1-0.7-2-1.2-3.1c-1-2.1-2.3-4.5-3.9-6.8c-1.5-2.3-3.3-4.7-5.5-7.2c-1.1-1.2-2.3-2.5-3.6-3.7
				c-0.7-0.6-1.4-1.2-2.1-1.7c-0.7-0.5-1.6-0.9-2.5-1.2c-3.7-1.2-7.8-1.6-11.9-2.1c-2.1-0.2-4.2-0.5-6.2-0.7
				c-2.1-0.2-4.2-0.3-6.4-0.3c-4.5-0.1-9.1-0.1-13.9,0.5c-2.3,0.3-4.7,0.9-7,1.6c-2.3,0.7-4.6,1.4-6.9,2.2c-4.1,1.4-8.4,3-12.9,4.7
				l-0.2,0.1l-0.2-0.1c-0.6-0.2-1.2-0.4-1.9-0.6c-5.2-1.6-10.4-3.1-15.5-4.6c-2.6-0.7-5.2-1.4-7.6-2c-2.5-0.6-5.2-1.2-7.9-1.7
				c-2.7-0.5-5.5-0.9-8.4-0.9c-3,0-5.8,0.1-8.6,0.4c-2.8,0.3-5.6,0.6-8.4,1.2c-2.8,0.6-5.5,1.3-8,2.5c-2.2,1.1-3.8,3.2-5.3,5.2
				c-1.4,2.1-2.7,4.4-3.6,6.8c-0.4,1.2-0.8,2.4-0.9,3.6c-0.1,1.2,0.1,2.5,0.3,3.7c0.5,2.5,1.2,5,2.1,7.4c0.8,2.4,1.8,4.8,2.7,7.2
				c0.9,2.4,2.1,4.6,3.3,6.9c1.7,3.2,3.4,6.3,5,9.1l0,0.1l0,0.1c0.4,1.6,0.7,3.1,1.1,4.6l1.5,6.5l-0.4-0.3c3.7,0.3,7.3,1.4,10.8,2.5
				c3.5,1.2,6.9,2.5,10.3,4c3.9,1.7,8,3.5,12.1,5.5c1.1,0.5,2.1,1.1,3.3,1.6l-0.5,0c0.9-0.7,1.8-1.4,2.7-2c1.8-1.3,3.6-2.5,5.4-3.7
				c0.9-0.6,1.8-1.1,2.7-1.6c0.9-0.5,1.9-1,3-1.2c2.1-0.4,4.1-0.2,6.1-0.1c2,0.1,4,0.3,5.9,0.6c0.5,0.1,1,0.1,1.4,0.2l-0.1,0
				c1.6-0.2,3.1-0.3,4.6-0.4c1.9-0.1,3.7-0.2,5.4-0.1c0.9,0,1.7,0.1,2.5,0.3c0.8,0.2,1.5,0.6,2.2,0.9c2.7,1.5,4.9,3.1,6.9,4.6
				c1.5,1.1,2.9,2.2,4.3,3.3l-0.3,0c3-1.5,5.9-2.9,8.7-4.1c4.3-1.9,7.7-3.2,9.8-4c4.5-1.7,8.4-2.9,12-3.7c0.9-0.2,1.8-0.4,2.6-0.5
				c1-0.2,1.9-0.3,2.9-0.4c1.9-0.1,4-0.1,5.6,0.9c1.2,0.7,2.3,1.4,3,1.9l-0.1,0c1.1-4.3,2-7.9,2.8-10.8l0,0c0.8-1.7,1.3-2.9,1.9-4.1
				c2.2-4.9,3.9-8.8,5-11.5c0.5-1.3,0.9-2.4,1.2-3.1c0.2-0.7,0.4-1.1,0.4-1c0,0-0.1,0.4-0.3,1.2c-0.2,0.7-0.6,1.8-1.1,3.2
				c-1,2.8-2.7,6.8-4.8,11.7c-0.5,1.1-1,2.3-1.7,3.8l0-0.1c-0.8,3.2-1.7,6.8-2.7,10.8l-0.2,0.8l-0.7-0.5c-1-0.7-2.2-1.5-3.4-2.1
				c-1.5-0.8-3.4-0.7-5.3-0.5c-1,0.1-2,0.3-2.9,0.5c-1.1,0.2-2.2,0.5-3.3,0.8c-4.4,1.1-8.4,2.6-12.3,4.1c-1.9,0.7-4.4,1.7-7.6,3.1
				c-2.4,1-5.2,2.4-9,4.2l-0.3,0.1l-0.2-0.2c-1-0.8-2.3-1.8-3.8-2.9c-1.3-0.9-2.7-1.9-4.1-2.9c-1.4-0.9-2.9-1.9-4.4-2.6
				c-0.7-0.3-1.5-0.4-2.4-0.5c-0.8-0.1-1.7-0.1-2.5-0.1c-1.7,0-3.4,0.1-5.1,0.2c-1.1,0.1-2.1,0.2-3.1,0.3l0,0l0,0
				c-2.3-0.3-4.6-0.6-7.4-0.8c-1.9-0.1-3.9-0.2-5.9,0.1c-1.9,0.5-3.6,1.6-5.4,2.7c-1.7,1.1-3.5,2.3-5.2,3.6
				c-0.9,0.7-1.9,1.4-2.9,2.1l-0.1,0.1l-0.1-0.1c-0.7-0.3-1.4-0.7-2.2-1.1c-3.8-1.9-7.9-3.8-12.6-5.8c-3.5-1.5-6.9-2.9-10.4-4.1
				c-3.5-1.2-7.2-2.3-11.1-2.7l-0.1,0l0-0.1c-0.4-1.9-0.9-4-1.5-6.2c-0.4-1.7-0.8-3.3-1.1-4.9l0,0c-1.6-2.9-3.2-5.8-4.7-8.7
				c-1.2-2.2-2.3-4.4-3.3-6.8c-0.9-2.4-1.8-4.7-2.7-7.1c-0.8-2.4-1.6-4.9-2.2-7.4c-0.5-2.5-0.9-5.2,0.1-7.6c0.8-2.5,2-4.8,3.4-6.9
				c0.7-1.1,1.5-2.1,2.3-3.1c0.8-1,1.8-1.9,2.9-2.6c2.4-1.5,5.3-2.2,8-2.9c2.8-0.6,5.6-1,8.4-1.3c1.4-0.1,2.8-0.2,4.2-0.3l2.1-0.1
				c0.7,0,1.3,0,2,0c2.6-0.1,5.3,0.2,8,0.6c2.7,0.4,5.5,1.1,8.4,1.7c2.9,0.7,5.7,1.4,8.4,2.1c5.4,1.5,10.5,3,15.4,4.5
				c0.8,0.3,1.7,0.5,2.6,0.8l0,0l0,0c3.9-1.5,7.9-3,11.9-4.4c2.4-0.8,4.9-1.7,7.3-2.4c2.4-0.7,4.8-1.4,7.2-1.8
				c4.8-0.6,9.5-0.6,14.1-0.6c2.3,0,4.7,0.1,6.9,0.3c1.1,0.1,2.2,0.3,3.3,0.4c1.1,0.1,2.1,0.2,3.2,0.4c4.2,0.5,8,0.9,11.4,2
				c0.8,0.3,1.7,0.6,2.4,1.1c0.8,0.5,1.5,1,2.1,1.6c1.4,1.1,2.6,2.3,3.7,3.6c2.3,2.5,4.3,5.1,6,7.7c1.7,2.5,3,4.8,4,7.1
				c1,2.2,1.7,4.3,1.5,6.2c-0.2,1.9-0.5,3.4-0.8,4.7c-0.3,1.2-0.6,2.2-0.8,2.8C334.1,413.2,334,413.5,333.9,413.5z"/>
		</g>
		<g>
			<path class="st4" d="M172.8,447c0-0.1,0.2-0.2,0.5-0.2c0.1,0,0.2,0,0.3,0c0.1,0,0.2,0,0.3-0.1c0.1,0,0.2-0.1,0.4-0.1
				c0.1,0,0.3-0.1,0.4-0.1c0.1,0,0.3,0,0.4-0.1c0.2-0.1,0.3-0.1,0.5-0.2l0.2-0.1c0.1,0,0.2-0.1,0.2-0.1c0.2-0.1,0.3-0.2,0.5-0.3
				c0.2-0.1,0.4-0.2,0.6-0.2c0.1,0,0.2-0.1,0.3-0.1c0.1-0.1,0.2-0.1,0.2-0.2c0.1-0.1,0.2-0.1,0.3-0.2c0.1-0.1,0.2-0.1,0.3-0.2
				l0.5-0.3c0.3-0.2,0.7-0.4,1-0.6l0.1-0.1l0.5,0.9l-0.4,0.2c-0.2,0.1-0.4,0.1-0.6,0.2c-0.4,0.1-0.7,0.2-1,0.4
				c-0.2,0.1-0.3,0.2-0.5,0.2c-0.1,0-0.2,0.1-0.2,0.1l-0.2,0.1c-0.2,0.1-0.3,0.1-0.4,0.2l-0.2,0.1c-0.1,0-0.2,0-0.2,0.1
				c-0.3,0.1-0.5,0.1-0.7,0.2c-0.2,0.1-0.3,0.2-0.5,0.3c-0.2,0.1-0.3,0.1-0.4,0.1c-0.2,0-0.4,0-0.5,0.1c0,0-0.1,0-0.1,0l-0.1,0
				c-0.1,0-0.1,0-0.2,0c-0.3,0.1-0.5,0.1-0.7,0.1c-0.4,0.1-0.6,0.1-0.7,0l-0.2-0.2l0.2,0.8c0,0,0,0,0,0c0,0,0,0,0,0l-0.1,0.1
				l0.1-0.9c0-0.1,0.2-0.2,0.5-0.4c0.2-0.1,0.4-0.2,0.7-0.3c0.1,0,0.1,0,0.2-0.1l0.1,0c0,0,0.1,0,0.1,0c0.2,0,0.3-0.1,0.5-0.1
				c0.1,0,0.2,0,0.3-0.1c0.1-0.1,0.3-0.2,0.5-0.3c0.1-0.1,0.2-0.1,0.4-0.1c0.1,0,0.3,0,0.4-0.1c0.1,0,0.2-0.1,0.4-0.1
				c0.1,0,0.3-0.1,0.4-0.1l0.2-0.1c0.1,0,0.1-0.1,0.2-0.1c0.1-0.1,0.3-0.2,0.5-0.2c0.3-0.1,0.7-0.2,1.1-0.3c0.2,0,0.4-0.1,0.6-0.1
				l0.4-0.1l0,0l-0.1,0.1c-0.4,0.2-0.7,0.4-1,0.6l-0.6,0.3l-0.1,0.1l-0.1,0c0,0,0,0-0.1,0c-0.1,0.1-0.2,0.1-0.2,0.2
				c-0.1,0.1-0.2,0.1-0.3,0.2c-0.1,0.1-0.2,0.1-0.3,0.2c-0.2,0.1-0.4,0.2-0.6,0.3c-0.2,0.1-0.3,0.2-0.5,0.3
				c-0.1,0.1-0.2,0.1-0.3,0.1l-0.3,0.1c-0.2,0.1-0.3,0.1-0.5,0.2c-0.2,0.1-0.3,0.1-0.5,0.1c-0.2,0-0.3,0-0.4,0.1
				c-0.1,0-0.3,0.1-0.4,0.1c-0.1,0-0.3,0-0.4,0.1c-0.1,0-0.2,0-0.3,0C172.9,447.2,172.7,447.1,172.8,447z"/>
		</g>
		<g>
			<path class="st4" d="M371.6,255.9c0,0.1-0.7,1.7-2,4.8l-0.1,0.2l-0.2,0c-0.5,0.1-1.1,0.3-1.8,0.5l0.2-0.6
				c0.4,0.5,0.8,0.9,1.2,1.5l0.1,0.1l0,0.2c-0.4,3.3-0.8,7.6-1.4,12.7l0-0.1c0.4,1.8,0.8,3.7,1.2,5.8l-0.2-0.3
				c1.3,0.8,2.7,1.7,4.1,2.5l0.1,0.1l0.1,0.1c0.9,2.1,1.8,4.3,2.8,6.6l0,0.1l0,0.1c-0.1,0.6-0.1,1.2-0.2,1.8l-0.1,0.9l-0.7-0.6
				c-1.3-1.2-2.6-2.3-4-3.6l0.8-0.6c1.1,2.6,2.3,5.3,3.5,8.1l1,2.2l-1.8-1.7c-1.5-1.4-3.1-2.9-4.7-4.5l0.8-0.5
				c0.8,2.2,1.6,4.4,2.4,6.7l-0.1-0.2c1.1,1.3,2.3,2.6,3.5,4c0.6,0.7,1.1,1.3,1.9,2.2l1.5,1.8l-2.1-0.9c-2.3-1-5-2.2-8.1-3.6
				l0.7-0.6c0.2,1.1,0.5,2.8,0.7,4.5l-0.1-0.2c1.1,1.4,2.6,3.3,4.2,5.3l-0.2-0.2c1.2,0.5,2.8,1.2,4.4,1.9l1.8,0.8l-2,0.2
				c-2.7,0.3-6,0.7-9.3,1l-0.1,0l-0.1,0c-0.4,0-0.9-0.1-1.4-0.2l0.6-0.4c0,0.1,0,0.2-0.1,0.2c-0.6,2.4-1.2,4.8-1.9,7.9l0,0.1l0,0.1
				c-0.3,0.5-0.7,1.3-1.2,2.1l0-0.6c0.2,0.2,0.4,0.6,0.7,0.9l-0.9,0.1c0.2-0.3,0.4-0.7,0.7-1.1l1.2-1.8l-0.1,2.2
				c0,0.4-0.1,1.2-0.1,1.9l-0.1-0.4c0.1,0.1,0.3,0.4,0.5,0.6l0.1,0.2l0,0.2c-0.4,3.5-0.8,8-1.3,12.7l0-0.2c0.3,1.5,0.8,3.6,1.3,5.7
				l-0.3-0.4c1.1,0.7,2.6,1.6,4.1,2.5l0.2,0.1l0.1,0.2c0.6,1.4,1.4,3.2,2.2,5c0.2,0.5,0.4,0.9,0.7,1.5l0.1,0.1l0,0.2
				c-0.1,0.5-0.1,1.1-0.2,1.9l-0.1,1.1L373,356c-1.1-1-2.5-2.2-4-3.5l0.9-0.7c1,2.2,2.2,5,3.5,8.1l1.2,2.6l-2.1-2
				c-1.2-1.2-2.9-2.8-4.7-4.4l1-0.6c0.6,1.8,1.5,4.2,2.4,6.7L371,362c1.5,1.7,3.4,3.9,5.4,6.2l1.8,2l-2.5-1.1
				c-2.2-1-5.2-2.2-8.2-3.5l0.8-0.7c0.2,1.2,0.5,2.8,0.8,4.4l-0.1-0.3c0.1,0.1,0.3,0.3,0.4,0.5c1.2,1.5,2.5,3.1,3.8,4.7l-0.2-0.2
				c1.4,0.6,2.9,1.2,4.4,1.9l2,0.9l-2.2,0.3c-2.9,0.4-6.1,0.7-9.3,1.1l-0.1,0l-0.1,0c-0.4,0-0.9-0.1-1.4-0.1l0.6-0.5
				c-0.6,2.6-1.2,5.3-1.9,8.1l0,0.1l0,0.1c-0.8,1.4-1.7,3-2.5,4.5l-0.1,0.3l-0.3,0c-0.1,0-0.1,0-0.2,0l0.5-0.5
				c-0.5,8-1.1,16.3-1.7,24.6c-0.1,0.8-0.1,1.6-0.2,2.4l0,0c0,6.6-0.4,13.1-1.1,19.7c-0.4,3.3-0.9,6.6-1.5,9.9
				c-0.7,3.3-1.5,6.6-2.6,9.8l-0.7-0.6c0.4-0.2,0.9-0.5,1.4-0.7l1.2-0.6l-0.5,1.3c-0.6,1.5-1.2,3.2-1.9,4.9l-0.1,0.2l-0.2,0.1
				c-0.5,0.2-1,0.5-1.5,0.8l0.2-0.2c-0.7,1.5-1.6,3.1-2.7,4.6l0.1-0.2c-0.2,0.7-0.5,1.5-0.7,2.3l-0.1,0.2l-0.2,0.1
				c-0.7,0.4-1.5,0.7-2.3,1.1l0.1-0.1c-0.2,0.2-0.5,0.5-0.8,0.8c-3,2.9-6.3,5.4-9.7,7.6l0.2-0.5l0.1,2.8l0,0.2l-0.1,0.1l-3.2,4.9
				l-0.1,0.1l-0.1,0.1l-1.4,0.7l-0.9,0.4l0.1-1l0.6-4.4l0.9,0.3l-3.9,6.1l-1.4,2.1l0.4-2.5l0.9-5.4l0.9,0.4l-3.5,4.7l0.1-0.2
				l-1.8,6.6l-0.6,2.2l-0.4-2.3l-1.3-7.4l0.8,0.3l-2.7,2.5l0.1-0.2l-1.4,4.4l-0.3,1l0-0.2l0.7,4l0.3,1.9l-1.2-1.5l-5-6.1l0,0l0,0
				l-0.6-1.1l0.6,0.2l-6.4,2.3l-0.1,0l-0.1,0l-4.3,0.2l-0.2,0l-0.2-0.2l-1.5-1.8l0.5,0.2l-7.9,1.6c-7.5,1.6-15.1,3.1-23,4.8l0,0l0,0
				c-3.9,0.4-8,0.9-12.2,1.3c-1.6,0.2-3.2,0.3-5,0.5l0.4-0.5c0,0.1,0,0.2,0,0.3l0,0.5l-0.5-0.1c-0.4-0.1-0.9-0.1-1.4-0.2l0.1,0
				c-0.5,0.1-1.1,0.1-1.7,0.2l-0.5,0.1l0-0.5c0-0.1,0-0.3,0-0.4l0.4,0.5c-5.3-0.7-11-1.4-17.1-2.2l0,0l0,0c-1.6-0.4-3.6-0.8-5.5-1.3
				l0.6-0.3c-0.1,0.1-0.1,0.3-0.2,0.5l0,0.1l0,0c-1,1.1-2.1,2.4-3.3,3.7l-0.2,0.2l-0.2,0c-1.5-0.1-3.3-0.2-5.2-0.3l-0.1,0l-0.1,0
				c-2.3-0.8-5.1-1.8-7.8-2.8l0.6-0.3c-0.2,0.4-0.4,0.8-0.7,1.3l0,0.1l0,0c-1.8,2.2-3.9,4.7-5.9,7.2l-1.2,1.4l0.3-1.9
				c0.2-1.4,0.5-3.1,0.8-4.7l0,0.2c-0.6-1.9-1.4-4.2-2.1-6.4l0.1,0.2c-0.8-0.7-1.7-1.6-2.6-2.4c-0.2-0.2-0.5-0.5-0.7-0.7l0.8-0.3
				c-0.5,3-1,5.9-1.4,8.8l-0.4,2.2l-0.6-2.2c-0.8-2.7-1.5-5.3-2.3-7.9l0.1,0.2c-1.3-1.7-2.5-3.3-3.8-4.9l0.2,0.2
				c-0.2-0.1-0.3-0.1-0.5-0.2l0.6-0.6c0.4,2,0.7,3.9,1.1,5.8l0.4,2.4l-1.3-2c-1.6-2.4-3.2-4.8-4.7-7.1l0.2,0.2l-0.1,0l0.6-0.5
				c0.3,1.8,0.5,3.4,0.8,5.1l0.1,0.9l-0.8-0.4c-0.6-0.3-1.1-0.6-1.7-0.8l-0.1-0.1l-0.1-0.1c-1.4-2-2.6-4-3.9-5.9l-0.1-0.1l0-0.1
				l0-0.2l0.7,0.4c-1,0.6-1.9,1.1-2.9,1.6l-0.1,0l-0.1,0c-1.6,0.4-3.2,0.9-4.7,1.3l-0.2,0.1l-0.2-0.1c-1.4-1.1-2.8-2.1-4.1-3.1
				l-0.1,0l0-0.1c-1.7-2.3-3.3-4.5-5-6.7l0.6,0.1c-0.4,0.2-0.8,0.5-1.3,0.7l0,0l0,0c-0.7,0.2-1.5,0.4-2.2,0.7
				c-2.3,0.7-4.5,1.4-6.7,2l-1.6,0.5l1.1-1.2c1.1-1.2,2.2-2.4,3.2-3.5l-0.1,0.2c0.6-2.2,1.2-4.3,1.7-6.3l0.1,0.4
				c-1-0.9-1.9-1.8-2.8-2.6l0.6,0c-1.5,1.6-2.9,3.1-4.3,4.6l-1.3,1.4l0.6-1.8c0.7-2.4,1.4-4.6,2.1-6.8l0.1,0.4
				c-0.7-0.8-1.3-1.6-1.9-2.4c-0.2-0.2-0.3-0.5-0.5-0.7l0.8-0.1c-0.1,0.3-0.3,0.6-0.4,0.9l-0.8,2l0-2.1c0-0.5,0-1,0-1.5l0.1,0.2
				c-0.6-1.1-1.2-2.2-1.8-3.5l0.8,0c-0.1,0.3-0.3,0.7-0.5,1l-0.4,0.8l-0.4-0.7c-0.3-0.5-0.6-1-0.9-1.6l-0.1-0.1l0-0.1
				c0-0.9,0-1.9,0-2.9l0,0.1c-2.6-7.6-3.9-16.1-4.5-24.7l0.1,0.2c-0.1-0.2-0.2-0.3-0.3-0.5l-0.1-0.2l0.1-0.2
				c0.1-0.2,0.1-0.4,0.2-0.7c0,0,0-0.1,0-0.1l0,0.2c-0.3-4.8-0.5-9.6-0.3-14.8l0,0c-0.4-8.2-0.8-16.9-1.3-25.9l0.2,0.4
				c-0.3-0.3-0.6-0.5-0.9-0.8c-0.1-0.1-0.3-0.3-0.4-0.4l-0.2-0.1l0-0.2c-0.3-4.5-0.6-8.9-0.9-12.8l0,0.2c-0.8-2-1.5-3.8-2.2-5.4
				l0.3,0.3c-1.6-0.7-3.1-1.2-4.5-1.8l-0.2-0.1l-0.1-0.1c-1.4-2.1-2.7-4.1-3.9-6l-0.1-0.1l0-0.1c0-0.7-0.1-1.3-0.1-1.9l-0.1-1
				l0.9,0.5c1.6,1,3.1,1.9,4.5,2.8l-0.7,0.7c-0.8-1.2-1.5-2.3-2.2-3.4l-2.6-4l-1.4-2.1l2.1,1.4l5.4,3.6l-0.7,0.7l-3.5-6.2l0.1,0.1
				l-6.4-5.2l-1.8-1.5l2.3,0.6l8.6,2.1l-0.6,0.7l-1.5-4.2l0-0.1l0-0.1l-0.5-5l0.7,0.4l-2.4,1.2l-2.3,1.1l1.7-1.9l2-2.3l0,0l1.5-2.2
				l0,0l2.3-4l0,0l0,0l3.2-4.6l-0.1,0.3l-1-11.2l0.1,0.2l-0.4-0.6l0-0.1l0-0.1l-1.9-8l0-0.1l0.6,0.4c-0.5,0.1-1,0.1-1.4,0.2l-0.1,0
				l-0.1,0c-3.1-0.3-6.2-0.7-9.3-1l-1.9-0.2l1.7-0.8c1.5-0.7,2.9-1.3,4.4-1.9l-0.2,0.2c1.4-1.8,2.8-3.5,4.2-5.3l-0.1,0.2
				c0.2-1.5,0.5-3,0.7-4.5l0.7,0.6c-2.7,1.2-5.4,2.4-8.1,3.6l-2.1,0.9l1.5-1.8c1.8-2.1,3.6-4.2,5.3-6.2l-0.1,0.2
				c0.8-2.3,1.6-4.5,2.4-6.7l0.8,0.5c-1.6,1.5-3.1,3-4.7,4.5l-1.8,1.7l1-2.3c1.2-2.7,2.3-5.4,3.5-8.1l0.8,0.6
				c-1.3,1.2-2.6,2.4-4,3.6l-0.7,0.7l-0.1-1c-0.1-0.6-0.1-1.2-0.2-1.8l0-0.1l0.1-0.1c0.9-2.2,1.9-4.4,2.8-6.6l0.1-0.2l0.1-0.1
				c1.4-0.9,2.7-1.7,4.1-2.5l-0.2,0.3c0.4-1.9,0.8-3.8,1.2-5.8l0,0.2c-0.5-4.3-1-8.5-1.4-12.7l0-0.2l0.1-0.2c1.6-2,3.2-4,4.7-5.9
				l-0.1,0.4c-0.1-1.2-0.3-2.4-0.4-3.6l0.4,0.4c-1.2-0.3-2.3-0.6-3.5-0.9l-0.2-0.1l-0.1-0.2c-0.7-1.6-1.4-3.2-2.1-4.8l0-0.1l0-0.1
				c-0.3-2.8-0.7-5.5-1-8.3l0.5,0.5c-0.5,0-1,0-1.4,0h-0.1l-0.1,0c-3.1-0.7-6.1-1.4-9.1-2.1l-1.8-0.4l1.8-0.6c1.5-0.5,3-1,4.5-1.4
				l-0.2,0.1c0.9-0.9,1.8-1.8,2.7-2.7l2-2l-0.1,0.2l1.2-4.3l0.6,0.6l-8.5,2.7l-2.2,0.7l1.7-1.5l6-5.6l-0.1,0.2l3.1-6.4l0.8,0.6
				l-5.2,3.9l-2,1.5l1.2-2.1l4.3-7.6l0.7,0.7l-4.3,3.1l-0.8,0.6l0-1l0-1.9l0-0.1l0.1-0.1l2.6-4.6l0.3,0.7l-8.6-2l-1.8-0.4l1.8-0.6
				l4.5-1.4l-0.2,0.1l1.8-1.8c1-1,2.1-2.1,3-3l-0.1,0.2c0.4-1.6,0.9-3,1.2-4.3l0.6,0.6c-3.1,1-5.8,1.8-8.5,2.7l-2.1,0.7l1.6-1.5
				c2.2-2,4.1-3.8,6-5.6l-0.1,0.1c1.1-2.3,2.1-4.4,3.1-6.4l0.7,0.6c-1.9,1.4-3.5,2.7-5.2,3.9l-1.9,1.4l1.2-2c1.6-2.8,3-5.2,4.3-7.6
				l0.7,0.6c-1.6,1.1-3,2.1-4.3,3.1l-0.7,0.5l0-0.9c0-0.7,0-1.3,0-1.9l0-0.1l0.1-0.1c1.3-2.2,2.4-4.2,3.5-6.2l0.1-0.1l0.1-0.1
				c1.6-0.7,3-1.4,4.3-2.1l-0.2,0.3c0.7-2,1.3-3.8,1.9-5.6l0,0.1c0-0.3,0-0.6,0-0.9l0-6.5l0-0.3l0.2-0.1l9.5-5.2l0.7-0.4l0,0.8
				c0,4.9,0.2,9.9-0.3,14.8l-0.8-0.3l0.3-0.4l0.8-0.9l0,1.2l0,22.7c0.1,1.9-0.2,3.8-0.3,5.7l-0.4,5.7l-0.8,11.3l0,0.1l0,0.1
				l-1.1,2.2l0-0.3l1.1,3.3l0.2,0.5l-0.6,0l-2.7,0l0.4-0.2l-0.6,1.2l0-0.1l-2.1,6.4l0-0.2l1.2,8.7l0-0.1l4.1,12.6l0.2,0.5l-0.6,0
				l-2.4,0l0.4-0.4l1.2,10.5l0.6,5.2l0.3,2.6l0.1,2.6c0.3,6,0.5,12,0.8,18.2l0,0.1l0,0.1c-0.8,2.3-1.7,4.6-2.5,6.9l0-0.2
				c0.5,2.1,1.1,4.2,1.6,6.3l0,0l0,0c0.4,2.9,0.8,5.9,1.2,8.9l0-0.1c1.2,3.9,2.4,7.9,3.6,11.9l0,0l0,0c0.6,3.7,1.1,7.5,1.7,11.3
				c0,0.2,0,0.3,0.1,0.5l0-0.1c0.8,2.4,1.5,4.8,2.3,7.4l0,0l0,0c0.2,0.9,0.4,1.9,0.6,2.9l0-0.1c1.4,2.5,2.8,5.1,4.1,7.7
				c1.3,2.7,2.5,5.4,3.4,8.3l0-0.1c0.3,0.4,0.5,0.9,0.8,1.3l0.2,0.3l-0.2,0.2c-0.1,0.2-0.3,0.3-0.4,0.5l0.1-0.4
				c0.2,1.1,0.4,2.2,0.5,3.3c0.6,5.6,0.7,11.2,0.6,16.8l-0.7-0.4c4.1-2.9,8.1-5.8,12.4-8.5c1.1-0.7,2.2-1.4,3.3-2
				c1.1-0.7,2.3-1.2,3.5-1.7c2.3-1.1,4.7-2,7.1-3c2.4-0.9,4.8-1.8,7.2-2.5c2.4-0.7,4.9-1.3,7.4-1.6c2.6-0.3,5.1,0.2,7.5,0.8
				c2.4,0.6,4.7,1.5,7,2.3c2.3,0.9,4.6,1.7,6.8,2.6c2.3,0.9,4.5,1.7,6.8,2.3l17.3,4.4l-0.2,0l10.8-2.7c4.9-1.3,9.8-2.5,14.4-4
				c4.5-1.7,8.7-3.9,13-5.7c1.9-0.8,3.8-1.6,5.7-2.2c2-0.6,3.9-0.8,5.9-1c3.9-0.4,7.7-0.6,11.5-0.3c1.9,0.2,3.7,0.4,5.4,1.3
				c1.6,0.9,3,2,4.4,3.2c2.7,2.3,5.2,4.7,7.5,7.1l0,0c4,3.1,7.9,6.1,11.6,9l-0.4,0.2c0.2-5.6,0.5-11,1.5-16.1c0.5-2.6,1.7-4.9,2.8-7
				c1.2-2.2,2.5-4.2,3.7-6.2c2.1-3.3,4.4-6.5,6.6-9.7l0,0.1c0-1.1,0.1-2.3,0.1-3.4c0-0.6,0-1.1,0.1-1.7l0.2-1.7
				c0.2-2.2,0.5-4.4,0.7-6.6l0.3,0.3c-1.3-0.1-2.5-0.3-3.7-0.4l-0.4,0l0.2-0.4c1.7-3.7,3.3-7.2,4.9-10.7l0,0.1
				c0.2-1.7,0.3-3.2,0.5-4.7l0.1-0.9l0.5,0.7c0.3,0.4,0.5,0.7,0.7,1.1l-0.6,0.1c0.6-2.2,1.1-4.2,1.6-6.2l0,0.1
				c-0.5-2.4-0.9-4.5-1.3-6.6l0,0c-0.9-2.5-1.7-4.7-2.5-6.9l0-0.1l0-0.1c0.1-2.2,0.2-4.1,0.3-6c0.2-4.7,0.4-9.1,0.6-13.2
				c0-0.5,0-1,0.1-1.5c0-0.5,0.1-1,0.2-1.5c0.1-1,0.2-2,0.3-2.9c0.2-1.9,0.4-3.7,0.6-5.4l0.3,0.4h0h-0.5l0.1-0.4c0,0,0-0.1,0-0.1
				l0,0.1c0.7-5.8,1.2-10.6,1.6-14.4l0.1-0.9l0.5,0.7c1,1.4,1.5,2.3,2.1,3.1l-0.6,0.1c0.2-0.5,0.3-0.8,0.4-1.1l0,0.1
				c0.5-3.3,0.8-5.4,1-7.2c0.1-0.6,0.2-1.1,0.2-1.5l0,0.1c-0.8-2.6-1.5-4.8-2.1-6.4l0,0c-1.4-2.9-2.5-4.9-3.3-6.6l0,0l0-0.1
				c-0.3-4.4-0.6-8.6-0.8-12.6c-0.1-2-0.3-4-0.4-5.9c0-1-0.2-1.9-0.2-2.9c0-1,0-1.9,0-2.8c0-7.5,0-14.4,0-21l0-0.5l0.3,0.4
				c0.1,0.1,0.1,0.2,0.2,0.2c0.3,0.3,0.5,0.6,0.8,0.9l-0.3,0.1c-0.3-4.1-0.5-8-0.8-11.8c-0.2-2-0.1-4-0.1-6l0-6l0-0.2l0.2,0.1l1.9,1
				l7.6,4.1l0.1,0l0,0.1l0,7.4l0,0l1.9,5.6l-0.1-0.1l4.3,2.1l0,0l0,0l0.5,0.9c1.2,2,2.3,4.1,3,5.3l0,0l0,0c0,0.9,0,1.4,0,1.9l0,0.2
				l-0.2-0.1c-2-1.5-3.3-2.4-4.3-3.1l0.1-0.1c2,3.5,3.3,5.8,4.3,7.7l0.2,0.3l-0.3-0.2c-2.5-1.9-3.9-3-5.2-3.9l0.1-0.1
				c1.5,3.1,2.3,4.8,3.1,6.4l0,0c2.8,2.6,4.5,4.2,6,5.6l0.1,0.1l-0.2,0c-4-1.3-6.3-2-8.5-2.7l0,0c0.6,2,0.9,3.2,1.2,4.3l0,0
				c2.2,2.2,3.5,3.5,4.7,4.8l0,0c2.1,0.7,3.3,1.1,4.5,1.5l0,0c-4.1,0.9-6.6,1.5-9.1,2.1l0,0c-0.7,0-1.1,0-1.4,0l0,0l0,0
				c-0.3,2.6-0.5,4.2-0.7,5.8l0,0l0,0c0.8,0.4,1.3,0.6,1.8,0.8l0,0c1.4,2.5,2.3,4.1,3.2,5.6c0.1,0.2,0.2,0.4,0.3,0.6l0,0
				c0,0.6,0,1.3,0,1.9l0.1,0c-1.5-1.1-2.9-2.1-4.3-3.1l-0.2-0.2l0.1,0.2c1.5,2.6,2.9,5.2,4.3,7.7l0.1-0.1c-1.8-1.3-3.5-2.7-5.2-3.9
				l-0.3-0.2l0.2,0.3c1.1,2.2,2.1,4.3,3.1,6.4l0,0l0,0c2.1,1.9,4.1,3.8,6,5.6l0.1-0.2c-3-1-5.8-1.9-8.5-2.7l-0.3-0.1l0.1,0.3
				c0.4,1.5,0.8,2.9,1.2,4.3l0,0l0,0c1.7,1.7,3.3,3.3,4.7,4.8l0,0l0,0c1.6,0.5,3.1,1,4.5,1.5l0-0.4c-3.5,0.8-6.6,1.5-9.1,2l0.1,0
				c-0.5,0-1,0-1.4,0l-0.2,0l0,0.2c-0.4,2.7-0.6,4.8-0.8,6.2c-0.2,1.4-0.3,2.1-0.3,2c0,0,0.1-0.8,0.2-2.2c0.2-1.4,0.4-3.4,0.7-6.1
				l0-0.4l0.4,0c0.5,0,0.9,0,1.4,0l-0.1,0c2.5-0.6,5.6-1.3,9.1-2.1l0,0.9c-1.4-0.5-2.9-0.9-4.6-1.4l-0.1,0l-0.1-0.1
				c-1.5-1.5-3.1-3.1-4.8-4.7l-0.1-0.1l0-0.1c-0.4-1.4-0.8-2.8-1.2-4.3l-0.3-0.9l0.9,0.3c2.7,0.8,5.5,1.7,8.5,2.7l-0.5,0.9
				c-1.9-1.8-3.9-3.6-6-5.6l-0.1-0.1l0-0.1c-1-2.1-2-4.2-3.1-6.4l-1-2.1l1.9,1.4c1.7,1.3,3.4,2.6,5.2,3.9l-0.8,0.7
				c-1.4-2.5-2.9-5-4.3-7.6l-1.3-2.3l2.1,1.5c1.4,1,2.8,2,4.3,3.1l-0.9,0.5c0-0.6,0-1.2,0-1.9l0.1,0.3c-0.4-0.7-0.8-1.4-1.2-2.1
				c-0.7-1.2-1.4-2.5-2.3-4.1l0.3,0.2c-0.5-0.3-1.1-0.5-1.8-0.8l-0.4-0.2l0.1-0.4c0.2-1.8,0.4-3.6,0.7-5.8l0.1-0.5l0.5,0
				c0.4,0,0.9,0,1.4,0l-0.1,0c2.8-0.6,5.6-1.3,9.1-2.1l0,1.2c-1.4-0.4-2.8-0.9-4.5-1.4l-0.1,0l-0.1-0.1c-1.5-1.5-2.9-2.9-4.8-4.8
				l-0.1-0.1l0-0.2c-0.4-1.3-0.8-2.7-1.2-4.3l-0.3-1.1l1.1,0.3c2.6,0.8,5.3,1.7,8.5,2.7l-0.6,1c-1.9-1.7-3.8-3.5-6-5.6l-0.1-0.1
				l0-0.1c-1-2-2-4.1-3.1-6.4l-1.1-2.3l2,1.5c1.6,1.2,3.2,2.4,5.2,3.9l-0.9,0.8c-1.3-2.3-2.7-4.7-4.3-7.6l-1.3-2.4l2.2,1.6
				c1.3,0.9,2.6,1.9,4.3,3.1l-1,0.5c0-0.5,0-1.1,0-1.9l0.1,0.3c-1-1.8-2.2-3.9-3.5-6.2l0.3,0.2c-0.4-0.2-0.9-0.4-1.4-0.7l-3-1.4
				l-0.2-0.1l-0.1-0.2l-1.9-5.6l0-0.1l0-0.1l0-7.4l0.3,0.5l-9.5-5.2l0.9-0.5l0,0.6c0,2.4,0,4.9,0,7.4l0,1.9l0.1,1.9
				c0.1,1.2,0.2,2.5,0.3,3.7c0.2,2.8,0.4,5.7,0.6,8.5l0.1,1.7l-1.1-1.3c-0.3-0.4-0.7-0.8-1-1.1l1-0.4c0,2.3,0,4.6,0,6.8
				c0,3.3,0,6.6,0,9.8c0,1.6,0,3.2,0,4.9l0,2.4c0,0.8,0.1,1.6,0.1,2.4c0.4,6.4,0.9,12.7,1.3,18.9l-0.1-0.2c1.1,2.2,2.2,4.5,3.3,6.6
				l0,0l0,0c0.7,2.2,1.4,4.3,2.1,6.4l0,0.1l0,0.1c-0.4,2.9-0.8,5.8-1.3,8.7l0,0l0,0c-0.1,0.4-0.2,0.7-0.4,1.1l-0.3,0.9l-0.5-0.8
				c-0.2-0.3-0.4-0.6-0.6-0.8c-0.4-0.6-0.9-1.3-1.5-2.2l0.8-0.2c-0.5,4.1-1,8.8-1.7,14.4l0,0l0,0c0,0,0,0.1,0,0.1l-0.4-0.6l0,0
				l0.5,0l-0.1,0.5c-0.3,3.2-0.8,6.7-1.1,10.5c-0.2,3.8-0.3,7.9-0.5,12.2c-0.1,2.2-0.2,4.6-0.3,7.8l0-0.2c0.7,2,1.5,4,2.5,6.9l0,0
				l0,0c0.4,1.9,0.8,3.9,1.3,6.6l0,0.1l0,0.1c-0.5,1.8-0.9,3.6-1.6,6.2l-0.2,0.9l-0.5-0.8c-0.2-0.3-0.4-0.6-0.7-1.1l0.8-0.2
				c-0.1,1.4-0.3,2.8-0.5,4.7l0,0.1l0,0.1c-1.4,3.1-3,6.6-4.9,10.7l-0.4-0.6c1.1,0.1,2.3,0.3,3.7,0.4l0.4,0.1l0,0.5
				c-0.4,4-1,8.4-1,13.3l0,0.1l-0.1,0.1c-1.5,2.3-3.2,4.6-4.8,7.1c-1.5,2.2-2.9,4.5-4.4,6.9c-0.7,1.2-1.4,2.4-2,3.7
				c-0.7,1.2-1.2,2.5-1.6,3.9c-0.7,2.7-1,5.6-1.3,8.5c-0.2,2.9-0.4,5.8-0.5,8.7l0,0.9l-0.7-0.6c-3.9-3-7.8-6-11.6-9l0,0l0,0
				c-0.3-0.3-0.6-0.6-0.9-1c-1.5-1.5-3-2.9-4.6-4.3c-1.6-1.4-3.2-2.8-4.9-3.9c-0.9-0.6-1.7-1.1-2.7-1.4c-1-0.3-2-0.5-3-0.6
				c-2.1-0.2-4.1-0.3-6.2-0.2c-2.1,0.1-4.2,0.2-6.2,0.4c-2.1,0.2-4.1,0.5-6.1,1.2c-3.9,1.3-7.7,3.1-11.4,4.8c-2.5,1.1-5,2.3-7.6,3.2
				c-2.6,0.8-5.2,1.5-7.8,2.2c-5.3,1.4-10.7,2.7-16.5,4.1l-0.1,0l-0.1,0c-5.2-1.3-11.3-2.8-17.8-4.5c-4.6-1.4-9-3.3-13.5-5
				c-2.3-0.8-4.6-1.6-6.9-2.2c-2.3-0.6-4.8-1.1-7.2-0.7c-2.4,0.3-4.8,0.9-7.2,1.6c-2.4,0.7-4.7,1.5-7,2.4c-2.3,0.9-4.6,1.9-6.9,2.9
				c-2.3,1-4.5,2.3-6.6,3.6c-4.2,2.7-8.4,5.6-12.5,8.6l-0.4,0.3l0-0.5c0-5.2,0-10.5-0.5-15.7c-0.1-1.3-0.3-2.7-0.6-4.2l0-0.1
				l0.1-0.1c0.1-0.2,0.2-0.3,0.4-0.5l0,0.2c-0.3-0.4-0.5-0.8-0.8-1.3l0,0l0,0c-0.7-2.6-1.9-5.2-3.2-7.9c-1.3-2.6-2.7-5.3-4.2-8l0,0
				l0,0c-0.2-0.9-0.4-1.8-0.6-2.9l0,0c-0.2-0.7-0.5-1.6-0.8-2.4c-0.5-1.6-1-3.2-1.6-5l0,0l0,0c-0.6-3.7-1.1-7.6-1.8-11.8l0,0
				c-1.1-3.8-2.3-7.7-3.6-11.9l0,0l0,0c-0.4-2.9-0.8-5.8-1.2-8.9l0,0c-0.5-2-1-4.1-1.6-6.3l0-0.1l0-0.1c0.8-2.2,1.7-4.5,2.5-6.9
				l0,0.1c-0.2-4.9-0.4-10-0.7-15.2c-0.1-2-0.2-4-0.3-6l-0.7-6c-0.4-4-0.9-8-1.3-12l0-0.2l0.2,0c0.8,0,1.6,0,2.4,0l-0.2,0.3
				c-1.3-4.1-2.7-8.2-4.1-12.6l0,0l0,0c-0.4-2.8-0.8-5.6-1.2-8.7l0,0l0,0c0.7-2,1.3-4.1,2.1-6.4l0,0l0,0c0.2-0.4,0.4-0.7,0.6-1.2
				l0.1-0.1l0.1,0c0.9,0,1.7,0,2.7,0l-0.2,0.3c-0.3-1-0.7-2.1-1.1-3.3l0-0.1l0-0.1c0.3-0.7,0.7-1.4,1.1-2.2l0,0.1
				c0.2-3.6,0.5-7.1,0.8-10.8c0.1-1.8,0.3-3.6,0.4-5.5c0.1-0.9,0.1-1.8,0.2-2.8c0.1-0.9,0.2-1.9,0.1-2.8c0-7.5,0-15.3,0-23.4
				l0.3,0.1c-0.1,0.1-0.2,0.2-0.3,0.4l-0.3,0.3l0-0.4c0.1-1.1,0.2-2.2,0.2-3.4c0-0.6,0.1-1.2,0.1-1.8c0-0.6,0-1.2,0-1.8
				c0-2.4,0-5,0-7.8l0.2,0.1c-2.8,1.5-6,3.3-9.5,5.2l0.1-0.1c0,1.5,0,3.3,0,5.1c0,0.8,0,1.6,0,2.3l0,0l0,0c-0.6,1.9-1.3,3.8-1.9,5.6
				l0,0l0,0c-1.5,0.7-3,1.4-4.3,2.1l0,0c-1.2,2.1-2.4,4.2-3.5,6.2l0,0c0,0.6,0,1.3,0,1.9l-0.2-0.1c1.5-1.1,3-2.1,4.3-3.1l0.3-0.2
				l-0.2,0.4c-1.5,2.6-3,5.2-4.3,7.6l-0.1-0.1c1.8-1.3,3.5-2.7,5.2-3.9l0.3-0.2l-0.1,0.3c-1.1,2.2-2.1,4.4-3.1,6.4l0,0l0,0
				c-2.1,1.9-4.1,3.8-6,5.6l-0.1-0.1c2.9-0.9,5.7-1.8,8.5-2.7l0.1,0l0,0.1c-0.4,1.5-0.8,2.9-1.2,4.3l0,0l0,0c-0.4,0.4-0.7,0.7-1,1
				l-3.7,3.7l0,0l0,0l-4.5,1.4l0-0.1l8.6,2l0,0l0,0l-2.6,4.6l0,0l0,1.9l0,0l4.3-3.1l0.1-0.1l-0.1,0.1l-4.3,7.6l0,0l5.2-3.9l0.1,0
				l0,0.1l-3.1,6.4l0,0l0,0l-6,5.6l0,0l8.5-2.7l0,0l0,0l-0.9,3c-0.1,0.4-0.2,0.9-0.4,1.3l0,0c-1.6,1.6-3.1,3.1-4.8,4.8l0,0
				c-1.5,0.5-3,1-4.5,1.4l0,0l0,0c3,0.7,6,1.4,9.1,2.1l0,0c0.5,0,1,0,1.4,0l0,0c0.3,2.7,0.7,5.5,1,8.3l0,0c0.7,1.6,1.4,3.1,2.1,4.8
				l0,0l0,0c1.2,0.3,2.3,0.6,3.5,0.9l0,0c0.1,1.2,0.3,2.4,0.4,3.6l0,0c-1.6,2-3.1,3.9-4.7,5.9l0,0l0,0c0.5,4.2,0.9,8.4,1.4,12.7l0,0
				c-0.4,1.9-0.8,3.8-1.2,5.8l0,0c-1.3,0.8-2.7,1.7-4.1,2.5l0,0l0,0c-0.9,2.2-1.9,4.3-2.8,6.6l0,0l0,0c0.1,0.6,0.1,1.2,0.2,1.8
				l0,0.1l0.1-0.1c1.3-1.2,2.6-2.4,4-3.6l-0.1-0.1c-1.1,2.7-2.3,5.3-3.5,8.1l-0.1,0.2l0.2-0.2c1.6-1.5,3.1-3,4.7-4.5l-0.1-0.1
				c-0.8,2.2-1.6,4.4-2.4,6.7l0,0c-1.8,2.1-3.5,4.1-5.3,6.2l-0.2,0.2l0.2-0.1c2.7-1.2,5.4-2.4,8.1-3.6l-0.1-0.1
				c-0.2,1.5-0.5,2.9-0.7,4.5l0,0c-1.4,1.7-2.8,3.5-4.2,5.3l0,0c-1.4,0.6-2.9,1.3-4.4,1.9l-0.2,0.1l0.3,0c2,0.2,4,0.5,6.1,0.7
				l3.2,0.4l0,0l0,0l1.4-0.2l-0.1-0.1l2,8.1l0,0l0,0l0.4,0.6l0,0l1,11.2l0-0.1l-3.2,4.6l0,0l0,0l-2.3,4l0,0l-1.5,2.2l0,0l-2,2.3
				l-0.3,0.3l0.4-0.2l2.4-1.2l-0.1-0.1l0.5,5l0,0l0,0l1.5,4.2l0.1-0.1l-8.6-2.1l-0.4-0.1l0.3,0.3l6.4,5.2l0,0l3.5,6.2l0.1-0.1
				l-5.4-3.6l0,0l-0.4-0.3l0.3,0.4l4.8,7.3l0.1-0.1l-4.5-2.8l-0.2-0.1l0,0.2l0.1,1.9l0,0l0,0l2.6,4l1.3,2l0,0l0,0l4.5,1.8l-0.1-0.1
				l1.2,3c0.3,0.8,0.7,1.7,1,2.5l0,0c0.2,2.3,0.3,4.6,0.5,6.9c0.1,1.9,0.3,3.8,0.4,5.8l0,0l0,0c0.4,0.4,0.9,0.8,1.4,1.2l0-0.1
				c0.4,8.4,0.8,17,1.3,25.9l0,0c-0.1,1.9-0.1,4,0,6c0,2.8,0.2,5.7,0.4,8.7l0,0c-0.1,0.2-0.1,0.5-0.2,0.8l0,0l0,0
				c0.1,0.2,0.2,0.3,0.3,0.5l0,0c0.3,4,0.7,8.1,1.4,12.2c0.7,4.1,1.6,8.3,3.1,12.3l0,0c0,0.9,0,1.9,0,2.9l0,0l0,0
				c0.3,0.5,0.6,1,0.9,1.6l0,0l0,0c0.1-0.3,0.3-0.7,0.5-1l0,0c0.1,0.2,0.2,0.4,0.3,0.6c0.5,1,1,1.9,1.5,2.8l0,0c0,0.5,0,1.1,0,1.5
				l0,0.1l0-0.1c0.1-0.3,0.3-0.6,0.4-0.9l0,0c0.7,1.1,1.5,2.2,2.3,3l0,0c-0.7,2.4-1.5,4.7-2.1,6.8l0,0.1l0,0c1.5-1.6,3-3.2,4.3-4.6
				l0,0c1,0.9,2,1.8,2.8,2.6l0,0c-0.6,2.2-1.2,4.4-1.7,6.3l0,0c-1.2,1.3-2.3,2.4-3.2,3.5l0,0l0.1,0c1.5-0.4,2.8-0.8,4.1-1.2
				c1.7-0.5,3.4-1,4.9-1.5l0,0l0,0c0.4-0.3,0.9-0.5,1.3-0.7l0,0c1.8,2.3,3.5,4.7,5,6.7l0,0l0,0c1.5,1.1,2.9,2.2,4.2,3.1l0,0l0,0
				c1.7-0.5,3.3-0.9,4.7-1.3l0,0l0,0c1-0.6,2-1.2,2.9-1.6l-0.1,0c0,0.1,0,0.1,0,0.2l0,0l0,0c1.4,2.1,2.8,4.2,3.9,5.9l0,0l0,0
				c0.6,0.3,1.2,0.6,1.7,0.8l0.1,0l0-0.1c-0.3-1.8-0.6-3.6-0.8-5.1l-0.1,0.1c0,0,0.1,0,0.1,0l0,0c1.7,2.5,3.3,5,4.7,7.1l0.1,0.2
				l0-0.3c-0.4-2.1-0.8-4.1-1.1-5.8l-0.1,0.1c0.2,0.1,0.3,0.1,0.5,0.2l0,0c1.4,1.8,2.7,3.5,3.8,4.9l0,0c0.8,2.8,1.6,5.5,2.3,7.9
				l0.1,0.3l0-0.3c0.4-2.3,0.7-4.3,1-6.3c0.1-0.8,0.3-1.6,0.4-2.4l-0.1,0c1.1,1,2.2,2,3.3,3.1l0,0c0.7,2.1,1.4,4.2,2.1,6.4l0,0
				c-0.3,1.6-0.5,3.1-0.8,4.7l0,0.2l0.1-0.2c2-2.4,3.9-4.8,5.9-7.2l0,0l0,0c0.2-0.4,0.4-0.9,0.7-1.3l-0.1,0c2.6,0.9,5.2,1.9,7.8,2.8
				l0,0l0,0c1.7,0.1,3.4,0.2,5.2,0.3l0,0l0,0c1.1-1.2,2.1-2.4,3.2-3.7l0,0l0,0c0.1-0.2,0.2-0.3,0.2-0.5l0,0c1.8,0.4,3.7,0.8,5.5,1.3
				l0,0c5.7,0.7,11.4,1.4,17.1,2.2l0,0c0,0.1,0,0.3,0,0.4l0,0l0,0c0.6-0.1,1.1-0.1,1.7-0.2l0,0c0.5,0.1,1,0.1,1.4,0.2l0,0l0,0l0-0.2
				l0-0.2l0,0c5.7-0.6,11.4-1.2,17.2-1.9l0,0c6.6-1.4,13.2-2.8,19.9-4.1l11-2.3l0,0l1.5,1.8l0,0l4.3-0.2l0,0l6.4-2.3l0,0l0.6,1.1
				l0,0l5,6.1l0,0l-0.4-2.3l-0.3-1.7l0,0l1.7-5.4l0,0l2.7-2.5l0,0l0,0l1.3,7.4l0,0l1.8-6.6l0,0l3.5-4.7l0,0l0,0l-0.9,5.4l0,0
				l3.9-6.1l0,0l0,0l-0.6,4.4l0,0l1.4-0.7l0,0l3.2-4.9l0,0l-0.1-2.8l0,0l0,0c2.9-1.8,5.6-3.9,8.1-6.1c0.8-0.7,1.6-1.5,2.3-2.2l0,0
				l0,0c0.8-0.4,1.6-0.8,2.3-1.1l0,0c0.2-0.8,0.5-1.6,0.7-2.3l0,0l0,0c1.1-1.5,2-3.1,2.7-4.5l0,0l0,0c0.5-0.3,1.1-0.5,1.5-0.8l0,0
				c0.7-1.7,1.3-3.5,1.9-4.9l0,0c-0.5,0.3-1,0.5-1.4,0.7l0,0l0,0c2.3-6.8,3.4-13.6,4.2-20.2c0.7-6.6,1-13,1-19v0
				c0.1-1.6,0.2-2.9,0.3-4.2c0.6-8.2,1.1-16.2,1.5-22.8l0,0c0.1,0,0.1,0,0.2,0l0,0l0,0c0.9-1.7,1.9-3.3,2.5-4.5l0,0l0,0
				c0.7-3,1.4-5.9,1.9-8.1l0,0c0.5,0.1,1.1,0.1,1.4,0.1l0,0l0,0c3.5-0.4,6.7-0.8,9.3-1.1l0.1,0l-0.1,0c-1.7-0.7-3.2-1.4-4.4-1.9l0,0
				c-1.1-1.4-2-2.4-2.9-3.5c-0.5-0.6-0.9-1.2-1.4-1.7l0,0c-0.3-1.5-0.5-3-0.8-4.4l0,0c2.8,1.2,5.6,2.4,8.2,3.5l0.1,0l-0.1-0.1
				c-1.9-2.1-3.7-4.2-5.4-6.2l0,0c-0.8-2.3-1.7-4.6-2.4-6.7l0,0c1.6,1.5,3.3,3.1,4.7,4.4l0,0l0-0.1c-1.2-2.8-2.4-5.5-3.5-8.1l0,0
				c1.4,1.2,2.7,2.3,3.9,3.5c0,0,0.1,0,0.1,0.1l0,0l0,0c0.1-0.6,0.1-1.3,0.2-1.9l0,0c-1-2.3-2-4.5-2.9-6.5l0,0
				c-1.4-0.9-2.9-1.7-4.1-2.5l0,0c-0.5-2-0.9-4-1.3-5.7l0,0c0.5-4.5,0.9-8.9,1.3-12.7l0,0c-0.2-0.2-0.3-0.4-0.5-0.6l0,0l0,0
				c0-0.7,0.1-1.3,0.1-1.9l0,0c-0.3,0.4-0.5,0.8-0.7,1.1l0,0l0,0c-0.3-0.3-0.5-0.6-0.7-0.9l0,0l0,0c0.4-0.8,0.9-1.5,1.2-2.1l0,0
				c0.7-2.8,1.3-5.2,1.9-7.7c0-0.2,0.1-0.3,0.1-0.4l0,0l0,0c0.5,0.1,1.1,0.1,1.4,0.2l0,0c3.5-0.4,6.8-0.8,9.3-1l0,0
				c-1.7-0.7-3.3-1.5-4.4-2l0,0c-1.6-2-3.1-3.9-4.2-5.3l0,0c-0.3-1.7-0.6-3.4-0.7-4.5l0,0c3.2,1.4,5.8,2.6,8.1,3.6l0,0l0,0
				c-0.9-1-1.6-1.9-2.3-2.7c-1-1.2-2.1-2.4-3.1-3.6l0,0c-0.8-2.3-1.6-4.6-2.4-6.7l0,0c1.6,1.5,3.2,3,4.7,4.5l0.1,0.1l-0.1-0.1
				c-1.2-2.8-2.4-5.5-3.4-8.1l-0.1,0c1.4,1.2,2.7,2.4,4,3.6l0.1,0.1l0-0.1c0.1-0.6,0.1-1.3,0.2-1.8l0,0l0,0c-1-2.3-1.9-4.5-2.8-6.6
				l0,0l0,0c-1.4-0.9-2.8-1.7-4.1-2.6l0,0c-0.4-2-0.8-4-1.2-5.8l0,0c0.6-5.1,1.1-9.4,1.5-12.7l0-0.1l0,0c-0.4-0.5-0.8-1-1.2-1.5
				l-0.1,0.2c0.6-0.2,1.2-0.3,1.8-0.5l0.1,0l0-0.1C370.8,257.4,371.6,255.7,371.6,255.9z"/>
		</g>
	</g>
</g>
<g>
	<path class="st2" d="M142.5,366.2c-0.2,0.7-0.4,1.3-0.8,1.9"/>
	<g>
		<g>
			<path class="st5" d="M142.3,367L142.3,367L142.3,367z"/>
			<path class="st5" d="M142.3,367.1L142.3,367.1L142.3,367.1z"/>
			<path class="st5" d="M142.3,367L142.3,367L142.3,367z"/>
			<path class="st5" d="M142.3,367.1L142.3,367.1L142.3,367.1z"/>
			<path class="st5" d="M142.2,367.2L142.2,367.2L142.2,367.2z"/>
			<path class="st5" d="M142.2,367.2L142.2,367.2L142.2,367.2z"/>
			<path class="st5" d="M142.2,367.2L142.2,367.2L142.2,367.2z"/>
			<path class="st5" d="M142.3,367L142.3,367L142.3,367z"/>
			<path class="st5" d="M142.4,366.8L142.4,366.8L142.4,366.8z"/>
			<path class="st5" d="M142.4,366.7L142.4,366.7L142.4,366.7z"/>
			<path class="st5" d="M142.5,366.5L142.5,366.5L142.5,366.5z"/>
			<path class="st5" d="M142.3,366.8C142.3,366.8,142.3,366.8,142.3,366.8L142.3,366.8z"/>
			<path class="st5" d="M142.3,366.8L142.3,366.8L142.3,366.8z"/>
			<path class="st5" d="M142.3,366.8L142.3,366.8L142.3,366.8z"/>
			<path class="st5" d="M142.2,367L142.2,367L142.2,367z"/>
			<path class="st5" d="M142.2,367L142.2,367L142.2,367z"/>
			<path class="st5" d="M142.3,366.9L142.3,366.9L142.3,366.9z"/>
			<path class="st5" d="M142.4,366.5L142.4,366.5L142.4,366.5z"/>
			<path class="st5" d="M142.1,367.3C142.1,367.3,142.1,367.3,142.1,367.3L142.1,367.3z"/>
			<path class="st5" d="M142.1,367.4L142.1,367.4L142.1,367.4z"/>
			<path class="st5" d="M142.4,366.4L142.4,366.4L142.4,366.4z"/>
			<path class="st5" d="M142.1,367.3L142.1,367.3L142.1,367.3z"/>
			<path class="st5" d="M142.4,366.4L142.4,366.4L142.4,366.4z"/>
			<path class="st5" d="M142.2,367C142.2,367,142.2,367,142.2,367L142.2,367z"/>
			<path class="st5" d="M142.2,367L142.2,367L142.2,367z"/>
			<path class="st5" d="M142.2,367.1L142.2,367.1L142.2,367.1z"/>
			<path class="st5" d="M142.1,367.3L142.1,367.3L142.1,367.3z"/>
			<path class="st5" d="M142.3,366.9L142.3,366.9L142.3,366.9z"/>
			<path class="st5" d="M142.3,367L142.3,367L142.3,367z"/>
			<path class="st5" d="M142.2,367L142.2,367L142.2,367z"/>
			<path class="st5" d="M142.2,367L142.2,367L142.2,367z"/>
			<path class="st5" d="M142.2,367L142.2,367L142.2,367z"/>
			<path class="st5" d="M142.2,367L142.2,367L142.2,367z"/>
			<path class="st5" d="M142.2,367L142.2,367L142.2,367z"/>
			<path class="st5" d="M142.2,367.1L142.2,367.1L142.2,367.1z"/>
			<path class="st5" d="M142.2,367.1C142.2,367.1,142.2,367.1,142.2,367.1L142.2,367.1z"/>
			<path class="st5" d="M142.2,367.1L142.2,367.1L142.2,367.1z"/>
			<path class="st5" d="M142.1,367.4L142.1,367.4L142.1,367.4z"/>
			<path class="st5" d="M142.1,367.2L142.1,367.2L142.1,367.2z"/>
			<path class="st5" d="M142.1,367.2L142.1,367.2L142.1,367.2z"/>
			<path class="st5" d="M142.1,367.3L142.1,367.3L142.1,367.3z"/>
			<path class="st5" d="M142.1,367.5L142.1,367.5L142.1,367.5z"/>
			<path class="st5" d="M142.1,367.5L142.1,367.5L142.1,367.5z"/>
			<path class="st5" d="M142.3,366.6L142.3,366.6L142.3,366.6z"/>
			<path class="st5" d="M142.3,366.6L142.3,366.6L142.3,366.6L142.3,366.6C142.3,366.7,142.3,366.7,142.3,366.6L142.3,366.6
				L142.3,366.6L142.3,366.6C142.3,366.7,142.3,366.7,142.3,366.6L142.3,366.6L142.3,366.6C142.3,366.7,142.3,366.6,142.3,366.6
				L142.3,366.6L142.3,366.6L142.3,366.6L142.3,366.6L142.3,366.6L142.3,366.6L142.3,366.6C142.4,366.6,142.3,366.6,142.3,366.6
				L142.3,366.6L142.3,366.6L142.3,366.6L142.3,366.6L142.3,366.6C142.3,366.6,142.3,366.6,142.3,366.6L142.3,366.6
				C142.3,366.6,142.3,366.6,142.3,366.6C142.3,366.6,142.3,366.6,142.3,366.6L142.3,366.6z"/>
			<path class="st5" d="M142.4,366.6L142.4,366.6L142.4,366.6z"/>
			<path class="st5" d="M142.4,366.5C142.4,366.5,142.4,366.5,142.4,366.5C142.4,366.5,142.4,366.5,142.4,366.5L142.4,366.5
				L142.4,366.5C142.4,366.5,142.4,366.5,142.4,366.5C142.4,366.5,142.4,366.5,142.4,366.5L142.4,366.5
				C142.4,366.5,142.4,366.5,142.4,366.5C142.4,366.5,142.4,366.5,142.4,366.5C142.4,366.5,142.4,366.5,142.4,366.5
				C142.4,366.5,142.4,366.5,142.4,366.5z"/>
			<path class="st5" d="M142.4,366.5L142.4,366.5L142.4,366.5z"/>
			<path class="st5" d="M142.4,366.5L142.4,366.5L142.4,366.5z"/>
			<polygon class="st5" points="142.4,366.5 142.4,366.5 142.4,366.5 			"/>
			<path class="st5" d="M142.2,367.1C142.2,367.1,142.2,367.2,142.2,367.1L142.2,367.1L142.2,367.1L142.2,367.1
				C142.1,367.2,142.1,367.2,142.2,367.1C142.1,367.2,142.1,367.2,142.2,367.1C142.1,367.2,142.1,367.2,142.2,367.1
				C142.1,367.2,142.1,367.2,142.2,367.1C142.1,367.2,142.1,367.2,142.2,367.1L142.2,367.1C142.1,367.2,142.1,367.1,142.2,367.1
				L142.2,367.1z"/>
			<path class="st5" d="M142.1,367.4L142.1,367.4L142.1,367.4z"/>
			<path class="st5" d="M142.4,366.4L142.4,366.4L142.4,366.4z"/>
			<path class="st5" d="M142.4,366.4L142.4,366.4C142.4,366.4,142.4,366.4,142.4,366.4C142.4,366.4,142.4,366.4,142.4,366.4
				L142.4,366.4L142.4,366.4L142.4,366.4C142.4,366.4,142.4,366.4,142.4,366.4z"/>
			<path class="st5" d="M142.4,366.5L142.4,366.5L142.4,366.5z"/>
			<path class="st5" d="M142.3,367.1L142.3,367.1C142.3,367.1,142.3,367.1,142.3,367.1C142.3,367,142.3,367,142.3,367.1
				C142.3,367,142.3,367,142.3,367.1L142.3,367.1L142.3,367.1L142.3,367.1L142.3,367.1c0-0.1,0-0.1,0-0.1l0,0c0,0,0,0,0,0l0,0l0,0
				l0,0l0,0c0,0,0,0,0,0l0,0l0,0l0,0l0,0l0,0l0,0c0,0,0,0,0,0l0,0c0,0,0,0,0,0c0,0,0,0,0,0l0,0l0,0l0,0l0,0l0,0c0,0,0,0,0,0l0,0l0,0
				c0,0,0,0,0,0c0,0,0,0,0,0l0,0l0,0l0,0l0,0c0,0,0,0,0,0l0,0c0,0,0,0,0,0l0,0c0,0,0,0,0,0c0,0,0,0,0,0l0,0l0,0c0,0,0,0,0,0l0,0l0,0
				c0,0,0,0,0,0l0,0c0,0,0,0,0,0l0,0l0,0l0,0l0,0l0,0c0,0,0,0,0,0c0,0,0,0,0,0c0,0,0,0,0,0l0,0l0,0l0,0c0,0,0,0,0,0l0,0c0,0,0,0,0,0
				c0,0,0,0,0,0l0,0l0,0l0,0l0,0l0,0c0,0,0,0,0,0l0,0l0,0l0,0l0,0c0,0,0,0,0,0l0,0l0,0l0,0l0,0l0,0l0,0l0,0l0,0l0,0c0,0,0,0,0,0
				c0,0,0,0,0,0l0,0l0,0l0,0l0,0c0,0,0,0,0,0l0,0l0,0l0,0l0,0l0,0c0,0,0,0,0,0l0,0c0,0,0,0,0,0l0,0l0,0l0,0l0,0c0,0,0,0,0,0
				c0,0,0,0,0,0c0,0,0,0,0,0l0,0l0,0c0,0,0,0,0,0c0,0,0,0,0,0l0,0l0,0c0,0,0,0,0,0.1l0,0c0,0,0,0,0,0l0,0c0,0,0,0,0,0c0,0,0,0,0,0
				l0,0c0,0,0,0,0,0l0,0l0,0l0,0l0,0c0,0,0,0,0,0l0,0l0,0c0,0,0,0,0-0.1c0,0,0,0,0,0c0,0,0,0,0,0c0,0,0,0,0,0l0,0l0,0l0,0
				c0,0,0,0,0,0c0,0,0,0,0,0l0,0c0,0,0,0,0,0.1l0,0c0,0,0,0,0,0l0,0c0,0,0,0,0,0c0,0,0,0,0,0c0,0,0,0,0,0l0,0l0,0c0,0,0,0,0,0
				c0,0,0,0,0,0c0,0,0,0,0,0l0,0l0,0l0,0c0,0,0,0,0,0l0,0l0,0c0,0,0,0,0,0c0,0,0,0,0,0l0,0l0,0c0,0,0,0,0,0l0,0l0,0l0,0l0,0
				c0,0,0,0,0,0c0,0,0,0,0,0l0,0l0,0l0,0l0,0l0,0c0,0,0,0,0,0c0,0,0,0,0,0c0,0,0,0,0,0c0,0,0,0,0,0c0,0,0,0,0,0l0,0l0,0l0,0l0,0l0,0
				l0,0l0,0c0,0,0,0,0,0l0,0l0,0l0,0c0,0,0,0,0,0c0,0,0,0,0,0l0,0c0,0,0,0,0,0c0,0,0,0,0,0l0,0l0,0l0,0l0,0l0,0l0,0l0,0l0,0
				c0,0,0,0,0,0l0,0l0,0l0,0l0,0l0,0l0,0c0,0,0,0,0,0l0,0c0,0,0,0,0,0l0,0c0,0,0,0,0,0c0,0,0,0,0,0l0,0l0,0c0,0,0,0,0,0l0,0
				c0,0,0,0,0,0l0,0l0,0l0,0l0,0l0,0l0,0C142.3,366.9,142.3,366.9,142.3,367.1L142.3,367.1L142.3,367.1
				C142.3,367,142.3,367,142.3,367.1C142.3,367,142.2,367,142.3,367.1C142.2,367,142.2,367,142.3,367.1
				C142.2,367,142.2,367,142.3,367.1L142.3,367.1L142.3,367.1L142.3,367.1C142.2,367,142.2,367.1,142.3,367.1
				C142.2,367.1,142.2,367.1,142.3,367.1L142.3,367.1L142.3,367.1C142.2,367.1,142.2,367.1,142.3,367.1L142.3,367.1
				C142.2,367.1,142.2,367.1,142.3,367.1C142.2,367.1,142.2,367.1,142.3,367.1C142.2,367.1,142.2,367.1,142.3,367.1L142.3,367.1
				C142.2,367.1,142.2,367.1,142.3,367.1C142.2,367.1,142.2,367.1,142.3,367.1L142.3,367.1L142.3,367.1L142.3,367.1
				C142.2,367.2,142.2,367.2,142.3,367.1C142.2,367.2,142.2,367.2,142.3,367.1L142.3,367.1c-0.1,0.1-0.1,0.1-0.1,0.1l0,0l0,0l0,0
				l0,0c0,0,0,0,0,0l0,0c0,0,0,0,0,0l0,0l0,0c0,0,0,0,0,0l0,0l0,0l0,0l0,0c0,0,0,0,0,0c0,0,0,0,0,0l0,0l0,0l0,0l0,0c0,0,0,0,0,0l0,0
				l0,0c0,0,0,0,0,0l0,0c0,0,0,0,0,0c0,0,0,0,0,0l0,0c0,0,0,0,0,0c0,0,0,0,0,0l0,0l0,0l0,0l0,0c0,0,0,0,0,0l0,0c0,0,0,0,0,0
				c0,0,0,0,0,0c0,0,0,0,0,0c0,0,0,0,0,0l0,0l0,0c0,0,0,0,0,0c0,0,0,0,0,0c0,0,0,0,0,0c0,0,0,0,0,0l0,0l0,0c0,0,0,0,0,0c0,0,0,0,0,0
				l0,0l0,0l0,0l0,0l0,0l0,0l0,0l0,0c0,0.1,0,0,0,0l0,0l0,0l0,0l0,0l0,0c0,0,0,0,0,0l0,0c0,0,0,0,0,0l0,0c0,0,0,0,0,0l0,0l0,0
				c0,0,0,0,0,0c0,0,0,0,0,0l0,0l0,0c0,0,0,0,0-0.1c0,0,0,0,0,0l0,0l0,0l0,0l0,0l0,0l0,0c0,0,0,0,0,0c0,0,0,0,0,0c0,0,0,0,0,0l0,0
				c0,0,0,0,0,0c0,0,0,0,0,0l0,0c0,0,0,0,0,0l0,0c0,0,0,0,0,0l0,0c0,0,0,0,0,0c0,0,0,0,0,0c0,0,0,0,0,0s0,0,0,0l0,0c0,0,0,0,0,0l0,0
				c0,0,0,0,0,0l0,0l0,0l0,0l0,0l0,0c0,0,0,0,0,0c0,0,0,0,0,0l0,0c0,0,0,0,0,0c0,0,0,0,0,0l0,0l0,0c0,0,0,0,0,0l0,0l0,0l0,0
				c0,0,0,0,0,0l0,0c0,0,0,0,0,0l0,0c0,0,0,0,0,0l0,0c0,0,0,0,0,0c0,0,0,0,0,0l0,0l0,0l0,0c0,0,0,0,0,0c0,0,0,0,0,0c0,0,0,0,0,0l0,0
				c0,0,0,0,0,0l0,0c0,0,0,0,0,0c0,0,0,0,0,0l0,0l0,0c0,0,0,0,0,0c0,0,0,0,0,0l0,0c0,0,0,0,0,0l0,0c0,0,0,0,0,0l0,0c0,0,0,0,0,0l0,0
				l0,0c0,0,0,0,0,0l0,0c0,0,0,0,0,0l0,0c0,0,0,0,0,0l0,0l0,0c0,0,0,0,0,0l0,0l0,0c0,0,0,0,0,0c0,0,0,0,0,0l0,0
				C142.2,367.1,142.2,367.1,142.3,367.1L142.3,367.1L142.3,367.1L142.3,367.1L142.3,367.1L142.3,367.1
				C142.2,367.1,142.2,367.1,142.3,367.1L142.3,367.1L142.3,367.1L142.3,367.1C142.2,367.1,142.2,367.1,142.3,367.1L142.3,367.1
				L142.3,367.1L142.3,367.1L142.3,367.1L142.3,367.1L142.3,367.1C142.2,367,142.2,367,142.3,367.1L142.3,367.1L142.3,367.1
				C142.2,367,142.2,367,142.3,367.1L142.3,367.1L142.3,367.1L142.3,367.1C142.2,367,142.2,367,142.3,367.1
				C142.2,367,142.2,367,142.3,367.1L142.3,367.1c0-0.1,0-0.1,0-0.1c0,0,0,0,0,0l0,0c0,0,0,0,0,0c0,0,0,0,0,0l0,0c0,0,0,0,0,0l0,0
				l0,0c0,0,0,0,0,0l0,0c0,0,0,0,0,0l0,0c0,0,0,0,0,0c0,0,0,0,0,0c0,0,0,0,0,0c0,0,0,0,0,0l0,0l0,0c0,0,0,0,0,0l0,0l0,0c0,0,0,0,0,0
				l0,0c0,0,0,0,0,0l0,0l0,0l0,0l0,0l0,0c0,0,0,0,0,0c0,0,0,0,0,0s0,0,0,0l0,0c0,0,0,0,0,0c0,0,0,0,0,0c0,0,0,0,0,0c0,0,0,0,0,0l0,0
				l0,0c0,0,0,0,0,0s0,0,0,0l0,0c0,0,0,0,0,0l0,0l0,0c0,0,0,0,0,0l0,0l0,0c0,0,0,0,0,0l0,0c0,0,0,0,0,0.1l0,0l0,0c0,0,0,0,0,0l0,0
				c0,0,0,0,0,0c0,0,0,0,0,0c0,0,0,0,0,0c0,0,0,0,0,0c0,0,0,0.1,0,0.1l0,0l0,0l0,0C142.2,367,142.2,366.9,142.3,367.1
				C142.2,367,142.2,367,142.3,367.1L142.3,367.1L142.3,367.1L142.3,367.1L142.3,367.1C142.2,367,142.2,367,142.3,367.1
				C142.2,367,142.2,367,142.3,367.1C142.2,367.1,142.2,367,142.3,367.1C142.2,367.1,142.2,367.1,142.3,367.1
				C142.2,367.1,142.2,367.1,142.3,367.1c-0.1,0-0.1,0-0.1,0l0,0l0,0l0,0l0,0l0,0l0,0l0,0l0,0l0,0c0,0,0,0,0,0l0,0l0,0l0,0l0,0l0,0
				c0,0,0,0,0,0l0,0l0,0c0,0,0,0,0,0l0,0c0,0,0,0,0,0l0,0l0,0l0,0l0,0c0,0,0,0,0,0l0,0l0,0l0,0l0,0c0,0,0,0,0,0c0,0,0,0,0,0l0,0l0,0
				c0,0,0,0,0,0l0,0c0,0.1,0,0,0,0c0,0,0,0,0,0l0,0c0,0,0,0,0,0c0,0,0,0,0,0.1c0,0,0,0,0,0l0,0c0,0,0,0,0,0l0,0l0,0c0,0,0,0,0,0l0,0
				l0,0l0,0c0,0,0,0,0,0l0,0c0,0,0,0,0,0c0,0,0,0,0,0l0,0l0,0l0,0l0,0l0,0c0,0,0,0,0,0c0,0,0,0,0,0l0,0c0,0,0,0,0,0l0,0c0,0,0,0,0,0
				l0,0l0,0l0,0l0,0l0,0l0,0l0,0l0,0l0,0l0,0c0,0,0,0,0,0c0,0,0,0,0,0l0,0l0,0l0,0c0,0,0,0,0,0l0,0c0,0,0,0,0,0l0,0c0,0,0,0,0,0l0,0
				l0,0l0,0c0,0,0,0,0,0l0,0l0,0l0,0c0,0,0,0,0,0c0,0,0,0-0.1,0.1l0,0l0,0l0,0l0,0l0,0c0,0,0,0,0,0l0,0l0,0l0,0l0,0c0,0,0,0,0,0l0,0
				l0,0c0,0,0,0,0,0c0,0,0,0,0,0s0,0,0,0l0,0l0,0l0,0c0,0,0,0,0,0l0,0l0,0l0,0c0,0,0,0,0,0c0,0,0,0,0,0c0,0,0,0,0,0l0,0
				c0,0,0,0,0,0.1c0,0,0,0,0,0l0,0c0,0,0,0,0,0c0,0,0,0,0,0l0,0l0,0l0,0l0,0l0,0c0,0,0,0,0,0c0,0,0,0,0,0c0,0,0,0,0,0l0,0l0,0
				c0,0,0,0,0,0l0,0c0,0,0,0,0,0c0,0,0,0,0,0l0,0l0,0l0,0c0,0,0,0,0,0c0,0,0,0,0,0l0,0l0,0c0,0,0,0,0,0l0,0l0,0c0,0,0,0,0,0l0,0
				c0,0,0,0,0,0l0,0l0,0c0,0,0,0,0,0c0,0,0,0,0,0l0,0c0,0,0,0,0,0l0,0l0,0l0,0l0,0l0,0c0,0,0,0,0,0c0,0,0,0,0,0l0,0l0,0c0,0,0,0,0,0
				c0,0,0,0,0,0l0,0l0,0l0,0c0,0,0,0,0,0c0,0,0,0,0,0l0,0l0,0c0,0,0,0,0,0c0,0,0,0,0,0l0,0l0,0l0,0l0,0l0,0l0,0l0,0c0,0,0,0,0,0
				s0,0,0,0l0,0c0,0,0,0,0,0.1c0,0,0,0,0,0l0,0c0,0,0,0,0,0l0,0l0,0l0,0l0,0l0,0c0,0,0,0,0,0c0,0,0,0,0,0.1l0,0l0,0l0,0l0,0l0,0l0,0
				c0,0,0,0,0,0l0,0l0,0c0,0,0,0,0,0l0,0c0,0,0,0,0,0l0,0c0,0,0,0,0,0c0,0,0,0,0,0l0,0l0,0l0,0l0,0c0,0,0,0,0,0c0,0,0,0,0,0l0,0l0,0
				l0,0l0,0l0,0l0,0c0,0,0,0,0,0l0,0l0,0l0,0c0,0,0,0,0,0l0,0l0,0l0,0c0,0,0,0,0-0.1l0,0c0,0,0,0,0,0c0,0,0,0,0,0l0,0l0,0l0,0
				c0,0,0,0,0,0l0,0l0,0l0,0c0,0,0,0,0,0l0,0l0,0l0,0l0,0l0,0c0,0,0,0,0,0l0,0l0,0l0,0c0,0,0,0,0,0l0,0c0,0,0,0,0,0c0,0,0,0,0,0
				c0,0,0,0,0,0c0,0,0,0,0,0l0,0c0,0,0,0,0,0c0,0,0,0,0,0c0,0,0,0,0,0c0,0,0,0,0,0c0,0,0,0,0,0l0,0c0,0,0,0,0,0l0,0l0,0l0,0l0,0l0,0
				c0,0,0,0,0,0l0,0c0,0,0,0,0,0c0,0,0,0,0,0l0,0c0,0,0,0,0,0l0,0c0,0,0,0,0,0c0-0.1,0,0,0,0l0,0l0,0c0,0,0,0,0,0l0,0c0,0,0,0,0,0
				c0,0,0,0,0,0l0,0l0,0c0,0,0,0,0,0l0,0c0,0,0,0,0,0l0,0c0,0,0,0,0,0c0,0,0,0,0,0l0,0C142.2,367.2,142.2,367.2,142.3,367.1
				L142.3,367.1L142.3,367.1C142.2,367.2,142.3,367.2,142.3,367.1L142.3,367.1L142.3,367.1C142.3,367.1,142.3,367.1,142.3,367.1
				L142.3,367.1C142.3,367.1,142.3,367.1,142.3,367.1C142.3,367.1,142.3,367.1,142.3,367.1L142.3,367.1
				C142.3,367.1,142.3,367.1,142.3,367.1L142.3,367.1L142.3,367.1L142.3,367.1L142.3,367.1z M142.2,367.2L142.2,367.2L142.2,367.2
				L142.2,367.2L142.2,367.2z M142.2,367.4L142.2,367.4L142.2,367.4z M142,367.5L142,367.5L142,367.5L142,367.5
				C142,367.5,142,367.5,142,367.5z M142.1,367.4L142.1,367.4L142.1,367.4C142.1,367.4,142.1,367.4,142.1,367.4
				C142.1,367.4,142.1,367.4,142.1,367.4z M142.1,367.3C142.1,367.3,142.1,367.3,142.1,367.3L142.1,367.3z M142.4,366.5
				C142.4,366.5,142.4,366.5,142.4,366.5L142.4,366.5z M142.4,366.6C142.4,366.6,142.4,366.6,142.4,366.6
				C142.4,366.6,142.4,366.6,142.4,366.6L142.4,366.6C142.4,366.6,142.4,366.6,142.4,366.6L142.4,366.6L142.4,366.6
				c0-0.1,0-0.1,0-0.1l0,0l0,0c0,0,0,0,0,0c0,0,0,0,0,0c0,0,0,0,0,0l0,0l0,0l0,0l0,0l0,0L142.4,366.6L142.4,366.6L142.4,366.6
				L142.4,366.6L142.4,366.6C142.4,366.5,142.4,366.5,142.4,366.6C142.4,366.6,142.4,366.6,142.4,366.6L142.4,366.6z M142.3,367.1
				L142.3,367.1L142.3,367.1z M142.3,366.9L142.3,366.9L142.3,366.9z M142.3,366.9L142.3,366.9L142.3,366.9z M142.3,367L142.3,367
				C142.3,367,142.3,367,142.3,367z M142.3,367L142.3,367L142.3,367z M142.3,367L142.3,367L142.3,367z M142.2,367.2L142.2,367.2
				L142.2,367.2L142.2,367.2z M142.2,367.2L142.2,367.2L142.2,367.2z M142.2,367.2L142.2,367.2L142.2,367.2z M142.4,366.8
				L142.4,366.8L142.4,366.8z M142.4,366.9L142.4,366.9L142.4,366.9z M142.3,366.9L142.3,366.9L142.3,366.9z M142.3,367.1
				L142.3,367.1L142.3,367.1z M142.3,367.1L142.3,367.1L142.3,367.1z M142.4,366.8L142.4,366.8L142.4,366.8z M142.3,366.9
				C142.3,366.9,142.3,366.9,142.3,366.9L142.3,366.9z M142.3,367L142.3,367L142.3,367z M142.3,367L142.3,367L142.3,367z M142.3,367
				L142.3,367L142.3,367z M142.3,367.1L142.3,367.1L142.3,367.1z M142.3,367.1L142.3,367.1L142.3,367.1z M142.2,367.2L142.2,367.2
				L142.2,367.2z M142.2,367.2L142.2,367.2L142.2,367.2z M142.3,366.9L142.3,366.9L142.3,366.9z M142.3,366.9L142.3,366.9
				L142.3,366.9z M142.3,366.9C142.3,366.9,142.3,366.9,142.3,366.9L142.3,366.9z M142.3,366.9L142.3,366.9L142.3,366.9z
				 M142.3,366.9L142.3,366.9L142.3,366.9z M142.3,366.9L142.3,366.9L142.3,366.9z M142.3,367.1L142.3,367.1L142.3,367.1z
				 M142.3,367.1L142.3,367.1L142.3,367.1z M142.2,367.2L142.2,367.2L142.2,367.2z M142.2,367.2L142.2,367.2L142.2,367.2
				L142.2,367.2L142.2,367.2z M142.2,367.2L142.2,367.2L142.2,367.2L142.2,367.2z M142.2,367.2L142.2,367.2L142.2,367.2z
				 M142.2,367.3L142.2,367.3L142.2,367.3L142.2,367.3z M142.4,366.7L142.4,366.7L142.4,366.7z M142.4,366.7L142.4,366.7
				L142.4,366.7L142.4,366.7z M142.4,366.8L142.4,366.8L142.4,366.8z M142.3,366.9L142.3,366.9L142.3,366.9z M142.2,367.2
				L142.2,367.2L142.2,367.2L142.2,367.2z M142.2,367.2L142.2,367.2L142.2,367.2z M142.2,367.2L142.2,367.2L142.2,367.2z
				 M142.2,367.2C142.2,367.3,142.2,367.3,142.2,367.2L142.2,367.2z M142.2,367.3C142.2,367.3,142.2,367.3,142.2,367.3
				C142.2,367.3,142.2,367.3,142.2,367.3z M142.2,367.3L142.2,367.3L142.2,367.3z M142.2,367.3L142.2,367.3L142.2,367.3z
				 M142.4,366.7C142.4,366.7,142.4,366.7,142.4,366.7L142.4,366.7L142.4,366.7C142.4,366.7,142.4,366.7,142.4,366.7z M142.4,366.8
				L142.4,366.8C142.4,366.8,142.4,366.8,142.4,366.8z M142.4,366.8L142.4,366.8L142.4,366.8z M142.4,366.8
				C142.4,366.8,142.4,366.8,142.4,366.8L142.4,366.8L142.4,366.8C142.4,366.8,142.4,366.8,142.4,366.8L142.4,366.8z M142.4,366.8
				C142.4,366.8,142.4,366.8,142.4,366.8L142.4,366.8z M142.4,366.8L142.4,366.8L142.4,366.8z M142.4,366.8L142.4,366.8L142.4,366.8
				L142.4,366.8z M142.3,366.9L142.3,366.9L142.3,366.9z M142.2,367.3L142.2,367.3L142.2,367.3z M142.2,367.3L142.2,367.3
				L142.2,367.3z M142.2,367.3L142.2,367.3L142.2,367.3z M142.2,367.3L142.2,367.3L142.2,367.3z M142.4,366.6L142.4,366.6
				C142.4,366.7,142.4,366.7,142.4,366.6C142.4,366.7,142.4,366.7,142.4,366.6L142.4,366.6C142.4,366.6,142.4,366.6,142.4,366.6
				C142.4,366.6,142.4,366.6,142.4,366.6C142.4,366.6,142.4,366.6,142.4,366.6C142.4,366.6,142.4,366.6,142.4,366.6L142.4,366.6z
				 M142.4,366.7C142.4,366.7,142.4,366.7,142.4,366.7C142.4,366.7,142.4,366.7,142.4,366.7C142.4,366.7,142.4,366.7,142.4,366.7z
				 M142.4,366.7L142.4,366.7L142.4,366.7z M142.4,366.7L142.4,366.7L142.4,366.7z M142.3,366.9L142.3,366.9L142.3,366.9z
				 M142.1,367.5L142.1,367.5L142.1,367.5L142.1,367.5z M142.1,367.5L142.1,367.5L142.1,367.5z M142.4,366.7L142.4,366.7
				C142.4,366.7,142.4,366.7,142.4,366.7L142.4,366.7z M142.4,366.7L142.4,366.7L142.4,366.7z M142.4,366.7L142.4,366.7L142.4,366.7
				z M142.4,366.8L142.4,366.8L142.4,366.8z M142.2,367.2C142.2,367.2,142.2,367.2,142.2,367.2L142.2,367.2z M142.1,367.4
				L142.1,367.4L142.1,367.4z M142.1,367.6C142.1,367.6,142.1,367.5,142.1,367.6C142.1,367.5,142.1,367.6,142.1,367.6z M142.1,367.6
				L142.1,367.6L142.1,367.6z M142.3,366.9L142.3,366.9L142.3,366.9z M142.3,367L142.3,367L142.3,367z M142.2,367.2L142.2,367.2
				L142.2,367.2z M142.2,367.2L142.2,367.2L142.2,367.2z M142.2,367.2L142.2,367.2L142.2,367.2z M142.2,367.2L142.2,367.2
				L142.2,367.2L142.2,367.2z M142.2,367.3L142.2,367.3L142.2,367.3L142.2,367.3z M142.2,367.3L142.2,367.3
				C142.2,367.3,142.2,367.3,142.2,367.3z M142.1,367.5L142.1,367.5L142.1,367.5z M142.1,367.6L142.1,367.6
				C142.1,367.6,142.1,367.6,142.1,367.6z M142.1,367.6L142.1,367.6C142.1,367.6,142.1,367.6,142.1,367.6z M142,367.6
				C142,367.6,142,367.6,142,367.6L142,367.6C142.1,367.6,142.1,367.6,142,367.6C142.1,367.6,142,367.6,142,367.6z M142.3,366.9
				L142.3,366.9L142.3,366.9z M142.3,366.9L142.3,366.9L142.3,366.9z M142.3,367L142.3,367L142.3,367z M142.2,367.2
				C142.2,367.3,142.2,367.3,142.2,367.2L142.2,367.2z M142.2,367.3L142.2,367.3L142.2,367.3z M142.2,367.3L142.2,367.3L142.2,367.3
				z M142.1,367.6L142.1,367.6C142.1,367.6,142.1,367.6,142.1,367.6z M142,367.7L142,367.7C142,367.7,142,367.7,142,367.7
				C142,367.7,142,367.7,142,367.7L142,367.7C142,367.7,142,367.7,142,367.7C142,367.7,142,367.7,142,367.7z M142.3,366.9
				L142.3,366.9L142.3,366.9z M142.3,366.9L142.3,366.9C142.3,366.9,142.3,366.9,142.3,366.9z M142.3,367L142.3,367L142.3,367z
				 M142.3,367.1C142.3,367.1,142.3,367.1,142.3,367.1L142.3,367.1z M142.2,367.3L142.2,367.3L142.2,367.3
				C142.2,367.3,142.2,367.3,142.2,367.3z M142,367.7L142,367.7L142,367.7z M142.3,366.9L142.3,366.9L142.3,366.9z M142.3,366.9
				L142.3,366.9L142.3,366.9z M142.3,366.9L142.3,366.9L142.3,366.9z M142.3,366.9L142.3,366.9L142.3,366.9z M142.3,367L142.3,367
				L142.3,367z M142.3,367L142.3,367L142.3,367z M142.3,367L142.3,367L142.3,367z M142.3,367L142.3,367L142.3,367z M142.3,367
				C142.3,367,142.3,367,142.3,367L142.3,367z M142.3,367.1L142.3,367.1L142.3,367.1z M142.3,367.1L142.3,367.1L142.3,367.1z
				 M142.3,367.1L142.3,367.1L142.3,367.1z M142.3,367.1L142.3,367.1L142.3,367.1L142.3,367.1L142.3,367.1z M142.2,367.3
				L142.2,367.3L142.2,367.3z M142.2,367.3L142.2,367.3L142.2,367.3z M142.2,367.3L142.2,367.3L142.2,367.3z M142.3,366.9
				L142.3,366.9L142.3,366.9z M142.3,367L142.3,367L142.3,367z M142.2,367.1C142.2,367.1,142.2,367.1,142.2,367.1L142.2,367.1z
				 M142.3,367.1L142.3,367.1L142.3,367.1z M142.2,367.2L142.2,367.2L142.2,367.2L142.2,367.2L142.2,367.2z M142,367.6L142,367.6
				L142,367.6z M142,367.6L142,367.6L142,367.6z M142,367.6L142,367.6L142,367.6z M142,367.7C142,367.7,142,367.7,142,367.7
				L142,367.7L142,367.7z M141.9,367.8L141.9,367.8C141.9,367.8,141.9,367.8,141.9,367.8L141.9,367.8
				C142,367.8,142,367.8,141.9,367.8L141.9,367.8C142,367.7,142,367.8,141.9,367.8z M142.4,366.7L142.4,366.7L142.4,366.7z
				 M142.4,366.8L142.4,366.8C142.4,366.8,142.4,366.8,142.4,366.8z M142.3,366.8L142.3,366.8L142.3,366.8z M142.3,366.8
				C142.3,366.8,142.3,366.8,142.3,366.8C142.3,366.8,142.3,366.8,142.3,366.8L142.3,366.8C142.3,366.8,142.3,366.8,142.3,366.8
				C142.3,366.8,142.3,366.8,142.3,366.8L142.3,366.8L142.3,366.8L142.3,366.8C142.3,366.8,142.3,366.8,142.3,366.8L142.3,366.8
				C142.3,366.8,142.3,366.8,142.3,366.8L142.3,366.8C142.4,366.8,142.3,366.8,142.3,366.8C142.4,366.8,142.3,366.8,142.3,366.8
				L142.3,366.8C142.4,366.8,142.4,366.7,142.3,366.8L142.3,366.8L142.3,366.8C142.4,366.7,142.4,366.7,142.3,366.8
				c0-0.1,0-0.1,0-0.1c0,0,0,0,0,0l0,0c0,0,0,0,0,0c0,0,0,0,0,0c0,0,0,0,0,0l0,0c0,0,0,0,0,0c0,0,0,0,0,0c0,0,0,0,0,0l0,0l0,0
				c0,0,0,0,0,0l0,0c0,0,0,0,0,0l0,0l0,0l0,0l0,0l0,0c0-0.1,0,0,0,0l0,0l0,0c0,0,0,0,0-0.1l0,0c0,0,0,0,0,0l0,0l0,0l0,0c0,0,0,0,0,0
				l0,0l0,0c0,0,0,0,0,0c0,0.1,0,0,0,0l0,0c0,0,0,0,0,0c0,0,0,0,0,0l0,0c0,0,0,0,0,0c0,0,0,0,0,0l0,0c0,0,0,0,0,0l0,0l0,0l0,0l0,0
				c0,0,0,0,0,0l0,0l0,0C142.4,366.7,142.4,366.7,142.3,366.8C142.4,366.7,142.4,366.7,142.3,366.8
				C142.4,366.8,142.4,366.8,142.3,366.8C142.4,366.8,142.4,366.8,142.3,366.8C142.3,366.8,142.4,366.8,142.3,366.8L142.3,366.8
				C142.3,366.8,142.3,366.8,142.3,366.8z M142.4,366.7L142.4,366.7L142.4,366.7L142.4,366.7L142.4,366.7z M142.2,367.1L142.2,367.1
				L142.2,367.1L142.2,367.1z M142.2,367.1L142.2,367.1L142.2,367.1z M142.2,367.1L142.2,367.1C142.2,367.2,142.2,367.1,142.2,367.1
				L142.2,367.1z M142.2,367.2L142.2,367.2L142.2,367.2z M142.2,367.2L142.2,367.2L142.2,367.2z M142.2,367.2L142.2,367.2
				L142.2,367.2z M142.2,367.2L142.2,367.2C142.2,367.2,142.2,367.2,142.2,367.2z M142.2,367.2L142.2,367.2L142.2,367.2L142.2,367.2
				L142.2,367.2z M142.2,367.2L142.2,367.2L142.2,367.2z M142.2,367.2L142.2,367.2L142.2,367.2z M142.2,367.3L142.2,367.3
				L142.2,367.3z M142.2,367.3C142.2,367.3,142.2,367.3,142.2,367.3L142.2,367.3C142.2,367.3,142.2,367.3,142.2,367.3
				C142.2,367.3,142.2,367.3,142.2,367.3z M142.2,367.3L142.2,367.3L142.2,367.3C142.2,367.3,142.2,367.3,142.2,367.3
				C142.2,367.3,142.2,367.3,142.2,367.3z M142.2,367.3L142.2,367.3L142.2,367.3z M142.2,367.3L142.2,367.3L142.2,367.3z
				 M142.2,367.3C142.2,367.3,142.2,367.3,142.2,367.3L142.2,367.3z M142.1,367.4C142.1,367.4,142.1,367.4,142.1,367.4L142.1,367.4z
				 M142.1,367.5L142.1,367.5L142.1,367.5z M142.1,367.5L142.1,367.5L142.1,367.5z M142.4,366.7L142.4,366.7L142.4,366.7z
				 M142.4,366.7C142.4,366.7,142.4,366.7,142.4,366.7C142.4,366.7,142.4,366.7,142.4,366.7z M142.4,366.7L142.4,366.7L142.4,366.7z
				 M142.4,366.8L142.4,366.8L142.4,366.8z M142.4,366.8L142.4,366.8L142.4,366.8z M142.3,366.9
				C142.3,366.9,142.3,366.9,142.3,366.9L142.3,366.9z M142.3,366.9L142.3,366.9L142.3,366.9L142.3,366.9L142.3,366.9z M142.3,366.9
				L142.3,366.9L142.3,366.9z M142.3,366.9L142.3,366.9L142.3,366.9z M142.3,366.9C142.3,366.9,142.3,366.9,142.3,366.9L142.3,366.9
				C142.3,366.9,142.3,366.9,142.3,366.9C142.3,366.9,142.3,366.9,142.3,366.9z M142.3,366.9L142.3,366.9
				C142.3,366.9,142.3,366.9,142.3,366.9C142.3,366.9,142.3,366.9,142.3,366.9L142.3,366.9z M142.3,367
				C142.3,367,142.3,367,142.3,367L142.3,367z M142.3,367L142.3,367C142.3,367,142.3,367,142.3,367C142.3,367,142.3,367,142.3,367
				C142.3,367,142.3,367,142.3,367z M142.3,367L142.3,367L142.3,367z M142.3,367L142.3,367L142.3,367L142.3,367z M142.2,367.3
				L142.2,367.3L142.2,367.3z M142.2,367.3L142.2,367.3L142.2,367.3z M142.2,367.3L142.2,367.3L142.2,367.3z M142.2,367.3
				L142.2,367.3L142.2,367.3L142.2,367.3z M142.1,367.4L142.1,367.4L142.1,367.4L142.1,367.4L142.1,367.4z M142.1,367.4
				C142.1,367.4,142.1,367.4,142.1,367.4C142.1,367.4,142.1,367.4,142.1,367.4L142.1,367.4L142.1,367.4z M142.1,367.4L142.1,367.4
				L142.1,367.4z M142.1,367.4L142.1,367.4L142.1,367.4z M142.1,367.5L142.1,367.5L142.1,367.5z M142,367.7L142,367.7L142,367.7z
				 M142.4,366.7L142.4,366.7L142.4,366.7L142.4,366.7L142.4,366.7z M142.4,366.7L142.4,366.7L142.4,366.7z M142.4,366.7
				L142.4,366.7L142.4,366.7z M142.3,366.9L142.3,366.9C142.3,366.9,142.3,366.9,142.3,366.9L142.3,366.9z M142.3,366.9L142.3,366.9
				L142.3,366.9z M142.3,366.9C142.3,366.9,142.3,366.9,142.3,366.9L142.3,366.9z M142.3,367L142.3,367L142.3,367z M142.3,367
				L142.3,367L142.3,367L142.3,367z M142.3,367L142.3,367L142.3,367L142.3,367z M142.3,367L142.3,367L142.3,367z M142.3,367
				L142.3,367L142.3,367z M142.2,367.2C142.2,367.2,142.2,367.2,142.2,367.2C142.2,367.1,142.2,367.2,142.2,367.2
				C142.2,367.2,142.2,367.2,142.2,367.2C142.2,367.1,142.2,367.1,142.2,367.2C142.2,367.1,142.2,367.1,142.2,367.2
				c0-0.1,0-0.1,0-0.1c0,0,0,0,0,0l0,0l0,0c0,0,0,0,0,0c0,0,0,0,0,0l0,0c0,0,0,0,0,0l0,0l0,0c0,0,0,0,0,0
				C142.2,367.1,142.3,367.1,142.2,367.2C142.2,367.1,142.3,367.1,142.2,367.2L142.2,367.2L142.2,367.2
				C142.2,367.2,142.2,367.2,142.2,367.2z M142.2,367.3L142.2,367.3L142.2,367.3z M142.1,367.4C142.1,367.4,142.1,367.4,142.1,367.4
				L142.1,367.4z M142.1,367.4L142.1,367.4L142.1,367.4z M142.1,367.5L142.1,367.5L142.1,367.5z M142.1,367.5
				C142.1,367.5,142.1,367.5,142.1,367.5C142.1,367.5,142.1,367.5,142.1,367.5z M142.1,367.5L142.1,367.5L142.1,367.5L142.1,367.5
				L142.1,367.5L142.1,367.5z M142.4,366.6L142.4,366.6L142.4,366.6z M142.3,366.9L142.3,366.9L142.3,366.9z M142.3,366.9
				L142.3,366.9C142.3,366.9,142.3,366.9,142.3,366.9L142.3,366.9z M142.3,366.9L142.3,366.9L142.3,366.9z M142.1,367.4L142.1,367.4
				L142.1,367.4z M142.1,367.4C142.1,367.4,142.1,367.4,142.1,367.4C142.1,367.4,142.1,367.4,142.1,367.4L142.1,367.4z M142.1,367.4
				C142.1,367.4,142.1,367.4,142.1,367.4C142.1,367.4,142.1,367.4,142.1,367.4z M142.1,367.4L142.1,367.4
				C142.1,367.4,142.1,367.4,142.1,367.4z M142.1,367.5L142.1,367.5L142.1,367.5z M142.1,367.5L142.1,367.5L142.1,367.5L142.1,367.5
				L142.1,367.5L142.1,367.5z M142.1,367.5L142.1,367.5L142.1,367.5L142.1,367.5L142.1,367.5z M142.1,367.6
				C142.1,367.6,142.1,367.6,142.1,367.6C142.1,367.5,142.1,367.6,142.1,367.6z M142,367.7L142,367.7L142,367.7z M142,367.7
				L142,367.7L142,367.7z M141.9,367.8L141.9,367.8L141.9,367.8z M141.9,367.8L141.9,367.8L141.9,367.8z M141.9,367.8
				C141.9,367.8,141.9,367.9,141.9,367.8L141.9,367.8L141.9,367.8l-0.1,0.1c0,0,0,0,0,0c0,0,0,0,0,0c0,0,0,0,0,0l0,0l0,0l0,0
				c0,0,0,0,0,0c0,0,0,0,0,0s0,0,0,0c0,0,0,0,0,0l0,0l0,0l0,0l0,0l0,0L141.9,367.8L141.9,367.8L141.9,367.8L141.9,367.8
				C141.9,367.9,141.9,367.8,141.9,367.8z M142.5,366.4L142.5,366.4L142.5,366.4z M142.5,366.4L142.5,366.4L142.5,366.4z
				 M142.3,366.9L142.3,366.9L142.3,366.9z M142.3,367L142.3,367L142.3,367z M142.2,367.3L142.2,367.3L142.2,367.3L142.2,367.3z
				 M142.1,367.5L142.1,367.5L142.1,367.5z M142.1,367.5L142.1,367.5L142.1,367.5z M142.1,367.5L142.1,367.5L142.1,367.5z
				 M142.1,367.5L142.1,367.5L142.1,367.5z M142.1,367.5L142.1,367.5L142.1,367.5z M142.1,367.5L142.1,367.5L142.1,367.5z
				 M142.1,367.5L142.1,367.5L142.1,367.5z M142.1,367.5C142.1,367.5,142.1,367.5,142.1,367.5L142.1,367.5z M142.1,367.5
				L142.1,367.5L142.1,367.5z M142,367.6L142,367.6L142,367.6z M142,367.6L142,367.6C142,367.6,142,367.6,142,367.6L142,367.6
				L142,367.6z M142.5,366.4L142.5,366.4L142.5,366.4z M142.5,366.4L142.5,366.4L142.5,366.4z M142.3,366.8L142.3,366.8L142.3,366.8
				z M142.3,366.9C142.3,366.9,142.3,366.9,142.3,366.9L142.3,366.9z M142.3,366.9L142.3,366.9L142.3,366.9z M142.3,366.9
				C142.3,366.9,142.3,366.9,142.3,366.9L142.3,366.9z M142.3,367L142.3,367L142.3,367z M142.2,367.2
				C142.2,367.2,142.2,367.2,142.2,367.2C142.2,367.2,142.2,367.2,142.2,367.2z M142.2,367.2L142.2,367.2L142.2,367.2z M142.2,367.2
				L142.2,367.2L142.2,367.2L142.2,367.2L142.2,367.2z M142.2,367.3L142.2,367.3L142.2,367.3z M142.1,367.3L142.1,367.3L142.1,367.3
				z M142.1,367.3L142.1,367.3L142.1,367.3z M142.1,367.3L142.1,367.3L142.1,367.3z M142.1,367.4L142.1,367.4L142.1,367.4z
				 M142.1,367.4L142.1,367.4L142.1,367.4z M142,367.6L142,367.6L142,367.6z M142,367.6L142,367.6L142,367.6z M142,367.8L142,367.8
				L142,367.8z M142.3,366.8L142.3,366.8L142.3,366.8z M142.3,366.9C142.3,366.9,142.3,366.9,142.3,366.9
				C142.3,366.9,142.3,366.9,142.3,366.9z M142.3,366.9C142.3,366.9,142.3,366.9,142.3,366.9C142.3,366.9,142.3,366.9,142.3,366.9z
				 M142.3,367C142.3,367,142.3,367,142.3,367C142.3,367,142.3,367,142.3,367z M142.3,367C142.3,367,142.3,367,142.3,367L142.3,367z
				 M142.3,367L142.3,367L142.3,367z M142.3,367L142.3,367L142.3,367z M142.2,367.2L142.2,367.2L142.2,367.2z M142.3,366.9
				C142.3,366.9,142.3,366.9,142.3,366.9L142.3,366.9z M142.3,366.9L142.3,366.9L142.3,366.9z M142.2,367.2L142.2,367.2L142.2,367.2
				z M142.1,367.4L142.1,367.4L142.1,367.4z M142.1,367.4L142.1,367.4L142.1,367.4z M142.1,367.4L142.1,367.4L142.1,367.4z
				 M142.2,367.3L142.2,367.3L142.2,367.3z M142.1,367.4L142.1,367.4L142.1,367.4z M142,367.7C142,367.7,142,367.7,142,367.7
				L142,367.7z M142.2,367.3L142.2,367.3L142.2,367.3z M142.1,367.5L142.1,367.5L142.1,367.5z M142.1,367.5L142.1,367.5L142.1,367.5
				z M142.1,367.5L142.1,367.5L142.1,367.5z M142,367.6L142,367.6L142,367.6z M142,367.6L142,367.6L142,367.6z M142,367.6L142,367.6
				L142,367.6z M142.1,367.5L142.1,367.5L142.1,367.5z M142.5,366.3C142.5,366.3,142.5,366.3,142.5,366.3
				C142.5,366.3,142.5,366.3,142.5,366.3C142.5,366.3,142.5,366.3,142.5,366.3L142.5,366.3C142.5,366.3,142.5,366.3,142.5,366.3z
				 M142.5,366.3L142.5,366.3L142.5,366.3z M142.5,366.4L142.5,366.4L142.5,366.4z M142.3,366.8L142.3,366.8L142.3,366.8z
				 M142.3,366.8L142.3,366.8L142.3,366.8z M142.3,366.8L142.3,366.8L142.3,366.8z M142.3,366.8
				C142.3,366.8,142.3,366.8,142.3,366.8L142.3,366.8L142.3,366.8L142.3,366.8L142.3,366.8L142.3,366.8z M142.2,367.2L142.2,367.2
				L142.2,367.2z M142.2,367.2L142.2,367.2L142.2,367.2z M142.2,367.3L142.2,367.3L142.2,367.3z M142,367.6L142,367.6L142,367.6z
				 M141.9,367.8L141.9,367.8L141.9,367.8z M142.3,366.7L142.3,366.7L142.3,366.7L142.3,366.7L142.3,366.7L142.3,366.7
				C142.4,366.7,142.3,366.7,142.3,366.7z M142.3,366.8L142.3,366.8L142.3,366.8L142.3,366.8L142.3,366.8z M142.3,366.8
				C142.3,366.8,142.3,366.8,142.3,366.8L142.3,366.8z M142.3,366.9L142.3,366.9L142.3,366.9z M142.3,366.9L142.3,366.9
				C142.3,366.9,142.3,366.9,142.3,366.9L142.3,366.9z M142.3,366.9L142.3,366.9L142.3,366.9z M142.3,366.9L142.3,366.9L142.3,366.9
				z M142.3,366.9L142.3,366.9L142.3,366.9z M142.3,367L142.3,367L142.3,367z M142.2,367.2L142.2,367.2L142.2,367.2z M142.2,367.2
				C142.2,367.2,142.2,367.2,142.2,367.2L142.2,367.2z M142.1,367.3L142.1,367.3L142.1,367.3z M142.1,367.4L142.1,367.4L142.1,367.4
				z M142.1,367.4L142.1,367.4L142.1,367.4z M142,367.6L142,367.6L142,367.6z M142,367.6L142,367.6L142,367.6L142,367.6L142,367.6z
				 M142.5,366.3L142.5,366.3L142.5,366.3z M142.4,366.7L142.4,366.7L142.4,366.7z M142.3,366.7L142.3,366.7L142.3,366.7z
				 M142.3,366.8L142.3,366.8L142.3,366.8z M142.3,366.8L142.3,366.8L142.3,366.8z M142.3,366.8L142.3,366.8L142.3,366.8z
				 M142.3,366.8L142.3,366.8L142.3,366.8z M142.3,366.8L142.3,366.8L142.3,366.8z M142.3,366.9L142.3,366.9L142.3,366.9
				L142.3,366.9L142.3,366.9z M142.3,366.9L142.3,366.9L142.3,366.9z M142.3,366.9L142.3,366.9L142.3,366.9z M142.3,366.9
				L142.3,366.9L142.3,366.9z M142.2,367.3L142.2,367.3L142.2,367.3z M142.2,367.3L142.2,367.3L142.2,367.3z M142.2,367.3
				L142.2,367.3L142.2,367.3L142.2,367.3L142.2,367.3z M142.1,367.3L142.1,367.3L142.1,367.3z M142,367.5L142,367.5L142,367.5z
				 M142,367.7L142,367.7L142,367.7z M141.9,367.9L141.9,367.9L141.9,367.9z M141.9,367.9L141.9,367.9L141.9,367.9z M142.4,366.7
				L142.4,366.7L142.4,366.7z M142.4,366.7L142.4,366.7L142.4,366.7L142.4,366.7z M142.1,367.3L142.1,367.3L142.1,367.3z
				 M142.1,367.3L142.1,367.3L142.1,367.3z M142.1,367.4L142.1,367.4C142.1,367.3,142.1,367.4,142.1,367.4z M142.1,367.4
				L142.1,367.4L142.1,367.4L142.1,367.4z M142.1,367.4L142.1,367.4C142.1,367.4,142.1,367.4,142.1,367.4z M142,367.6L142,367.6
				L142,367.6z M142,367.6L142,367.6L142,367.6z M141.9,367.9L141.9,367.9L141.9,367.9z M142.4,366.7L142.4,366.7L142.4,366.7z
				 M142.2,367.1L142.2,367.1L142.2,367.1z M142.1,367.4L142.1,367.4L142.1,367.4L142.1,367.4z M142.1,367.4
				C142.1,367.4,142.1,367.4,142.1,367.4C142.1,367.4,142.1,367.4,142.1,367.4z M142.1,367.5L142.1,367.5L142.1,367.5z M142.1,367.5
				L142.1,367.5L142.1,367.5z M141.9,367.9C141.9,367.9,141.8,367.9,141.9,367.9L141.9,367.9z M142.4,366.6L142.4,366.6L142.4,366.6
				z M142.2,367.2L142.2,367.2L142.2,367.2z M142.1,367.4L142.1,367.4L142.1,367.4z M142.1,367.4
				C142.1,367.5,142.1,367.5,142.1,367.4C142.1,367.5,142.1,367.5,142.1,367.4C142.1,367.4,142.1,367.4,142.1,367.4z M141.9,367.8
				L141.9,367.8L141.9,367.8z M141.8,368L141.8,368L141.8,368z M141.8,368.1L141.8,368.1L141.8,368.1z M142.5,366.3L142.5,366.3
				L142.5,366.3z M142.5,366.3L142.5,366.3L142.5,366.3z M142.4,366.6C142.4,366.5,142.4,366.5,142.4,366.6
				C142.4,366.5,142.4,366.5,142.4,366.6L142.4,366.6L142.4,366.6C142.4,366.5,142.4,366.5,142.4,366.6L142.4,366.6
				C142.4,366.5,142.4,366.6,142.4,366.6C142.4,366.6,142.4,366.6,142.4,366.6C142.4,366.6,142.4,366.6,142.4,366.6L142.4,366.6
				L142.4,366.6c0,0.1,0,0.1,0,0.1l0,0l0,0c0,0,0,0,0,0c0,0,0,0,0,0l0,0c0,0,0,0,0,0C142.4,366.7,142.4,366.6,142.4,366.6
				L142.4,366.6L142.4,366.6L142.4,366.6C142.4,366.6,142.4,366.6,142.4,366.6L142.4,366.6L142.4,366.6L142.4,366.6L142.4,366.6
				L142.4,366.6C142.4,366.6,142.4,366.6,142.4,366.6z M142.3,366.7C142.3,366.7,142.3,366.7,142.3,366.7L142.3,366.7z M142.3,366.8
				C142.3,366.8,142.3,366.8,142.3,366.8L142.3,366.8z M142.3,367L142.3,367L142.3,367z M142.3,367L142.3,367L142.3,367L142.3,367
				L142.3,367z M142.2,367L142.2,367L142.2,367z M142.2,367C142.2,367.1,142.2,367,142.2,367L142.2,367z M142.2,367.1L142.2,367.1
				L142.2,367.1z M142.2,367.1L142.2,367.1L142.2,367.1z M142.2,367.1L142.2,367.1L142.2,367.1z M142.2,367.1
				C142.2,367.1,142.2,367.1,142.2,367.1L142.2,367.1z M142.2,367.1L142.2,367.1L142.2,367.1L142.2,367.1z M142.2,367.2L142.2,367.2
				L142.2,367.2z M142.2,367.2L142.2,367.2L142.2,367.2z M142.1,367.3C142.1,367.3,142.1,367.3,142.1,367.3L142.1,367.3z
				 M142.1,367.5L142.1,367.5L142.1,367.5z M141.9,367.8C141.9,367.8,141.9,367.8,141.9,367.8L141.9,367.8z M141.8,368
				C141.8,368,141.8,368,141.8,368L141.8,368C141.8,368,141.8,368,141.8,368z M142.4,366.5L142.4,366.5L142.4,366.5z M142.4,366.6
				L142.4,366.6L142.4,366.6z M142.4,366.7L142.4,366.7L142.4,366.7z M142.4,366.7C142.4,366.7,142.4,366.7,142.4,366.7L142.4,366.7
				z M142.3,366.7L142.3,366.7L142.3,366.7z M142.3,366.7L142.3,366.7L142.3,366.7z M142.3,367L142.3,367L142.3,367z M142.2,367.1
				L142.2,367.1L142.2,367.1z M142.2,367.1L142.2,367.1L142.2,367.1z M142.2,367.1L142.2,367.1L142.2,367.1z M142.2,367.1
				C142.2,367.1,142.2,367.1,142.2,367.1L142.2,367.1z M142.2,367.1L142.2,367.1L142.2,367.1L142.2,367.1L142.2,367.1z M142.2,367.2
				L142.2,367.2L142.2,367.2z M142.2,367.2L142.2,367.2L142.2,367.2z M142.2,367.2L142.2,367.2L142.2,367.2L142.2,367.2z
				 M142.2,367.2L142.2,367.2L142.2,367.2z M142.2,367.2L142.2,367.2L142.2,367.2L142.2,367.2z M142.1,367.5
				C142.1,367.5,142.1,367.5,142.1,367.5C142,367.5,142.1,367.5,142.1,367.5z M142,367.6L142,367.6L142,367.6z M142,367.6L142,367.6
				L142,367.6z M142.4,366.5L142.4,366.5L142.4,366.5z M142.4,366.5C142.4,366.5,142.4,366.5,142.4,366.5
				C142.4,366.5,142.4,366.5,142.4,366.5C142.4,366.5,142.4,366.5,142.4,366.5z M142.4,366.6L142.4,366.6L142.4,366.6z M142.2,367.2
				L142.2,367.2L142.2,367.2z M142.2,367.2L142.2,367.2L142.2,367.2z M142,367.7L142,367.7L142,367.7z M142,367.7L142,367.7
				L142,367.7z M142,367.7L142,367.7L142,367.7z M142.4,366.4L142.4,366.4L142.4,366.4z M142.4,366.5L142.4,366.5
				C142.4,366.5,142.4,366.5,142.4,366.5C142.4,366.5,142.4,366.5,142.4,366.5L142.4,366.5z M142.4,366.5L142.4,366.5L142.4,366.5z
				 M142.4,366.5L142.4,366.5L142.4,366.5z M142.4,366.7C142.4,366.7,142.3,366.7,142.4,366.7L142.4,366.7z M142.3,366.8
				L142.3,366.8L142.3,366.8z M142.2,367.2L142.2,367.2L142.2,367.2z M142,367.5L142,367.5L142,367.5z M142,367.5
				C142,367.5,142,367.5,142,367.5L142,367.5z M142,367.7L142,367.7L142,367.7z M142,367.7L142,367.7L142,367.7z M141.9,367.8
				C141.9,367.8,141.9,367.8,141.9,367.8L141.9,367.8z M142.2,367.2L142.2,367.2L142.2,367.2z M142.2,367.2L142.2,367.2L142.2,367.2
				z M142,367.5L142,367.5L142,367.5z M142,367.6L142,367.6L142,367.6z M142.1,367.3L142.1,367.3L142.1,367.3z M142,367.6L142,367.6
				L142,367.6z M142,367.7L142,367.7L142,367.7z M142.4,366.6L142.4,366.6L142.4,366.6z M142,367.6L142,367.6L142,367.6z
				 M142.4,366.5C142.4,366.5,142.4,366.4,142.4,366.5L142.4,366.5z M142.4,366.5C142.4,366.5,142.4,366.5,142.4,366.5L142.4,366.5z
				 M142.4,366.5L142.4,366.5L142.4,366.5z M142,367.7L142,367.7L142,367.7z M142.4,366.5L142.4,366.5L142.4,366.5z M142.4,366.5
				L142.4,366.5L142.4,366.5z M142,367.7L142,367.7L142,367.7z M142.4,366.5L142.4,366.5L142.4,366.5z M142.3,366.7L142.3,366.7
				C142.3,366.7,142.3,366.7,142.3,366.7z M142.3,366.6L142.3,366.6L142.3,366.6z M141.9,367.7L141.9,367.7L141.9,367.7z
				 M141.9,367.7C141.9,367.7,141.9,367.7,141.9,367.7L141.9,367.7z M142.4,366.6L142.4,366.6L142.4,366.6z M142.3,366.8
				L142.3,366.8L142.3,366.8z M142.2,367.2L142.2,367.2L142.2,367.2z M142.2,367.2L142.2,367.2L142.2,367.2z M142.1,367.2
				L142.1,367.2L142.1,367.2L142.1,367.2z M142.1,367.4C142.1,367.4,142.1,367.4,142.1,367.4L142.1,367.4z M142.4,366.6L142.4,366.6
				L142.4,366.6L142.4,366.6L142.4,366.6z M142.4,366.6C142.4,366.6,142.3,366.6,142.4,366.6L142.4,366.6z M142.3,366.6
				C142.4,366.6,142.3,366.6,142.3,366.6L142.3,366.6z M142.3,366.6C142.3,366.6,142.4,366.6,142.3,366.6L142.3,366.6z M142.2,367
				L142.2,367L142.2,367z M142.1,367.3L142.1,367.3L142.1,367.3z M142,367.5L142,367.5L142,367.5z M141.9,367.7L141.9,367.7
				L141.9,367.7z M141.9,367.8L141.9,367.8C141.9,367.7,141.9,367.8,141.9,367.8z M142.4,366.4L142.4,366.4L142.4,366.4z
				 M142.4,366.6L142.4,366.6L142.4,366.6L142.4,366.6L142.4,366.6z M142.3,366.6L142.3,366.6L142.3,366.6z M142.3,366.9
				C142.3,366.9,142.3,366.9,142.3,366.9L142.3,366.9C142.3,366.9,142.3,366.9,142.3,366.9z M142.2,367
				C142.2,367,142.2,367,142.2,367L142.2,367z M142.2,367C142.2,367,142.2,367,142.2,367C142.2,367,142.2,367,142.2,367z
				 M142.2,367.1L142.2,367.1L142.2,367.1L142.2,367.1L142.2,367.1z M142.2,367.1L142.2,367.1L142.2,367.1z M142.2,367.1
				L142.2,367.1L142.2,367.1z M142.2,367.2C142.2,367.2,142.2,367.2,142.2,367.2C142.1,367.2,142.1,367.2,142.2,367.2z M142.1,367.4
				L142.1,367.4L142.1,367.4L142.1,367.4z M142.1,367.4L142.1,367.4L142.1,367.4z M141.9,367.8L141.9,367.8L141.9,367.8z
				 M141.9,367.8C141.9,367.8,141.9,367.8,141.9,367.8C141.9,367.8,141.9,367.8,141.9,367.8C141.9,367.8,141.9,367.8,141.9,367.8
				C141.9,367.8,141.9,367.8,141.9,367.8z M142.4,366.5L142.4,366.5L142.4,366.5z M142.4,366.6L142.4,366.6L142.4,366.6z
				 M142.4,366.6L142.4,366.6L142.4,366.6z M142.3,366.8L142.3,366.8L142.3,366.8z M142.3,366.8
				C142.3,366.8,142.3,366.8,142.3,366.8C142.3,366.8,142.3,366.8,142.3,366.8z M142.3,366.8L142.3,366.8L142.3,366.8L142.3,366.8z
				 M142.3,366.9C142.3,366.9,142.3,366.9,142.3,366.9L142.3,366.9z M142.3,366.9L142.3,366.9L142.3,366.9z M142.3,366.9
				L142.3,366.9L142.3,366.9z M142.2,366.9L142.2,366.9C142.2,367,142.2,366.9,142.2,366.9L142.2,366.9z M142.2,367L142.2,367
				L142.2,367z M142.2,367C142.2,367,142.2,367,142.2,367L142.2,367z M142.2,367.1L142.2,367.1L142.2,367.1z M142.2,367.1
				L142.2,367.1L142.2,367.1z M142.2,367.1C142.2,367.1,142.2,367.1,142.2,367.1L142.2,367.1z M142.2,367.1L142.2,367.1L142.2,367.1
				z M142.2,367.2L142.2,367.2L142.2,367.2z M142.2,367.2L142.2,367.2L142.2,367.2z M142.2,367.2L142.2,367.2L142.2,367.2z
				 M142.2,367.2L142.2,367.2L142.2,367.2z M142.1,367.2C142.1,367.2,142.1,367.2,142.1,367.2C142.1,367.2,142.1,367.2,142.1,367.2z
				 M142.1,367.2L142.1,367.2L142.1,367.2z M142.1,367.4C142.1,367.4,142.1,367.4,142.1,367.4C142.1,367.4,142.1,367.4,142.1,367.4z
				 M142,367.5L142,367.5L142,367.5C142,367.5,142,367.4,142,367.5z M142,367.5L142,367.5L142,367.5z M142,367.5L142,367.5
				L142,367.5z M142.3,366.9L142.3,366.9L142.3,366.9z M142.3,366.9C142.3,366.9,142.3,366.9,142.3,366.9L142.3,366.9z M142.3,366.9
				L142.3,366.9L142.3,366.9z M142.2,367L142.2,367L142.2,367z M142.1,367.3L142.1,367.3C142.1,367.3,142.1,367.3,142.1,367.3
				L142.1,367.3z M142.1,367.3L142.1,367.3L142.1,367.3z M142.1,367.3L142.1,367.3L142.1,367.3z M142.1,367.3L142.1,367.3
				C142.1,367.3,142.1,367.3,142.1,367.3z M142,367.5L142,367.5L142,367.5z M142.4,366.5L142.4,366.5L142.4,366.5z M142.3,366.9
				L142.3,366.9L142.3,366.9z M142.1,367.3C142.1,367.3,142.1,367.3,142.1,367.3L142.1,367.3z M142.1,367.4L142.1,367.4
				C142.1,367.4,142.1,367.4,142.1,367.4z M142.1,367.4L142.1,367.4L142.1,367.4z M142,367.5L142,367.5L142,367.5z M142,367.5
				L142,367.5L142,367.5z M142,367.5L142,367.5L142,367.5z M142,367.5L142,367.5L142,367.5z M142.1,367.4L142.1,367.4L142.1,367.4z
				 M142.1,367.4C142.1,367.4,142.1,367.4,142.1,367.4L142.1,367.4z M142.1,367.4L142.1,367.4C142.1,367.4,142.1,367.4,142.1,367.4
				C142.1,367.4,142.1,367.4,142.1,367.4z M142,367.6L142,367.6C142,367.6,142,367.6,142,367.6C142,367.6,142,367.5,142,367.6
				L142,367.6L142,367.6C142,367.5,142,367.6,142,367.6C142,367.6,142,367.6,142,367.6C142,367.6,142,367.6,142,367.6L142,367.6
				L142,367.6z M142,367.6L142,367.6L142,367.6z M141.9,367.8L141.9,367.8L141.9,367.8L141.9,367.8z M141.9,367.8L141.9,367.8
				C141.9,367.8,141.9,367.8,141.9,367.8C141.9,367.8,141.9,367.8,141.9,367.8z M142.1,367.4L142.1,367.4L142.1,367.4z M142,367.5
				C142,367.5,142,367.5,142,367.5L142,367.5z M142,367.5C142,367.5,142,367.5,142,367.5L142,367.5z M142,367.6L142,367.6L142,367.6
				z M142,367.6L142,367.6L142,367.6z M142,367.6L142,367.6L142,367.6z M142,367.6L142,367.6L142,367.6z M141.8,368
				C141.8,368,141.8,368,141.8,368C141.8,367.9,141.8,367.9,141.8,368c0.1-0.1,0.1-0.1,0.1-0.1l0,0l0,0c0,0,0,0,0,0c0,0,0,0,0,0l0,0
				C141.8,367.9,141.8,367.9,141.8,368C141.8,367.9,141.8,367.9,141.8,368C141.8,367.9,141.8,367.9,141.8,368L141.8,368
				C141.8,368,141.8,367.9,141.8,368L141.8,368L141.8,368L141.8,368L141.8,368C141.8,368,141.8,368,141.8,368z M142.1,367.4
				L142.1,367.4L142.1,367.4z M142,367.5C142,367.5,142,367.5,142,367.5L142,367.5z M142,367.5L142,367.5L142,367.5z M141.8,367.9
				C141.8,367.9,141.8,367.9,141.8,367.9L141.8,367.9L141.8,367.9L141.8,367.9L141.8,367.9L141.8,367.9L141.8,367.9L141.8,367.9
				l0.1-0.1l0,0l0,0c0,0,0,0,0,0l0,0l0,0l0,0l0,0l0,0c0,0,0,0,0,0l0,0l0,0c0,0,0,0,0,0l0,0l0,0l0,0c0,0,0,0,0,0c0,0,0,0,0,0
				c0,0,0,0,0,0l0,0l0,0c0,0,0,0,0,0c0,0,0,0,0,0c0,0,0,0,0,0l0,0c0,0,0,0,0,0c0,0,0,0,0,0c0,0,0,0,0,0l0,0l0,0c0,0,0,0,0,0
				C141.9,367.8,141.9,367.8,141.8,367.9L141.8,367.9C141.8,367.9,141.9,367.8,141.8,367.9L141.8,367.9
				C141.8,367.9,141.8,367.9,141.8,367.9z M142,367.6L142,367.6L142,367.6L142,367.6z M142.4,366.4L142.4,366.4L142.4,366.4
				L142.4,366.4L142.4,366.4z M142.4,366.4C142.4,366.4,142.4,366.4,142.4,366.4L142.4,366.4z M142,367.4L142,367.4L142,367.4z
				 M142,367.5L142,367.5L142,367.5z M141.9,367.8L141.9,367.8L141.9,367.8z M142.4,366.4L142.4,366.4L142.4,366.4z M142,367.5
				L142,367.5L142,367.5z M142,367.5L142,367.5L142,367.5z M141.9,367.8L141.9,367.8L141.9,367.8L141.9,367.8z M142.4,366.4
				C142.4,366.4,142.4,366.4,142.4,366.4C142.4,366.4,142.4,366.4,142.4,366.4z M142,367.5L142,367.5L142,367.5z M141.9,367.7
				L141.9,367.7L141.9,367.7z M141.9,367.8L141.9,367.8L141.9,367.8z M142,367.6L142,367.6L142,367.6z M142,367.6L142,367.6
				L142,367.6z M142.4,366.3C142.4,366.3,142.4,366.3,142.4,366.3C142.4,366.3,142.4,366.3,142.4,366.3z M142,367.6L142,367.6
				L142,367.6z M142,367.6L142,367.6L142,367.6z M141.9,367.8L141.9,367.8L141.9,367.8z M142,367.6L142,367.6L142,367.6z
				 M141.8,367.9L141.8,367.9L141.8,367.9L141.8,367.9L141.8,367.9z M141.9,367.7L141.9,367.7L141.9,367.7z M141.9,367.7
				L141.9,367.7L141.9,367.7z M141.8,367.9L141.8,367.9C141.8,367.9,141.8,367.9,141.8,367.9z M142,367.5L142,367.5L142,367.5z
				 M141.8,368C141.8,368,141.8,368,141.8,368C141.8,368,141.8,368,141.8,368z M142,367.5L142,367.5L142,367.5z M142,367.5
				L142,367.5L142,367.5z M141.9,367.8L141.9,367.8L141.9,367.8z M141.7,368L141.7,368L141.7,368z M141.9,367.6L141.9,367.6
				L141.9,367.6z M141.9,367.7L141.9,367.7L141.9,367.7z M141.9,367.7L141.9,367.7L141.9,367.7L141.9,367.7L141.9,367.7z
				 M141.9,367.8C141.9,367.8,141.9,367.8,141.9,367.8C141.9,367.8,141.9,367.8,141.9,367.8z M141.8,367.9
				C141.8,367.9,141.8,367.9,141.8,367.9C141.8,367.9,141.8,367.9,141.8,367.9C141.8,367.9,141.8,367.9,141.8,367.9z M141.8,367.9
				L141.8,367.9L141.8,367.9z M141.8,368C141.8,368,141.7,368,141.8,368C141.7,368,141.8,368,141.8,368z M141.9,367.7L141.9,367.7
				L141.9,367.7z M141.9,367.7L141.9,367.7L141.9,367.7L141.9,367.7z M141.9,367.8L141.9,367.8C141.9,367.8,141.9,367.8,141.9,367.8
				L141.9,367.8z M141.8,367.9L141.8,367.9L141.8,367.9z M141.9,367.8L141.9,367.8L141.9,367.8z M141.8,367.9L141.8,367.9
				L141.8,367.9z M141.8,367.9L141.8,367.9L141.8,367.9z M141.8,367.9C141.8,367.9,141.8,367.9,141.8,367.9L141.8,367.9L141.8,367.9
				C141.8,367.9,141.8,367.9,141.8,367.9z M141.8,368L141.8,368L141.8,368z M141.9,367.8L141.9,367.8L141.9,367.8z M141.8,367.9
				L141.8,367.9L141.8,367.9z M141.8,367.9L141.8,367.9C141.8,367.9,141.8,367.9,141.8,367.9z M141.8,367.9L141.8,367.9L141.8,367.9
				L141.8,367.9z M141.8,368L141.8,368L141.8,368C141.8,368,141.8,367.9,141.8,368C141.8,368,141.8,368,141.8,368z M141.8,368
				L141.8,368L141.8,368z M141.8,367.8L141.8,367.8L141.8,367.8z M141.8,367.9L141.8,367.9L141.8,367.9z M141.8,367.9L141.8,367.9
				L141.8,367.9z M141.8,367.9L141.8,367.9L141.8,367.9z M141.7,368.1L141.7,368.1L141.7,368.1z M141.7,368L141.7,368L141.7,368
				L141.7,368L141.7,368z"/>
			<path class="st5" d="M142.5,366.5C142.5,366.5,142.4,366.5,142.5,366.5L142.5,366.5z"/>
			<path class="st5" d="M142.3,366.9C142.3,366.8,142.3,366.9,142.3,366.9L142.3,366.9C142.3,366.8,142.3,366.8,142.3,366.9
				C142.3,366.8,142.3,366.8,142.3,366.9L142.3,366.9L142.3,366.9C142.3,366.8,142.3,366.8,142.3,366.9L142.3,366.9L142.3,366.9
				L142.3,366.9L142.3,366.9L142.3,366.9l0-0.1l0,0l0,0c0,0,0,0,0,0l0,0c0,0,0,0,0-0.1l0,0c0,0,0,0,0,0l0,0c0,0,0,0,0-0.1l0,0
				c0,0,0,0,0,0l0,0c0,0,0,0,0,0l0,0c0,0,0,0,0,0l0,0l0,0l0,0l0,0l0,0l0,0l0,0l0,0l0,0c0,0,0,0,0,0c0,0,0,0,0,0c0,0,0,0,0,0l0,0
				c0,0,0,0,0,0l0,0l0,0c0,0,0,0,0,0l0,0c0,0,0,0,0,0c0,0,0,0,0,0c0,0,0,0,0,0c0,0,0,0,0,0l0,0c0,0,0,0,0,0.1l0,0c0,0,0,0,0,0l0,0
				l0,0c0,0,0,0,0,0c0,0,0,0,0,0l0,0l0,0c0,0,0,0,0,0l0,0c0,0,0,0,0,0l0,0l0,0c0,0,0,0,0,0s0,0,0,0c0,0,0,0,0,0l0,0l0,0l0,0
				c0,0,0,0,0,0c0,0,0,0,0,0l0,0c0,0,0,0,0,0l0,0c0,0,0,0,0,0l0,0c0,0,0,0,0,0c0,0,0,0,0,0c0,0,0,0,0,0c0,0,0,0,0,0
				C142.3,366.8,142.3,366.8,142.3,366.9L142.3,366.9L142.3,366.9C142.3,366.8,142.3,366.8,142.3,366.9L142.3,366.9
				C142.3,366.8,142.3,366.8,142.3,366.9L142.3,366.9C142.3,366.8,142.3,366.8,142.3,366.9L142.3,366.9
				C142.2,366.9,142.2,366.9,142.3,366.9C142.2,366.9,142.2,366.9,142.3,366.9C142.2,366.9,142.2,366.9,142.3,366.9L142.3,366.9
				C142.2,366.9,142.2,366.9,142.3,366.9C142.2,367,142.2,367,142.3,366.9L142.3,366.9l0,0.1l0,0l0,0l0,0c0,0,0,0,0,0c0,0,0,0,0,0
				l0,0c0,0,0,0,0,0c0,0.1,0,0,0,0.1c0,0,0,0,0,0s0,0,0,0c0,0,0,0,0,0l0,0c0,0,0,0,0,0l0,0c0,0,0,0,0,0l0,0c0,0,0,0,0,0l0,0
				c0,0,0,0,0,0l0,0l0,0c0,0,0,0,0,0l0,0C142.2,367,142.2,367,142.3,366.9C142.2,367,142.2,367,142.3,366.9L142.3,366.9
				C142.2,366.9,142.2,366.9,142.3,366.9C142.2,366.9,142.2,366.9,142.3,366.9L142.3,366.9L142.3,366.9L142.3,366.9L142.3,366.9
				C142.3,366.9,142.2,366.9,142.3,366.9C142.3,366.9,142.2,366.9,142.3,366.9z M142.3,366.9C142.3,366.9,142.3,366.9,142.3,366.9
				L142.3,366.9z M142.2,366.9L142.2,366.9L142.2,366.9z M142.2,367L142.2,367L142.2,367z M142.3,366.8L142.3,366.8L142.3,366.8
				L142.3,366.8L142.3,366.8z M142.3,366.8L142.3,366.8L142.3,366.8z M142.3,366.8L142.3,366.8L142.3,366.8z M142.3,366.8
				L142.3,366.8L142.3,366.8z M142.3,366.7L142.3,366.7L142.3,366.7z M142.4,366.4L142.4,366.4C142.4,366.4,142.4,366.4,142.4,366.4
				L142.4,366.4z M142.4,366.4C142.4,366.4,142.4,366.4,142.4,366.4C142.4,366.4,142.4,366.4,142.4,366.4z M142.4,366.3L142.4,366.3
				L142.4,366.3L142.4,366.3L142.4,366.3z M142.4,366.4L142.4,366.4L142.4,366.4z M142.4,366.4L142.4,366.4L142.4,366.4z
				 M142.4,366.4L142.4,366.4L142.4,366.4z M142.2,367L142.2,367L142.2,367z M142.2,367L142.2,367L142.2,367z"/>
			<path class="st5" d="M142.1,367.4L142.1,367.4C142.1,367.4,142.1,367.3,142.1,367.4C142.1,367.3,142.1,367.3,142.1,367.4
				L142.1,367.4L142.1,367.4L142.1,367.4L142.1,367.4C142.1,367.3,142.1,367.3,142.1,367.4L142.1,367.4
				C142.1,367.3,142.1,367.3,142.1,367.4C142.1,367.3,142.1,367.3,142.1,367.4c0-0.1,0-0.1,0-0.1c0,0,0,0,0,0l0,0c0,0,0,0,0,0l0,0
				l0,0C142.1,367.2,142.1,367.2,142.1,367.4C142.1,367.3,142.1,367.3,142.1,367.4C142.1,367.3,142.1,367.3,142.1,367.4
				C142.1,367.3,142.1,367.3,142.1,367.4C142.1,367.3,142.1,367.3,142.1,367.4L142.1,367.4C142.1,367.4,142.1,367.4,142.1,367.4
				L142.1,367.4L142.1,367.4L142.1,367.4z M142.1,367.3L142.1,367.3L142.1,367.3z M142.1,367.2L142.1,367.2L142.1,367.2z"/>
			<path class="st5" d="M142.4,366.4L142.4,366.4C142.4,366.4,142.4,366.4,142.4,366.4C142.4,366.4,142.4,366.4,142.4,366.4
				L142.4,366.4z"/>
		</g>
	</g>
</g>
<path class="st0" d="M305.5,109c-11.1-4-45.8-1.4-48.9-1.1c-3-0.4-37.6-4.6-48.9-1.1c-54.8,17-63.9,56.6-63.9,56.6l-1,43.8l1.9,58.5
	l4.9-19.2l-0.7-43.2l6.6-29.7c0,0-3.2-8.7-2.5-12.7c2.4-14.6,25.7-37.8,39.4-43.2c10.2-4,33.5-3.1,43.6,1c5.1,2,17,11.7,19.8,13.9
	l0,0.5c0,0,0.1-0.1,0.3-0.2c0.2,0.1,0.3,0.2,0.3,0.2l0-0.5c2.8-2.1,15.2-11.2,20.4-13c10.3-3.6,33.6-3.5,43.6,1
	c13.4,6,35.6,28.4,37.3,43.1c0.5,4-3,14.4-3,14.4l1.9,30l2.3,54.6l5.7,5.5l1.3-55.9l1-43.8C366.8,168.4,359.5,128.4,305.5,109z"/>
<path class="st1" d="M133,274.3c0,0-5.7-5.2-8.1-5.8c-2.4-0.6-7.6,0-9.7,1.1c-2.9,1.5-7.6,6.5-8.8,9.5c-1.9,4.6-1.4,14.9-0.8,19.8
	c0.7,4.9,4.3,14.2,6,18.8c1.5,4,4.3,12.4,7,15.7c1.4,1.7,7.3,4.9,7.3,4.9c1.2,0.8,2.7,1.2,4.2,1l0,0c2.7-0.3,4.9-2.3,5.5-5l1.2-5.6
	l2.2-11.2l1.7-9.2L133,274.3z"/>
<path class="st0" d="M127.9,275.2l-3.6-0.8c-0.5-0.1-1,0-1.5,0.3l-4.4,3.1c-0.2,0.2-0.4,0.4-0.6,0.6l0,0c-4.1,7.5-6,16-5.5,24.6
	c0,0-0.1,5.1,0.4,6.7c1.1,3.7,7.5,13.4,7.5,13.4c0.1,0.2,0.2,0.3,0.4,0.5h0c1.6,1.4,3.9-0.4,2.9-2.3l-1.1-1.9
	c-0.1-0.1-0.1-0.3-0.2-0.4l-3.4-12.2c0-0.2-0.1-0.4-0.1-0.5l0.3-15.9c0-0.1,0-0.2,0-0.3l1.5-7.7c0.1-0.6,0.5-1,1-1.3l3.9-2
	c0.4-0.2,0.9-0.3,1.3-0.1l0.3,0.1c1.3,0.3,2.5-0.7,2.3-2l0-0.2C129.2,276.1,128.7,275.4,127.9,275.2z"/>
<path class="st0" d="M130.4,286.3c0,0-4-1.4-5.1-0.8c-2.3,1.3-2.8,7.5-2.9,10.2c-0.1,2.2,1.7,8.6,1.7,8.6s0.4,9.5,2.9,9.5
	c3.1,0,3.5-11.8,3.5-11.8s-3-2.9-3.4-4.2c-0.4-1.5,0.7-4.7,1.2-6.3C128.7,290.2,130.4,286.3,130.4,286.3z"/>
<path class="st0" d="M127.4,350.7L127.4,350.7c-2.6,0.6-5.1-1.1-5.7-3.7l0,0c-0.6-2.6,1.1-5.1,3.7-5.7h0c2.6-0.6,5.1,1.1,5.7,3.7v0
	C131.6,347.6,130,350.2,127.4,350.7z"/>
<path class="st1" d="M380.2,275c0,0,5.7-5.1,8.1-5.7c2.4-0.6,7.6,0,9.7,1.2c2.9,1.5,7.5,6.6,8.7,9.6c1.9,4.6,1.3,14.9,0.6,19.8
	c-0.7,4.9-4.4,14.1-6.2,18.7c-1.6,4-4.4,12.4-7.2,15.7c-1.4,1.7-7.3,4.8-7.3,4.8c-1.2,0.8-2.7,1.2-4.2,1h0c-2.7-0.3-4.9-2.4-5.4-5
	l-1.1-5.6l-2.1-11.2l-1.6-9.3L380.2,275z"/>
<path class="st0" d="M385.4,276l3.6-0.7c0.5-0.1,1,0,1.5,0.3l0,0c3.1,2.2,5.7,5.1,7.5,8.5l0.4,0.7c2.1,4,3.1,8.5,2.8,13l-0.5,7.2
	c-0.2,3.7-1.3,7.3-3.2,10.5l-4.8,8.4c-0.1,0.2-0.2,0.3-0.4,0.5l0,0c-1.6,1.4-3.9-0.5-2.8-2.3l1.1-1.9c0.1-0.1,0.1-0.3,0.2-0.4l2.6-9
	c0.7-2.3,1-4.7,1-7.1l-0.1-10.6c0-1.4-0.2-2.8-0.4-4.2l-1.1-5.8c-0.1-0.6-0.5-1-1-1.3l-3.8-2c-0.4-0.2-0.9-0.3-1.3-0.2l-0.3,0.1
	c-1.3,0.3-2.5-0.7-2.3-2l0-0.2C384,276.8,384.6,276.1,385.4,276z"/>
<path class="st0" d="M382.8,287c0,0,4-1.4,5.2-0.7c2.3,1.4,2.7,7.6,2.8,10.2c0.1,2.2-1.8,8.6-1.8,8.6s-0.5,9.5-3,9.5
	c-2.3,0-2.6-9-2.6-9c-0.5-1.7-0.1-3.5,1.1-4.8c0.7-0.8,1.3-1.6,1.5-2.2c0.4-1.5-0.7-4.7-1.1-6.3C384.4,291,382.8,287,382.8,287z"/>
<path class="st0" d="M382.8,351.3L382.8,351.3c2.6,0.6,5.1-1,5.7-3.6v0c0.6-2.6-1-5.1-3.6-5.7h0c-2.6-0.6-5.1,1-5.7,3.6l0,0
	C378.6,348.2,380.2,350.8,382.8,351.3z"/>
<path class="st0" d="M231.3,344.8l0.5,0.8c2.2,4,5.9,6.9,10.2,8.2h0c1.7,0.5,3.4,0.8,5.1,0.8h15.5c2.7,0,5.4-0.6,7.9-1.9l6.1-3.1
	l2.8-4.9l-9.3-2.1c-1.3-0.3-2.6-0.4-3.9-0.4h-24.9c-2.1,0-4.2,0.4-6.2,1.1L231.3,344.8z"/>
<path class="st0" d="M185.2,385.2c0,0,11.4-3.7,16.1-6.3c4.3-2.3,18.4-0.3,18.4-0.3l26.7,5.7l19.4-1.7c0,0,16.6-4,22.8-4.5
	c6.6-0.5,14.6-2.6,25.3,1.7c4.4,1.8,9.5,10.9,9.5,10.9s-7,20.9-11.6,24.8c-3.6,3.1-10.4,9.8-14.5,11c-8,2.2-32.6-1.7-32.6-1.7
	l-21.8-2c0,0-17.4,2.9-23.2,2.7c-6.6-0.2-20.3-3.4-25.4-8.7C190.3,412.4,185.2,385.2,185.2,385.2z"/>
<path class="st1" d="M275.9,407.4c10.9,2.3,21.3,0.2,22.8,0c2.9-0.4,10-2.4,12.9-4.4c2.4-1.6,7.9-5.8,7.9-9.2c0-2.8-3.9-7.3-6-8.2
	c-6.2-2.9-19.9-3.4-26.5-2.4c-5.3,0.8-20.9,5.6-20.9,5.6l-20.5-0.5c0,0-16.6-4.4-22.2-5.1c-5.5-0.6-17-2.4-22.2,0
	c-2.9,1.3-5.8,1.9-12.5,4.4c-4.4,1.6,17.5,20.6,17.5,20.6s8.7,1.7,17.5-2.2c8.2-3.6,25.5,2.6,25.5,2.6s5.5-1.7,9.6-2.5
	C262.3,405.4,273.6,406.9,275.9,407.4z"/>
<path class="st6" d="M197.5,389.8v5.6l29.8,6.7l11.4,1.4l38.6,1.3l13.2-1.2l18.6-5.4l4.7-7.5c0,0-18.4-5.1-24.7-4.8
	c-4.2,0.2-16.3,4.6-16.3,4.6l-12.6,0.9l-1.6,1.4l-1.5-1.4l-13-1.5l-9.1-0.6c0,0-9.8-3.6-13.2-4.1c-3.2-0.5-9.8-0.3-13,0
	c-2.2,0.2-8.8,1.8-8.8,1.8L197.5,389.8z"/>
<path class="st7" d="M331.3,296.3l-35.1-0.8c-5.3-0.1-9.5-4.5-9.4-9.8v0c0.1-5.3,4.5-9.5,9.8-9.4l35.1,0.8c5.3,0.1,9.5,4.5,9.4,9.8
	v0C341.1,292.2,336.6,296.4,331.3,296.3z"/>
<path class="st2" d="M326.7,301.2l-25.9-0.6c-0.2,0-0.3-0.1-0.3-0.3l0.1-2.4c0-0.2,0.1-0.3,0.3-0.3l25.9,0.6c0.2,0,0.3,0.1,0.3,0.3
	l-0.1,2.4C327,301.1,326.8,301.2,326.7,301.2z"/>
<path class="st0" d="M260.3,289.4l-12.2-0.3c-0.5,0-0.9-0.4-0.9-0.9l0.2-7.4c0-0.5,0.4-0.9,0.9-0.9l12.2,0.3c0.5,0,0.9,0.4,0.9,0.9
	l-0.2,7.4C261.2,289.1,260.8,289.4,260.3,289.4z"/>
<path class="st0" d="M359.8,252.9c0,0-6-11.8-9.3-14.5c-3.5-2.9-12.4-6.4-17-6.6c-12.3-0.6-32,4.1-48.1,1.9
	c-1.2-0.2-3.7-1.2-4.2-2.3c-2.4-5.9,0.4-16.7,0.4-16.7s3.2,0.8,4.5,1.8c2.9,2.3,28.6,0.6,36.7-0.5c5.7-0.7,18.8-0.5,23.1-0.2
	c3.1,0.2,9.2,3.4,10.9,6C361.1,228.4,359.8,252.9,359.8,252.9z"/>
<path class="st7" d="M213.4,294.2l-29.3-0.7c-5.3-0.1-9.4-5.6-9.3-7.5l-0.1-1.3c0.1-2.2,1.1-4.3,2.7-5.8c1.8-1.7,4.3-2.7,7.1-2.6
	l35.1,0.8c5.3,0.1,9.4,2.7,9.3,7.4l-0.6,2.4C226.8,293.6,218.7,294.3,213.4,294.2z"/>
<path class="st0" d="M214.5,299.2l-25.9-0.6c-0.2,0-0.3-0.1-0.3-0.3l0.1-2.4c0-0.2,0.1-0.3,0.3-0.3l25.9,0.6c0.2,0,0.3,0.1,0.3,0.3
	l-0.1,2.4C214.8,299.1,214.6,299.2,214.5,299.2z"/>
<path class="st0" d="M158.4,235.6c0,0,7.5-10.9,11.1-13.1c3.9-2.4,13.2-4.7,17.7-4.3c12.3,1,31.2,8.2,47.4,8.2
	c1.2,0,3.9-0.7,4.5-1.7c3.1-5.6,1.8-16.6,1.8-16.6s-3.2,0.4-4.7,1.2c-3.2,1.9-28.4-3.2-36.3-5.3c-5.6-1.5-18.5-3-22.9-3.2
	c-3.1-0.2-9.6,2.1-11.6,4.5C160.4,211.1,158.4,235.6,158.4,235.6z"/>
<path class="st0" d="M213.6,234.5l-26.5-0.6c-21.2-0.5-39,16.5-39.5,37.7l-0.5,21.7c-0.5,21.2,16.5,39,37.7,39.5l26.5,0.6
	c21.2,0.5,39-16.5,39.5-37.7l0.5-21.7C251.8,252.7,234.9,235,213.6,234.5z M245.1,289.9c-0.5,21.2-18.2,38.2-39.5,37.7l-14.7-0.3
	c-21.2-0.5-38.2-18.2-37.7-39.5l0.2-10.5c0.5-21.2,18.2-38.2,39.5-37.7l14.7,0.3c21.2,0.5,38.2,18.2,37.7,39.5L245.1,289.9z"/>
<path class="st0" d="M324.8,237l-26.5-0.6c-21.2-0.5-39,16.5-39.5,37.7l-0.5,21.7c-0.5,21.2,16.5,39,37.7,39.5l26.5,0.6
	c21.2,0.5,39-16.5,39.5-37.7l0.5-21.7C363,255.2,346.1,237.5,324.8,237z M356.3,292.4c-0.5,21.2-18.2,38.2-39.5,37.7l-14.7-0.3
	c-21.2-0.5-38.2-18.2-37.7-39.5l0.2-10.5c0.5-21.2,18.2-38.2,39.5-37.7l14.7,0.3C340,243,357,260.7,356.5,282L356.3,292.4z"/>
<path class="st2" d="M336,280.7c0,0-16.3-4.4-21.8-4.5s-22,3.5-22,3.5c-1.7,0-3.1-1.5-3.1-3.2l0,0c0-1.7,1.5-3.1,3.2-3.1
	c0,0,16.5-3.7,22-3.5c5.5,0.1,21.8,4.5,21.8,4.5c1.7,0,3.1,1.5,3.1,3.2l0,0C339.2,279.4,337.7,280.7,336,280.7z"/>
<path class="st2" d="M223.8,280.7c0,0-16.3-4.4-21.8-4.5c-5.5-0.1-22,3.5-22,3.5c-1.7,0-3.1-1.5-3.1-3.2l0,0c0-1.7,1.5-3.1,3.2-3.1
	c0,0,16.5-3.7,22-3.5c5.5,0.1,21.8,4.5,21.8,4.5c1.7,0,3.1,1.5,3.1,3.2l0,0C227,279.4,225.5,280.7,223.8,280.7z"/>
<path class="st2" d="M216.9,281.6l6.1-0.9c-0.4-3.1-3-5.5-6.3-5.6l-6.3-0.1c-3.6-0.1-6.5,2.8-6.6,6.3c-0.1,3.6,2.8,6.5,6.3,6.6
	l6.3,0.1c1.7,0,3.2-0.6,4.4-1.6L216.9,281.6z"/>
<path class="st2" d="M331.5,281.6l6.1-0.9c-0.4-3.1-3-5.5-6.3-5.6L325,275c-3.6-0.1-6.5,2.8-6.6,6.3s2.8,6.5,6.3,6.6l6.3,0.1
	c1.7,0,3.2-0.6,4.4-1.6L331.5,281.6z"/>
</svg>
