<?xml version="1.0" encoding="utf-8"?>
<!-- Generator: Adobe Illustrator 23.0.0, SVG Export Plug-In . SVG Version: 6.00 Build 0)  -->
<svg version="1.1" id="Capa_1" xmlns="http://www.w3.org/2000/svg" xmlns:xlink="http://www.w3.org/1999/xlink" x="0px" y="0px"
	 viewBox="0 0 512 512" style="enable-background:new 0 0 512 512;" xml:space="preserve">
<style type="text/css">
	.st0{opacity:0.88;}
	.st1{fill:#F9F5E6;}
	.st2{fill:#94BDB3;}
	.st3{fill:#96C0B8;}
	.st4{fill:#8CC7BC;}
	.st5{fill:#FDF5DF;}
	.st6{fill:#508F7F;}
	.st7{fill:#C9F0EE;}
	.st8{fill:#CEF0ED;}
	.st9{fill:#D0F2E7;}
	.st10{fill:#99B1A2;}
	.st11{fill:#A3D5CC;}
	.st12{fill:#9BD0CC;}
	.st13{fill:#A2C9B9;}
	.st14{fill:#5DA69C;}
	.st15{fill:#F8F4E3;}
	.st16{fill:#A2CCBC;}
	.st17{fill:#9EC5B7;}
	.st18{fill:#F6F7E4;}
	.st19{fill:#FBF5E0;}
	.st20{fill:#A6CCBA;}
	.st21{fill:#BDCACC;}
	.st22{fill:#F4F5E1;}
	.st23{fill:#9EC7B9;}
	.st24{fill:url(#SVGID_1_);}
	.st25{fill:url(#SVGID_2_);}
	.st26{fill:url(#SVGID_3_);}
	.st27{opacity:0.63;}
	.st28{opacity:0.23;}
	.st29{fill:#F7931E;}
	.st30{fill:#D56D5A;}
	.st31{fill:url(#SVGID_4_);}
	.st32{fill:url(#SVGID_5_);}
	.st33{fill:url(#SVGID_6_);}
	.st34{fill:url(#SVGID_7_);}
	.st35{fill:url(#SVGID_8_);}
	.st36{fill:url(#SVGID_9_);}
	.st37{fill:#1B1238;}
	.st38{opacity:0.6;fill:#FFFFFF;}
</style>
<g class="st0">
	<path class="st1" d="M316.8,277.8c1.6-0.3,3.2-0.5,4.9-0.8c0.5,3.6-2.1,4.5-4.6,4.8c-3.7,0.4-7.1,1.6-11,2c2.1,1.3,4,1.3,6,0.5
		c3-1.3,6.1-2.2,9.1-3.3c3.6-1.4,7.3-1.7,11-0.2c4.5,1.8,9,2,13.8,0.8c6-1.5,12,0.3,18,0.8c1.8,0.1,3.8,0.7,5.4,0.7
		c-1.1-0.4-3.7,0.9-3.9-0.9c-0.2-2.6,2.5-2.6,4.5-2.8c2.6-0.1,5.2-0.1,7.5,1.3c1.8,1.1,3.9,0.9,5.9,1.1c1.8,0.1,3.9-0.2,4.9,2
		c-1,3.3-3.8,3.1-6.3,2.8c-4.7-0.7-9.4-0.9-14,0.1c-0.3,0.1-0.5,0.1-0.8,0.1c-9.8-1.8-19.5,0.9-29.3,0.9c-2.8,0-5.6-0.2-8.4-1
		c-5-1.5-9.5,0.1-14.1,2c-6.8,2.9-13.7,1.1-20.6,0.2c-0.8-0.1-1.4-0.8-1.7-1.6c0.5-1.1,2-2.1-0.7-2.9c-3.1-0.9-6.1-0.6-9.2-0.7
		c-1.3-0.1-2.7,0.5-4,0.1c-6.7-1.6-13.4,0.6-19.9,0c-9.3-0.8-18.1,2-26.9,3.7c-5.9,1.1-11.7,1.8-17.6,2.1c-2.1,0.1-4.3,0.6-6.4,0.5
		c-11.2-0.6-22.2,1.4-33.1,3.6c-4.7,1-9.7,0.4-14.5,0.8c-3,0.3-4-1.4-3.4-4.6c2.5,0.2,5,0.4,7.5,0.5c4-0.3,7.9,0.2,11.9-0.3
		c5-0.5,9.8-1.3,14.5-3.3c5.2-2.2,10.7-0.4,16-0.8c5.5-0.5,11.1,0.9,16.5-0.9c4.5-1.5,9-2.4,13.7-1.8c1.6-0.6,1.5-1.9,1.5-3.3
		c0.1-1.7,0.7-3.2,2.9-1.6c-9-16.2-16.7-32.8-19.3-51.3c-1.1-8.1-2.4-16.2-1.3-24.4c0.2-1.7,0-3.5-0.7-5.1
		c-2.1-5.3,1.1-9.9,2.2-14.7c1.4-7.9,5.4-15,6.1-23.1c0.3-3.2,3-5.6,4.4-8.5c1.3-2.8,2.6-5.6,3.1-8.7c0.8-5.2,2.6-10.1,4-15.2
		c2.4-9.4,3.8-18.9,2.2-28.6c-0.1-2.1-0.2-4.2-0.2-6.3c-0.6-2.5-0.6-4.9-0.2-7.5c0.9-6.6-1-12.9-2-19.3c0-0.2-0.1-0.5-0.2-0.7
		c-0.3-10.1-0.9-20.3-1.9-30.4c-0.1-1.4,0.1-2.7,1.2-3.7c0.3,0,0.5,0,0.8,0c0.6,8.1,2.5,15.9,3.5,23.9c1.6,13.3,4.9,26.5,5.2,40
		c0.2,8-0.9,15.8-2.7,23.6c-0.5,2.1-1.2,4.1-1.1,6.3c0.1,8.3-2.7,16.1-4.7,24c-1.8,7.4-4.4,14.6-6,22.1c-0.2,1.1-0.3,2.5-1.5,3.2
		c-1.6,2.2-0.8,4.7-1.1,7.1c-1.4,10.5-4.3,21.3-2.5,31.6c2.7,16.1,3,32.9,10.5,48.1c1.8,3.6,4.9,6.4,6.2,10.3
		c3.8,1.5,4.9,5.9,8.3,7.8c1,0.4,1.9,1,2.8,1.3c3.3,0.4,6.5-0.2,9.6-0.7c7.3-1.2,14.4,0,21.6,1.1
		C297.9,282.1,307.5,281.1,316.8,277.8z"/>
	<path class="st2" d="M242.5,98.9c4.8,8.5,1.8,17.2,0.3,25.8c-1.4,7.5-4.3,14.7-5.6,22.2c0,0.1,0,0.3-0.1,0.4
		c-7.8,10.1-7.2,23.3-13,34.2c-0.3,0.6-0.8,1-1.2,1.5c0.9-6.3-2.3-12.7,0.7-19c0.3-0.6,0.4-1.3,0.8-1.8c3.5-4.3,5.9-8.7,7.6-14.4
		c2.1-7.1,4-14.4,6.2-21.5C240.9,117.4,241.4,108.1,242.5,98.9z"/>
	<path class="st3" d="M220.6,197.6c1.2,1.4,1.6,3,1.6,4.8c-0.5,24.1,5.5,46.6,17.2,67.5c1.9,3.4,2.5,7.8,6.3,10.1
		c0.5,0.3,0.6,1,0.2,1.3c-0.4,0.3-1,0.5-1.5,0.4c-2.1,0-2.5-2.3-4.3-3.6c1.1,3,1.2,5.3-2.5,5.1c-0.4-4-3.1-7.2-3.3-11.3
		c-0.3-5-2-9.6-4.1-14.1c-1-2.2-2.1-4.4-4.3-5.7c-3.1-1.9-3.4-4.8-2.4-7.8c0.6-1.8,0.7-3.4,0.3-5.1
		C219.9,225.7,218.8,211.8,220.6,197.6z"/>
	<path class="st4" d="M222.5,260c-1.3,0-2.5-0.5-2.6-1.9c-0.1-1.5,1-2.5,2.4-2.7c1.5-0.2,2.1,0.9,2.2,2.3
		C224.6,259.1,224,260,222.5,260z"/>
	<path class="st5" d="M176.8,290.2c-3.9,1.1-7.9,0.7-11.9,0.3C168.9,290.4,172.8,290.3,176.8,290.2z"/>
	<path class="st6" d="M232.6,174.2c0.1-4,1-7.9,2.3-11.7c4.2-12.3,6.6-25,9.9-37.5c1,0.9,0.7,2.1,0.8,3.2c0.6,3-1.2,5.4-1.6,8.2
		l0-0.1c-0.8,2.3-1,4.8-1.9,7.1c-1.7,7.5-4.5,14.8-6.1,22.3c-0.3,1.2-0.6,2.3-0.6,3.5c-0.8,2-0.9,4.1-2.1,5.9
		C233.1,174.8,232.8,174.5,232.6,174.2z"/>
	<path class="st7" d="M235,169.3c0.3-5.4,2.2-10.3,3.7-15.4c1.1-3.7,2-7.4,3-11.1c0.7-0.2,1.1-0.1,0.7,0.8c-2,7.5-3.9,15-5.9,22.6
		c-0.3,1.3-0.6,2.6-0.9,3.9C235,170.2,234.6,170.1,235,169.3z"/>
	<path class="st8" d="M312,275.4c0.2,0.2,0.5,0.4,0.7,0.6c-6.2,1.5-12.5,2.4-19,1.3C299.7,276.7,305.8,276.1,312,275.4z"/>
	<path class="st9" d="M256.9,280.3c-1.1,0.2-2.2,0.4-3.3,0.7c-2.1-2.7-3.9-5.6-6.2-8.1c-0.6-0.6-0.9-1.4-0.1-2.1
		C251.2,273.2,253.6,277.2,256.9,280.3z"/>
	<path class="st10" d="M247.3,270.7c1.4,3.9,5.3,6.2,6.3,10.2c-3.2-2.8-5.5-6.3-7.9-9.7C246.2,271,246.8,270.9,247.3,270.7z"/>
	<path class="st11" d="M235,169.3c0.2,0.2,0.5,0.5,0.7,0.7c-0.8,2.9-1.5,5.8-2.4,8.9c-1.2-1.5-0.2-2.7,0-3.9
		C233.7,173.1,233.9,171.1,235,169.3z"/>
	<path class="st12" d="M244,136.3c-0.1-2.8,1.1-5.4,1.6-8.2C247.3,131.3,244.8,133.6,244,136.3z"/>
	<path class="st12" d="M242.4,143.6c-0.2-0.3-0.5-0.5-0.7-0.8c0.6-2.2,0.8-4.7,2.3-6.6C244,138.8,243.7,141.3,242.4,143.6z"/>
	<path class="st5" d="M422.8,294.9c2.9,3.3,5.6,6.6,4.8,11.4c0,0.1,0,0.3-0.1,0.4c-0.7,0.4-0.4-0.3-0.6-0.5
		c-4.5-4.2-11.1-5.7-14.3-11.8c-1.8-3.4-5.9-4.5-9.7-5.2c-3.9-0.7-7.6-1.8-11.3-3.1c-1.4-0.5-2.9-0.7-3.4-2.5
		c-4.6-0.4-9.2,0.5-13.6-2.2c-2.1-1.3-5.5-0.5-9.1,0.2c3.2,1.9,5.9,0.5,8.3,1.6c-7.1,0.1-14.2,0.9-21.2-0.2c-2-0.3-3.9-0.6-5.9,0.1
		c-5.2,1.9-10.3,1.4-15.3-0.9c-5.4-2.4-9.9,0.3-14.5,2.2c-4.3,1.7-8.5,3.3-13,0.8c-0.8-0.4-1.9-0.5-1.7-1.8c0.2-1.1,1.1-1.6,2.1-1.4
		c4.4,0.5,8.3-2.2,12.7-1.7c2.3,0.2,3.6-1.5,4.7-3.3c1.1-0.5,2.3-0.9,3.4-1.4c2.3-1,4.3-3,7.1-1.9c0.7,0.1,1.3-0.1,1.8-0.6
		c5.2-4,11.6-3.5,17.5-4.4c4.5-0.7,9.3-0.8,14-0.6c0.7,0.1,1.3-0.1,1.8-0.7c1.7-0.9,3.5-1.4,5.5-1c4.4-1.1,8,0.8,11.5,3.2
		c2.2,1.5,4.6,2.8,7.4,2.5c3.9-0.4,7,0.9,9.7,3.7c4.5,4.7,11.1,6.3,15.8,10.8c2.1,2,4.5,3.3,4.3,6.6
		C421.2,294.1,422,294.6,422.8,294.9z"/>
	<path class="st13" d="M372.6,389.5c0.9-3.9-1.2-6.9-3.3-9.9c3.4,0.7,5,3,6.4,5.7c-0.8-5.1-3.9-8.6-8.2-10.6c-4.4-2-8.4-5.6-13.9-4
		c-1,0.3-2.4-0.9-3.6-1.5c3.3-2.2,7.4-2.3,11-3.8c1.2-0.5,2.3,0.5,3.3,1.1c4.4,2.9,9.9,2.9,14.2,6.5c3.5,2.9,4.7,5.2,2.7,9.3
		C379.3,386,375.7,387.4,372.6,389.5z"/>
	<path class="st14" d="M361.3,353.2c1.1-0.5,2.2-0.9,3.9-1.6c-0.6,1.4-1,2.3-1.4,3.2C362.9,354.2,362.1,353.7,361.3,353.2z"/>
	<path class="st15" d="M416.5,383.8c-0.2,2.5-1.8,4-3.7,5.4c-5.7,3.9-12,6.4-18.6,8.2c-3,0.8-5.7,2.3-8.6,3c1.3-2.5,3.7-4.5,5.9-5.6
		c4.8-2.5,8.9-5.7,12.9-9.3c2.2-1.7,2.3-4.1,2.2-6.5c-0.2-3.3,1.2-4.4,4.3-3.6C413.9,377.5,415.9,380.1,416.5,383.8z"/>
	<path class="st16" d="M410.7,375.6c-2.2,0-3.3,0.4-2.7,3.2c0.8,3.1-0.4,5.7-3.8,6.8c1.5-3.1,0.1-5.2-2.6-6.5
		c-3.3-1.6-6.3-4-10.2-4.6c-1.2-0.2-2.3-1.2-3.4-2.3C395.9,371.9,403.8,370.1,410.7,375.6z"/>
	<path class="st17" d="M426.8,306.2c-1.7-3.7-4.2-6.5-8.4-7.3c-1.7-0.3-3-1.4-3.3-2.7c-0.9-4.8-4.6-6.4-8.4-7.6
		c-6.1-1.9-12.4-3.4-18.6-5c-1.8,2.3-4.1,1.4-6.3,1.1c-4.4-0.6-8.8-0.8-13.3-0.1c-1.5,0.2-3,0.5-4.4,0.2c-4.7-0.9-9.3-0.6-14,0.1
		c-6.1,0.9-12.3,2-18.4,0.3c-5.1-1.4-9.9-1.5-14.5,0.7c-7.9,3.8-16,2-24,0.8c-5.5,0-11,0.6-16.4,2.1c-8.1,2.2-16.4,3.3-24.6,4.2
		c-17.4,1.8-34.8,2.3-52.2,4.1c-15,1.5-29.6,5.5-44.8,5.5c-3.5,0-6.8,1.2-9.9,3c-5,2.9-11,2-16.3,3.9c-7.9,2.8-16.6,3.5-23,9.9
		c-1.4,1.4-3.5,1.8-5.5,2.4c-8.6,2.9-16.8,6.5-23.4,13.1c-5.1,5.1-6.4,14.9-2.4,19.9c1.6,2.1,2.6,3.7,0.3,5.8
		c-1.4,1.3-0.3,2.4,0.7,3.4c0.9,0.8,1.7,2.5,3.2,0.9c2-2.1,4.6-2.1,7.2-2c2.3-4.5,4.7-9,6.9-13.5c3.5-6.9,9.4-10.1,16-12.5
		c10.8-4,21.5-7.9,30.4-15.5c3.4-2.9,7-4.9,11.5-5.3c3.4-0.3,6.5-1.6,9.5-3.3c4.4-2.5,9-4,14.2-4.2c5.2-0.3,10.4-1.1,15.4-3.1
		c5.6-2.2,11.7-3.5,17.8-2.9c6.9,0.6,13.7,0.8,20.5-0.3c3.3-0.5,6.1-3,9-3.3c7.4-0.8,14.9-4.3,22.4-0.3c0.8,0.4,1.8,0.5,2.8,0.3
		c0.9-0.6,0.9,0.1,0.9,0.6c2.6,3.9,6.7,5.3,10.8,6.4c10.1,2.7,20.3,5.1,29.6,10.1c0.7,0.4,1.5,0.6,2.3,0.7
		c11.4,0.5,22.2,5.6,33.8,4.3c0.8-0.1,1.6,0.2,2.4,0.4c7.8,1.4,15.7,2.3,23.6,2c1.9-0.1,3.8,0.2,5.1-1.7c0.8-0.7,1.7-0.7,2.6-0.8
		c13-0.1,26,0.6,38.8-2.3c3.5-0.8,6.5-2.3,9.7-3.5c4.3-1.5,4.6-4.9,4.4-8.6C426.6,306.4,426.7,306.3,426.8,306.2z M407.4,310.6
		c-1.2,2.1-3.1,3.7-5.4,4c-6.4,0.7-12.6,3.1-19.2,1.7c-2.9-0.6-5.9-0.2-8.8-0.1c-10,0.6-19.8-0.4-29.8-1c-9.1-0.5-17.2-4-25.7-6.1
		c-2.5-0.6-4.9-1.3-7.5-0.3c-1.7,0.7-3.6,0.6-5.1-0.3c-7.1-4.1-15.3-3.7-22.9-6c-4.6-1.4-9.5-2.4-11.5-7.7
		c8.2-0.9,16.2-2.3,24.3,1.3c5.3,2.3,11.4,1.8,17.1,0.6c6.6-1.4,13.1-1.3,19.6-0.5c1.8,0.2,3.5-0.2,5.2-0.4c10-1,20.1-2.2,30.1-1.6
		c12.3,0.7,24.1,3.9,34.9,10.4c1.1-0.6-0.7-1.2-0.1-2c2.3,0.2,3.8,1.5,4.7,3.7C408.9,307.7,408.2,309.2,407.4,310.6z"/>
	<path class="st18" d="M271.6,294.8c7.5,7.1,17.2,7.8,26.6,8.9c3.1,0.4,5.4,2.2,8.1,3.3c1.4,0.6,3.1,1.5,4.2,0.5
		c3.7-3.4,6.8-1.2,9.6,0.9c2.1,1.6,1.4-3.5,3.4-1c0.8,1,0.5,3.2,2.8,2.8c2.7-0.4,5,1,7.4,1.7c7.9,2.2,16,1.8,24,3
		c6.8,1,13.7,0.5,20.5,0.2c1.4-0.1,2.6,0.3,4,0.5c3.4,0.5,6.9,1.2,10.1-1c2.4-1.6,5.3-0.5,7.9-1c3.9-0.7,6.6-3.1,7.3-7.3
		c2.4-0.3,3.1,1.4,3.2,3.2c0.1,1.5,1,2.3,1.9,3.3c-8.7,5.2-17.9,5.9-27.3,4.6c-4-0.6-7.7-0.1-11.6,0.1c-15.3,0.6-30.8,1.2-45.9-1.7
		c-12.5-2.4-25-4.8-36.9-9.5c-4.3-1.7-8.6-3.2-13.2-3.3c-3.3-0.1-5.6-2.5-8.1-4.3c-1-0.7-2.1-1.9-1.6-3
		C268.6,294.1,270.3,295,271.6,294.8z"/>
	<path class="st18" d="M263.4,298.1c0.2-1.1-0.4-2.5,1.2-2.9c0.8-0.2,1.2,0.4,1.2,1.1C265.8,298,264.6,298,263.4,298.1
		C263.4,298.1,263.4,298.1,263.4,298.1z"/>
	<path class="st19" d="M293.4,459.2c3-0.4,5.1,1.3,7.3,2.8c2.5,1.7,4.8,3.7,7.9,4.7c2.8,0.9,2.9,2.8,0.8,4.9
		c-2.4,2.5-5.6,3.7-8.5,5.2c-5.1,2.6-10.3,5.3-16.1,6.1c-6.6,0.9-12.7,4.6-19.7,3.7c-10.3-1.3-20.7-0.8-31-0.7
		c-2.4,0-4.7-1.4-7.2-0.8c-0.7,0.6-1.5,1.1-2.5,1.1c-1,0.1-1.8-0.2-2.5-1c-0.3-0.9,0.2-1.3,0.9-1.6c0.7-0.2,1.4-0.1,2,0.4
		c13.6-1.1,27.4-0.8,39.8-7.8c2.8-1.6,5.9-2.5,8.9-1.7c5.7,1.5,9.5-1.3,13.2-4.8c0.8-1.6,1.5-3.4,1.3-5
		C287.7,460.5,289.3,458.8,293.4,459.2z"/>
	<path class="st20" d="M293.4,459.2c-2,1-5.5,0.6-3.1,4.9c0.8,1.4-0.5,4.7-3.3,5.6c-1.9-3.2-5.2-3.1-8.2-3.2
		c-7.1-0.2-14.2,0.7-21.3,1.3c-1.4,0.1-2.9,0-4.5,0c0.7-1.6,2-1.2,3.2-1.4c4.1-0.7,8.2-1.3,11.7-3.9c0.7-0.5,1.8-1,2.6-0.9
		c5.9,0.7,11.3-0.6,16.6-3.1C289.1,457.5,291.3,459,293.4,459.2z"/>
	<path class="st21" d="M224.4,427.6c3.3,1.3,8.2-0.3,9.6,4.9c-2.3-1.9-4.8-3.4-8-3.3C225.1,429.1,224.7,428.3,224.4,427.6z"/>
	<path class="st22" d="M150.1,368.5c3.2,2.3,6.5,4.6,9.7,6.9c-7-1.8-14.3-0.4-21.2-2.6c-2.6-0.8-3.7-0.9-1.5-4.3
		c4.1-6.1,10.6-6,16.2-8.3c1.9-0.5,2.6,0.4,1.2,1.7c-1.9,1.7-3.7,3.7-6.1,4.6C149.3,366.7,149.8,367.5,150.1,368.5z"/>
	<path class="st23" d="M150.1,368.5c-2.8-2-2.6-3.6,0.8-6.1c1-0.7,2.1-1,3.2-1.5c0,0,0-0.3-0.1-0.4c-0.2-0.1-0.5-0.2-0.7-0.3
		c2.6-1.3,5.3-1.9,8-0.4c0.4,0.2,1.1,0.4,1.5,0.3c5-2.1,8.9,1.4,13.3,3.1c-3.9,0.4-7.7,0.9-11.6,1.1c-3.9,0.1-7.6,1.2-11.5,1.8
		C151.7,366.4,150.9,367.4,150.1,368.5z"/>
	<path class="st5" d="M57.4,379.6c3.3,1.5,7.1,2.6,9.5,5.8c4.6,1.4,9.5,3.3,12.6,6.4c5.3,5.3,11.9,6.8,18.3,8.7
		c6.9,2,13.5,4.5,20,7.4c1.8,0.8,3.7,2.1,5.7,1.8c8.8-1.3,14.4,5.7,22.5,8c-0.1,0.1-0.1,0.1-0.2,0.2c1.6,0.5,3,1.4,4.2,2.7
		c0.4,0.1,0.8,0.2,1.3,0.5c6.4,0.7,12.7,2.1,19.2,1.2c1.1-0.2,2.1-0.1,3.1,0.3c7.5,3.6,14.9,2.1,22.3-0.2c0.4,0,0.9-0.1,1.3-0.1
		c4.6,0,8.9,1,12.9,3.7c1.9,1.3,4.2,1.6,6.6,1c0.4,0,0.8,0,1.2,0c1.6-0.1,3.2-0.1,4.8-0.6c5.7-1.2,11.1,0.5,16.4,2
		c1.8,0,3.4,0.8,5,1.4c9,3.2,18.1,3.4,27.4,1.6c7.8-1.6,15.5-4.1,23.4-4.4c10.4-0.4,20.1-3.4,30-5.9c9.1-2.3,17.5-6.9,27-8.4
		c2.8-0.4,5.6-0.4,8.3-1.7c7.6-3.7,15.2-7.5,22.3-12.2c3.3-2.1,6.8-3.7,9.7-6.4c3.6-3.4,4.8-8.4,2.1-12.4c-3-4.5-6.6-8.5-11.6-10.9
		c-4.8-2.2-9.8-3.8-14.7-5.4c-1.9-0.6-2.7-1.3-1.4-3.4c1.5-2.5,0.5-4.6-1.7-6.2c-0.9-0.7-1.9-1.3-2.8-2.1c-0.4-0.4-0.9-0.8-1.5-1.1
		c-3.5-2.9-7.3-5.1-11.5-6.9c-3.4-1.4-6.7-1.6-9.7,0.8c0,3.1,2.4,3.2,4.4,3.4c3,0.4,4.9,1.9,4.9,4.8c0,4-3.7,7.7-7.7,7.7
		c-3.6,0-6.5,1.2-9,3.7c-2.6,4.4-6.2,6.7-11.4,6.8c-2.2,0-4.1,1.4-5.6,3c-2.1,2.2-4.7,3.6-7.4,4.7c-1.6,0.7-3.2,1.4-4.6,2.4
		c-0.8,0.5-1.6,1.2-1.4,2.3c0.3,1.3,1.5,1.5,2.6,1.4c2,0,4-0.5,6-0.8c8.2-1.2,15.5-5.3,23.4-7.6c5.7-1.7,11.5-3,16.7-5.9
		c4-1.8,8.1-3.9,12.5-2.9c3.9,0.9,7.5,2.9,11.3,4.2c7.2,2.5,8.4,8.8,2.7,13.4c-1.5,1.2-3.4,2.2-5.2,3c-2.9,2.5-6,4.4-9.7,5.7
		c-2.5,0.9-4.4,2.7-5.4,5.2c-1.1,2.7-3.2,4.2-5.2,6c-3.3,3.1-7.9,2.4-11.4,4.7c-2.3,1.6-4.8,1.6-7.2,0.2c-2.2-1.2-4.5-2-7-1.2
		c-2.8,0.8-4.6-0.2-6.3-2.3c-2.4-3-5.7-4.4-9.6-4.3c-9.8,0.2-17.5,4.5-23.9,11.7c-1.1,1.2-1.8,2.8-3.7,2.8
		c-3.9-0.1-7.8,1.4-11.6,0.8c-8.9-1.2-18-0.1-26.9-2c-0.4-0.1-0.8-0.2-1.2-0.2c-5.2-1.2-10.4-0.3-15.6-0.8c-8-0.7-16.1,0-23.5-4
		c-1.2-0.3-2.4-0.5-3.7-0.5c-0.6,0-1.2,0-1.8,0c-2.1,0-3.4-1.2-4.4-2.9c-1.9-3.1-4.9-4.7-8.4-4.6c-4.3,0-8.5-0.9-12.8-0.6
		c-0.7,0-1.4-0.2-2-0.6c-0.7-0.2-1.2-0.6-1.7-1.1c-1.4-2.2-3.3-4-5.4-5.6c-2.1-1.2-4.4-1.3-6.7-1.2c-2.1,0.1-4-0.5-5.7-1.6
		c-6.3-4.2-12.7-8.2-18.7-12.7c-7.5-5.6-7.5-5.7-10.9,3.1c-0.9,2.4-2.3,3.7-4.8,3c-9.6-2.8-18.9-6-22.6-16.8
		c-1.2-3.6-3.7-6.3-7.8-6.8c-2.2-0.7-4.3-0.1-6.3,0.7c-1.7,0.6-2.8,0.3-2.2-1.8c0.7-2.7-0.2-4.9-1.4-7.3c-3-6.2-1.8-12.5,3-17.4
		c4.7-4.9,10.6-7.8,16.8-10.3c6.1-2.5,12.5-4.3,17.4-9.1c1.2-1.1,2.9-1.4,4.4-1.9c10.9-3.7,22.7-4.4,33.3-9.4
		c0.9-0.4,1.9-0.3,2.8-0.6c5.4-1.5,11-0.4,16.5-1.3c10.4-1.6,20.7-3.5,31.1-4.6c7.8-0.8,15.5-1.4,23.3-2c7.9-0.6,15.7-2,23.5-2.3
		c6.2-0.2,12.3-1,18.4-1.8c8-1.1,15.7-3.6,23.8-4.3c1.2-0.1,2.4-0.4,3.1-1.6c1.2,0,2.4,0,3.6-0.1c1-0.1,2.4,0,2.3-1.5
		c0-1.1-1.2-1.4-2.1-1.5c-4.1-0.6-7.9-2.2-12.2-1.9c-4.1,0.3-8.3,1.1-12.2-1.2c-0.5-0.3-1.6,0-2.3,0.3c-2,1-4.3,0.5-6.3,1.1
		c-6,1.8-12.1-1.5-18.4,1.1c-3.9,1.6-8.9,2.9-13.7,2c-1.1-0.2-2.2,0-3,0.8c-2.4,2.3-5,2.6-8.2,1.8c-1.9-0.5-4.1-0.5-6-0.1
		c-8.9,2-18.1-0.1-27.2,2c-8.4,1.9-17.1,3.2-25.8,3.4c-2.7,0.1-4.1-0.4-4.5-3.1c-2.3-2.9-5.6-3.5-8.7-2.6
		c-6.4,1.9-12.7,4.3-17.1,9.8c-1.8,2.3-4,3.8-7.2,3.3c-2.8-0.4-5.6-0.3-8.4-0.6c-7.6-0.6-14.8-0.3-20.1,6.4c-0.5,0.9-1.4,0.9-2.3,1
		c-2.3-0.3-3.9,1.1-5.6,2.3c-1,1-2.4,0.5-3.4,1c-8.9,4.3-17.9,8.6-26.3,13.7c-1.9,1.1-3.5,2.2-6,1.7c-1.7-0.4-4,0-4.7,1.6
		c-1.4,3.4-4.2,5.8-5.8,9.1C33.7,352.9,43.9,373.5,57.4,379.6z"/>
</g>
<g>
	<linearGradient id="SVGID_1_" gradientUnits="userSpaceOnUse" x1="157.1834" y1="210.5323" x2="165.8702" y2="210.5323">
		<stop  offset="0" style="stop-color:#1B1238"/>
		<stop  offset="1" style="stop-color:#1B1238"/>
	</linearGradient>
	<path class="st24" d="M159.3,224.5c-1.3-4.7-2.3-9.3-1.1-13.9c1-3.7,3.3-6.8,5.3-10.1c0.8-1.3,1.6-2.7,2.4-4.1
		c-0.4,0.6-0.8,1.3-1.3,1.9c-3,4.3-6.6,8.6-7.3,13.8c-0.5,3.8,0.6,7.6,1.6,11.2C159,223.7,159.2,224.1,159.3,224.5z"/>
	<linearGradient id="SVGID_2_" gradientUnits="userSpaceOnUse" x1="147.4183" y1="265.0248" x2="162.1655" y2="265.0248">
		<stop  offset="0" style="stop-color:#1B1238"/>
		<stop  offset="1" style="stop-color:#1B1238"/>
	</linearGradient>
	<path class="st25" d="M149.2,288.2c-0.8-6.8-1.6-13.9,0.4-20.4c2.9-9.2,11.1-16.5,12.5-25.9c-1.5,2.2-4.3,3.7-5.8,5.8
		c-6.5,8.8-10.5,23.7-8.4,34.5C148.3,284.2,148.7,286.2,149.2,288.2C149.2,288.2,149.2,288.2,149.2,288.2z"/>
	<linearGradient id="SVGID_3_" gradientUnits="userSpaceOnUse" x1="149.7663" y1="222.9546" x2="423.2293" y2="222.9546">
		<stop  offset="0" style="stop-color:#1B1238"/>
		<stop  offset="1" style="stop-color:#1B1238"/>
	</linearGradient>
	<path class="st26" d="M410.7,157.4c2.8-4.6,5.7-9.1,8.5-13.7c-8.2-0.8-16.4-1.7-24.6-2.5c4.4-6.7,4.4-16.1-0.1-22.7
		c-3.9-0.6-6.7,3.6-9.6,6.3c-6.5,6-16.4,5.5-25.1,4.6c4.6-11.1,9.7-22,15.3-32.6c-5.3-0.6-10.7-1.2-16-1.8c0.8-3.3,2.9-6.4,5.7-8.4
		c-3.4-2.8-8.6-1.4-12.4,0.9s-7.2,5.6-11.6,6.2c-9.2,1.4-15.6-8.8-18.8-17.5s-7.3-19.3-16.5-20.7c3.4,10.7,4.8,22,4.1,33.2
		c-7.7-2.7-10-12.3-11.4-20.4s-4.5-17.7-12.5-19.4c-1,11.1,0,22.4,2.8,33.2c-2.5-5.8-9-10.4-15.1-8.7c-5.7,1.6-8,10.3-3.7,13.8
		c-8.2-5.5-16.5-10.9-25.8-14.2c-9.7-3.4-20.7-4.3-30.1-0.1c3.8,2.6,7.5,5.1,11.3,7.7c-8.2-3.4-17.6-3.6-25.9-0.5
		c4.5,3.8,9,7.6,13.5,11.4c-4.7-0.4-9.4-0.8-14-1.2c2.6,4.1,5.9,7.7,9.6,10.8c-16.8-2.2-34.2,0-50,6.4c2.8,1.9,6.2,2.9,9.6,2.9
		c-2.4,3.3-3.1,7.7-2,11.7c4.7-5.5,11.7-9.1,19-9.6c2.3-0.2,5.3,0.4,5.9,2.6c1.2,4.1-6,5.3-7.8,9.1c-1.1,2.3,0,4.9-0.1,7.4
		c-0.5,10.7-19.5,11-22.1,21.4c6.2,1.5,12.5,2.3,18.8,2.3c-0.2,4.6-0.9,9.1-1.9,13.6c3.2-8.8,6.5-17.7,11-26
		c1.9-3.6,4.1-7.1,7.4-9.4c9.2-6.6,21.8-1.5,31.8,3.7l-9.5-16.2c3.5,5.6,7,11.1,10.4,16.7c3.6-4.2,10-5.7,15.1-3.7
		c-2.9,2.7-3.6,7.3-1.7,10.7c12.1,1.6,23.7-8.8,35.6-6c5.7,1.4,10.3,5.6,14.6,9.6c5.8,5.5,11.6,11,17.4,16.5
		c1.9,1.8,3.8,3.7,4.9,6.1c2.8,6.4-1.8,13.3-4.3,19.8c-5.9,15.1-0.9,32,3.8,47.4c1.7,5.5,3.3,11.1,3.3,16.9
		c-0.1,6.7-2.5,13.1-5.8,18.9c-12.7,22.2-37.2,34.1-58,49c-13,9.4-25,20.4-39.3,27.8c-14.2,7.4-31.7,10.9-46.3,4.3
		c-14.6-6.6-17-21.9-15.7-39.8c-0.3-2.4-0.6-4.8-0.9-7.2c-0.2,3.5-0.5,7-0.8,10.5c-1.1,13.1-1.3,26.3-0.8,39.5
		c0.3,6.6,0.8,13.3,3.7,19.2c5.1,10.3,16.6,15.9,27.8,18.4c27.6,6.1,56.9-2.6,80.5-18.2c23.5-15.7,42-37.7,58.8-60.5
		c2.2,5.9,9.5,8.7,15.7,7.7c6.2-1,11.6-4.8,16.7-8.6c14.6-10.9,29.8-25.2,29.6-43.5c0-3.6-0.7-7.2-0.7-10.9
		c0.1-4.7,1.3-9.2,2.5-13.7c5.4-19.5,10.9-39.2,19.7-57.5c5.2-10.8,11.5-21,18.8-30.5C419.1,158.9,414.9,158.1,410.7,157.4z"/>
</g>
<g class="st27">
	<g class="st28">
		<g>
			<path class="st29" d="M256.9,84.7c-1.8-5-6.3-7.7-11.2-9c-6.5-1.8-13.5-2.3-20.1-2.3c-0.2,0-0.5,0.2-0.5,0.4
				c-0.6,3.7,5.2,6.5,7.8,8c4.4,2.6,9.4,4.4,14.4,5.3c1.4,0.2,7.3,1.2,5.6-2.1c-0.8-1.5-3.5-2-4.9-2.5c-3.1-1-6.2-2.1-9.3-3.1
				c-0.6-0.2-0.9,0.8-0.3,1c3.1,1,6.2,2.1,9.3,3.1c0.9,0.3,1.9,0.6,2.8,0.9c0.4,0.3,0.9,0.5,1.3,0.8c-0.3,0.4-0.5,0.9-0.8,1.3
				c-1.1,0.5-3.4-0.4-4.6-0.6c-5.8-1.2-11.3-3.6-16.1-6.9c-1.2-0.9-3.4-2-3.6-3.6c-0.4-0.7-0.3-1,0.3-0.9c0.5,0,0.9,0,1.4,0
				c0.8,0,1.6,0.1,2.3,0.1c3.4,0.2,6.8,0.6,10.1,1.2c6,1,12.8,3,15.1,9.3C256.1,85.6,257.1,85.3,256.9,84.7L256.9,84.7z"/>
		</g>
	</g>
	<g class="st28">
		<g>
			<path class="st29" d="M272.9,85.5c-1.4-2.7,0.3-6.2,3.2-7.1c3-0.9,6.3,1,7.8,3.5c1,1.7,1.3,3.8,0,5.5c-0.7,1-2.7,1.6-3.9,1.8
				c-2.2,0.4-4.2-0.4-4.5-2.7c-0.1-1,0.9-2.5,1.7-3c2.9-1.7,6.5,1.9,3.7,4.2c-0.5,0.4,0.2,1.1,0.7,0.7c4.4-3.6-2.5-9.1-6.1-4.8
				c-1.4,1.7-1.4,4.1,0.1,5.7c2,2,5.6,1,7.7-0.3c5.4-3.3,0.6-10.4-4-11.6c-5-1.3-10,3.7-7.5,8.6C272.3,86.6,273.2,86,272.9,85.5
				L272.9,85.5z"/>
		</g>
	</g>
	<g class="st28">
		<g>
			<path class="st29" d="M292.6,83c-3.3-7.4-3.7-15.6-1-23.2c-0.2,0.1-0.4,0.2-0.6,0.4c2.8,1.1,3.6,4.3,4.2,6.9
				c0.7,3.2,1.4,6.4,2.1,9.6c0.4,1.8,1.2,4,0.7,5.9c-0.2,0.7-0.8,1.8-1.5,2.2c-2.4,1.1-3.5-1.4-4-2.9c-0.4-1.4-0.1-13.1,3.4-10.8
				c0.5,0.4,1.1-0.5,0.5-0.9c-4.2-2.9-5.1,5.6-5.2,7.9c-0.2,2.9,1.6,10.4,6.1,7.4c1.6-1.1,2-3,1.8-4.8c-0.3-3.2-1.3-6.4-2-9.5
				c-0.9-4.1-1.3-10.1-5.9-12c-0.3-0.1-0.5,0.1-0.6,0.4c-2.7,7.9-2.3,16.4,1.1,24C292,84.1,292.8,83.5,292.6,83L292.6,83z"/>
		</g>
	</g>
	<g class="st28">
		<g>
			<path class="st29" d="M311.9,63.9c1.3,4.5,0.6,9.1-0.1,13.7c-0.5,3.4-1.2,7-0.3,10.4c1.2,4.6,6.9,8.3,10.5,3.8
				c2-2.5,1.9-5.9,1.6-8.9c-0.2-1.9-0.8-4.1-3.1-4.2c-3.8-0.2-7,8-3,9.5c1.5,0.6,3.4-0.6,3.4-2.3c0-2-2.3-2.8-3.8-2.1
				c-0.6,0.3-0.1,1.2,0.5,0.9c1.8-0.3,1.5-0.1-0.8,0.8c0-0.6,0-1.1,0.1-1.7c0.2-1,0.7-2.7,1.5-3.3c3.9-2.8,4,1.6,4.1,3.1
				c0.1,1,0.1,1.9,0.1,2.9c-0.2,2.7-1.4,6.3-4.8,6.3c-2.7,0-4.6-2.3-5.4-4.7c-1.3-4.3,0.1-9.1,0.7-13.4c0.5-3.7,0.7-7.4-0.4-11
				C312.7,63,311.7,63.2,311.9,63.9L311.9,63.9z"/>
		</g>
	</g>
	<g class="st28">
		<g>
			<path class="st29" d="M327.1,97.9c4.7,2.2,9.6,3.8,14.7,4.5c4.1,0.6,9.5,0.7,12.7-2.4c2.1-2,1.8-4.9-0.9-6.1
				c-4.1-1.8-7.4,2-11,3.4c-0.4,0.1-0.5,0.6-0.2,0.9c2.3,2.4,5.8,2.5,8.4,0.4c0.2-0.2,0.2-0.7-0.1-0.8c-2.1-1-4.1-1.1-6.2-0.5
				c-0.6,0.2-0.4,1.2,0.3,1c1.9-0.6,3.6-0.5,5.4,0.3c0-0.3-0.1-0.5-0.1-0.8c-2.1,1.7-5,1.5-6.9-0.4c-0.1,0.3-0.2,0.6-0.2,0.9
				c2.6-1,5-3.5,7.8-3.8c2.1-0.2,4.3,0.7,4.1,3.2c-0.1,2.2-4.2,3.4-5.8,3.7c-7,1.3-15.1-1.4-21.4-4.4
				C327,96.7,326.5,97.6,327.1,97.9L327.1,97.9z"/>
		</g>
	</g>
	<g class="st28">
		<g>
			<path class="st29" d="M339.2,109c3.6-0.6,7.1-1.3,10.7-1.9c1.7-0.3,3.4-0.6,5.1-0.9c1.1-0.2,2.2-0.4,3.2-0.3
				c1.7,0.1,5.1,1.9,3,4.4c-1,1.2-3.4,1.6-4.9,1.9c-2,0.5-3.9,0.8-6,1c-1,0.1-3.6,0.8-1.2-1.6c0.6-0.7,2.1-1,3-1.2
				c2-0.6,4-0.8,6-0.7c-0.2-0.2-0.3-0.3-0.5-0.5c0.4,4-4.6,4.9-7.5,4.5c-3-0.4-5.6-2-7.4-4.4c-0.1,0.3-0.2,0.5-0.3,0.8
				c1.7-0.3,3.4-0.7,5.1-1c0.6-0.1,0.4-1.1-0.3-1c-1.7,0.3-3.4,0.7-5.1,1c-0.3,0.1-0.5,0.5-0.3,0.8c2.4,3.1,6,5.1,10,5
				c3.2-0.1,7.3-1.9,6.9-5.7c0-0.3-0.2-0.5-0.5-0.5c-2.9-0.1-12.3,0.6-11.2,5.4c0.1,0.2,0.3,0.4,0.5,0.4c3-0.2,19.3-1.3,14.6-7.7
				c-2-2.7-5.5-1.9-8.3-1.4c-5,0.9-9.9,1.8-14.9,2.7C338.2,108.1,338.5,109.1,339.2,109L339.2,109z"/>
		</g>
	</g>
	<g class="st28">
		<g>
			<path class="st29" d="M371.6,134c4.9-0.6,9.4-2.5,13.1-5.9c1.8-1.7,4.1-5.7,7.1-4.8c2.7,0.8,0.6,5.1-1.5,5.8
				c-0.9,0.9-1.3,0.6-1.2-1c-0.8-1-0.8-1.6,0.2-1.8c0.4-0.1,0.7-0.3,1.1-0.4c1.3-0.5,1.2,0.2-0.4,2.3c-0.6-0.1-0.9,0.9-0.3,1
				c1.8,0.4,4.5,0,4.4-2.5c0-2.2-2.4-2.2-4-1.8c-1.6,0.5-4.2,1.8-3.8,3.9c0.4,1.9,2.8,2.2,4.3,1.4c1.7-0.8,4.1-3.2,3.9-5.3
				c-0.2-2-2.5-3-4.3-2.7c-2.8,0.5-4.4,3.4-6.2,5.1c-3.4,3.2-7.7,5.1-12.3,5.6C371,133.1,371,134.1,371.6,134L371.6,134z"/>
		</g>
	</g>
	<g class="st28">
		<g>
			<path class="st29" d="M390.4,147.4c4.9-0.9,9.9-1.6,14.9-1.8c2.2-0.1,4.4-0.2,6.6-0.1c0.7,0,1.4,0,2.1,0.1c1,1.8,0.9,3-0.5,3.4
				c-0.8,0.8-2.4,1.1-3.5,1.4c-2.3,0.8-4.6,1.3-7,1.5c-0.8,0.1-2.5,0.3-3.2,0c-1.1-2.3-0.8-3.5,0.7-3.6c0.9-0.2,1.8-0.3,2.8-0.4
				c2.2-0.2,4.6-0.2,6.8,0c1.9-0.2,2.1,0.6,0.8,2.5c-0.7,0.2-1.4,0.3-2.2,0.2c-0.1,0-4.9-0.4-4-1.6c0.4-0.5-0.5-1-0.9-0.5
				c-2.1,2.7,8.2,4.8,9.7,1.2c1.9-4.5-12.5-3-14.6-2.1c-1.6,0.7-2.5,2.3-1.4,3.9c1.6,2.3,5.4,1.5,7.7,1.1c1.6-0.3,15.6-3.9,10.3-7.6
				c-1.1-0.8-2.8-0.7-4.1-0.7c-2.4,0-4.7,0-7.1,0.2c-4.8,0.3-9.5,0.9-14.2,1.8C389.4,146.5,389.7,147.5,390.4,147.4L390.4,147.4z"/>
		</g>
	</g>
	<g class="st28">
		<g>
			<path class="st29" d="M389.8,159.5c4.4,0.2,8.7,0.7,13,1.7c2,0.5,4.2,0.9,6.1,1.7c1.4,0.6,4.1,1.9,2.2,4.2
				c-0.9,1.1-2.6,1.3-3.8,1.5c-2.3,0.4-4.6,0.2-6.8-0.2c-0.9-0.1-1.8-0.3-2.6-0.5c-0.5-0.1-1-0.2-1.5-0.3c-1.3,0-1.6-0.7-1.1-2
				c-0.5-1.6,0.2-2.3,2-2.1c0.5,0,1.1,0,1.6,0c1,0,2.3,0,3.2,0.3c1.1-0.1,1.6,0.6,1.3,2.1c-0.2,0-0.5,0-0.7,0
				c-1.5,0.1-3-1.1-3.9-2.1c-0.1,0.3-0.2,0.6-0.4,0.9c2.8,0.1,5.4,0.7,8.1,1.6c0.6,0.2,0.9-0.8,0.3-1c-2.7-1-5.4-1.5-8.3-1.7
				c-0.5,0-0.6,0.6-0.4,0.9c1.4,1.6,5.3,3.7,7.3,1.8c1.8-1.8-1.6-3.2-2.9-3.5c-2.5-0.5-7.1-1.2-8.8,1.5c-1.4,2.3,0.7,3.9,2.8,4.4
				c3.8,0.9,8.1,1.7,12,0.8c2.3-0.5,5.4-2.2,4.2-5c-1.2-2.8-6-3.5-8.6-4.1c-4.7-1.1-9.4-1.7-14.2-1.9
				C389.1,158.5,389.1,159.5,389.8,159.5L389.8,159.5z"/>
		</g>
	</g>
	<g class="st28">
		<g>
			<path class="st29" d="M246.2,103.8c0.2-4.1-5.6-6.6-8.5-8.2c-4.6-2.5-9.5-4.5-14.5-5.9c-3.6-1-6.9-0.8-8.5,3
				c-1.5,3.5-0.6,7.7,1.7,10.6c2.5,3.2,6.4,4.9,10.3,5.4c3.1,0.4,7.6,0.1,8.4-3.6c0.8-3.6-2.4-6.2-5.2-7.7c-1.9-1-4-2.1-6-2.9
				c-1.4-0.5-3-0.8-4.1,0.4c-2.9,3.2,2,6.1,4.4,7c1.5,0.6,10.9,5.3,10.1,0.7c-0.1-0.6-1.1-0.4-1,0.3c0.3,1.4-5.8-0.9-6.2-1.1
				c-1.8-0.7-4-1.2-5.5-2.4c-0.6-0.4-1.1-1-1.3-1.7c-0.5-1.3-0.1-2,1.3-2c1.7-0.7,2.3-0.2,3.9,0.6c1.4,0.7,2.9,1.4,4.3,2.1
				c1.9,1,3.8,2.4,4.3,4.6c0.7,3-1.9,4.6-4.5,4.7c-3.3,0.2-7-0.8-9.8-2.7c-3.1-2.1-5.1-5.7-4.8-9.5c0.2-2.6,1.7-5.4,4.6-5.5
				c1.8-0.1,3.8,0.7,5.5,1.2c3.6,1.1,7.2,2.6,10.6,4.3c2.9,1.5,9.8,4.3,9.6,8.2C245.2,104.4,246.2,104.4,246.2,103.8L246.2,103.8z"
				/>
		</g>
	</g>
	<g class="st28">
		<g>
			<path class="st29" d="M221.7,84.2c10.6-2.8,20.2,3.3,28.9,8.5c4.1,2.4,8.3,4.7,12.7,6.5c3.1,1.3,6.8,3.2,10.3,2.5
				c2.5-0.5,4.1-2.6,3.6-5.2c-0.6-3.2-3.8-4.8-6.7-5.7c-2.6-0.8-6.1-1.3-8.4,0.6c-0.7,0.6-1.5,1.6-1.4,2.6c0.2,1.3,1.5,1.5,2.5,1.9
				c2,0.8,7.5,3.6,8-0.5c0.3-2.6-2.5-3.4-4.3-2c-0.5,0.4,0.2,1.1,0.7,0.7c1.6,2.3,1.3,3.1-0.6,2.2c-0.3-0.1-0.5-0.2-0.8-0.3
				c-0.8-0.3-1.7-0.6-2.4-1c-1.3-0.8-2.7-1.9-0.7-3.1c0.8-0.5,1.8-0.7,2.7-0.8c3-0.2,7.3,1,9.3,3.3c2.2,2.5,1.2,6-2.2,6.3
				c-1.3,0.1-2.7-0.2-4-0.5c-3.6-1.1-7.2-2.8-10.6-4.5c-11.5-5.7-23.1-16.1-36.9-12.6C220.8,83.4,221.1,84.4,221.7,84.2L221.7,84.2z
				"/>
		</g>
	</g>
	<g class="st28">
		<g>
			<path class="st29" d="M283.6,96.8c0.7,0,0.7-1,0-1C283,95.8,283,96.8,283.6,96.8L283.6,96.8z"/>
		</g>
	</g>
	<g class="st28">
		<g>
			<path class="st29" d="M283.8,96.7c7.7-4.9,17.8-1.8,21.3,6.6c0.1-0.2,0.2-0.4,0.4-0.6c-4.7,1.7-9.7,0.4-14.3-1.2
				c-0.7-0.2-1.3-0.5-2-0.8c-0.7-2.5,0-3.7,2.2-3.6c0.7-0.1,1.5,0,2.2,0c1.5,0.1,3.4,0.2,4.2,1.6c0.9,1.7,0.1,2.4-2.4,2.3
				c-0.6-0.4-1.1-0.9-1.6-1.5c-0.5-0.5-1.2,0.2-0.7,0.7c1.1,1.2,2.7,2.7,4.5,2.1c1.2-0.4,1.7-1.6,1.6-2.9c-0.5-3.7-5.8-3.9-8.6-3.3
				c-3.2,0.7-4.4,4.2-1.1,5.7c4.9,2.2,11.2,3.6,16.3,1.7c0.2-0.1,0.5-0.4,0.4-0.6c-3.7-9.1-14.5-12.6-22.8-7.3
				C282.8,96.1,283.3,97,283.8,96.7L283.8,96.7z"/>
		</g>
	</g>
	<g class="st28">
		<g>
			<path class="st29" d="M309.6,97.7c4.5,1.3,9.1,2.9,13.2,5.3c1.1,0.6,2.1,1.3,3.1,2c0.8,0.6,2.5,1.6,3,2.5
				c0.1,0.9,0.2,1.7,0.3,2.6c-0.4,0.1-0.7,0.3-1.1,0.4c-0.6,0.2-1.3,0.3-1.9,0.4c-1.2,0.1-2.5,0-3.6-0.3c-2.3-0.6-4.3-1.8-6-3.4
				c-0.8-0.7-1.5-1.5-2.2-2.4c-0.3-0.4-0.6-0.7-0.8-1.1c0.3-0.6,0.5-1.2,0.8-1.7c0.3-0.2,1.1,0,1.5,0c2.6,0.2,5.1,1.4,6.8,3.2
				c0.8,0.9,1.4,2.2-0.4,2.5c-0.6,0.1-1.4-0.1-2-0.3c-1.7-0.4-3.1-1.5-4.1-2.8c-0.4-0.5-1.3,0-0.9,0.5c1.6,2,3.7,3.4,6.3,3.6
				c1.5,0.1,3.6,0,3.3-2c-0.3-2.2-3.4-4.2-5.3-4.9c-1.6-0.7-5.5-1.8-7-0.4c-1.5,1.4,0.8,3.8,1.7,4.9c1.9,2.1,4.3,3.9,7.1,4.9
				c2.5,0.9,12.4,1.1,8.9-3.9c-2-2.8-6-5-9-6.5c-3.6-1.8-7.4-3.1-11.3-4.2C309.2,96.6,309,97.6,309.6,97.7L309.6,97.7z"/>
		</g>
	</g>
	<g class="st28">
		<g>
			<path class="st29" d="M335.1,113c5.8-0.5,13.1,1.9,16,7.3c2.3,4.4-1.2,7.6-5.5,7.9c-3,0.2-6.7-0.5-9.4-1.8
				c-2.7-1.3-4.8-4.1-3.9-7.3c1.4-4.6,6.9-2,9.9-0.8c1.7,0.7,5.8,2.1,4.2,4.6c-1.5,2.4-4.6,1.4-6.6,0.3c-0.2-0.1-0.5-0.2-0.7-0.4
				c-0.9-0.3-0.8-1.1,0.3-2.2c0.4-0.1,1.6,0.3,2,0.4c1,0.1,1.5,0,2.4-0.5c0.6-0.3,0.1-1.2-0.5-0.9c-1.1,0.6-7.3-1.3-6.5,2.2
				c0.3,1.2,2,1.9,2.9,2.3c1.5,0.7,3.2,1.4,4.9,1c2.1-0.4,4.1-2.9,3.1-5c-0.5-1.2-1.8-1.6-2.9-2c-2.4-1-4.9-2.4-7.4-2.8
				c-7-1.1-7.9,7.4-3.2,10.8c4.4,3.2,16.2,5.4,18.5-1.5c1.3-3.8-2-7.4-4.8-9.5c-3.7-2.7-8.3-3.8-12.8-3.4
				C334.4,112,334.4,113.1,335.1,113L335.1,113z"/>
		</g>
	</g>
	<g class="st28">
		<g>
			<path class="st29" d="M212.1,105.9c0.4-3.3-4.5-4-6.7-4.5c-4.6-1.1-9.3-1.8-14-1.9c-4.7-0.1-9.5,0.3-14.1,1.2
				c-1.9,0.4-8.5,0.9-8.1,4.1c0.1,0.9,0.8,1.4,1.5,1.7c2.1,1,5.1,1.1,7.4,1.4c5,0.8,10,1.3,15.1,1.5c2,0.1,7.9,1.2,8.1-2.2
				c0.2-3.1-5.9-3.4-7.8-3.6c-1.4-0.2-9.2-1.4-8.6,2.1c0.2,1.3,2,1.8,3,2.1c2.3,0.8,4.7,0.9,7.1,0.5c0.6-0.1,0.4-1.1-0.3-1
				c-2.2,0.3-4.5,0.2-6.6-0.5c-0.5-0.2-1-0.4-1.5-0.6c-0.1-1.5,0.6-2.1,1.9-1.8c0.8,0,1.6,0,2.4,0c2,0.1,4,0.4,6,0.9
				c0.6,0.2,1.2,0.3,1.8,0.5c0.1,0.9,0.1,1.8,0.2,2.7c-0.3,0.3-2.4,0.1-2.8,0.1c-7.7-0.3-15.4-1.1-23-2.5c-0.8-0.2-4-0.5-2-2.7
				c0.5-0.5,1.8-0.6,2.4-0.8c1.6-0.4,3.2-0.8,4.9-1.1c3.8-0.7,7.7-1,11.6-1c3.6,0,7.2,0.3,10.7,0.9c2,0.4,10.8,1.3,10.4,4.5
				C211,106.5,212,106.5,212.1,105.9L212.1,105.9z"/>
		</g>
	</g>
	<g class="st28">
		<g>
			<path class="st29" d="M210.1,109.9c-4.6-1-9.9,2-13.8,4.3c-3.6,2.1-7.6,5.3-8.4,9.7c-0.8,4.4,3.2,7.1,7.1,7.6
				c4.8,0.6,10.6-0.4,14.4-3.5c2.7-2.2,5.9-7.1,4.2-10.7c-0.7-1.5-2.7-1.7-4.2-2c-2.7-0.5-5.4-0.6-8.1,0.2c-3.6,1-7.4,4-8.1,7.8
				c-0.8,5,5.7,3.1,8.2,2.1c1.5-0.6,10-4.9,6.6-7.5c-1.4-1.1-4.4,0-5.8,0.5c-1.8,0.7-3.2,1.7-3.9,3.6c-0.2,0.6,0.8,0.9,1,0.3
				c0.8-2.2,3-2.9,5.1-3.4c0.6-0.1,1.1-0.2,1.7-0.3c1.1,1.2,1.2,2.1,0.1,2.8c-0.6,0.7-1.6,1.3-2.4,1.7c-1.7,1.1-3.6,1.8-5.6,2.3
				c-1.2,0.3-3.8,1-4-1.4c-0.1-1.3,1-3,1.8-3.9c2.6-3.1,6.7-4.3,10.6-4.1c2.7,0.2,6.2,0.4,6.2,3.8c0,2.3-1.4,4.8-2.9,6.4
				c-3,3.2-7.6,4.3-11.8,4.4c-5,0.2-11.4-2.3-8.6-8.5c1.5-3.4,4.7-5.7,7.8-7.4c3.5-1.9,8.3-4.7,12.4-3.8
				C210.5,111,210.7,110,210.1,109.9L210.1,109.9z"/>
		</g>
	</g>
	<g class="st28">
		<g>
			<path class="st29" d="M225.2,112.4c-3.9,0.6-8.9,1.6-10.2,6c-1,3.5,1.6,6.1,4.6,7.3c4,1.6,8.7,2.2,13,2.6
				c4.8,0.4,9.8,0.1,14.1-2.3c2.4-1.3,5.7-4.5,2.8-7c-1.5-1.3-4.1-1.8-6-2.4c-2.8-0.9-5.6-1.6-8.5-1.7c-2.3-0.1-4.6,0.3-6.7,1.1
				c-1.4,0.6-3.7,1.6-4.1,3.3c-1,3.3,6.1,4.1,8,4.3c1.8,0.2,9.9,1.4,8.5-2.7c-1.4-3.9-7.3-2.5-9.6-0.5c-0.5,0.4,0.2,1.1,0.7,0.7
				c1-0.9,2.1-1.4,3.5-1.6c0.8-0.1,3.6-0.1,4,1c-0.1,0.7-0.2,1.3-0.3,2c-0.7,0.1-1.4,0.2-2.2,0.2c-0.9,0-1.8,0-2.6,0
				c-2.2-0.1-4.3-0.5-6.4-1.2c-0.6-0.2-1.1-0.4-1.7-0.6c-0.9-1.4-0.7-2.3,0.6-2.9c0.8-0.6,1.8-1,2.7-1.3c4-1.4,8.2-0.8,12.2,0.3
				c1.8,0.5,3.5,1.1,5.3,1.7c0.6,0.2,1.2,0.4,1.7,0.8c0,1.3,0.1,2.6,0.1,3.9c-0.4,0.9-1.9,1.5-2.7,1.9c-6.7,3.5-14.9,2.1-22,0.6
				c-3.1-0.7-8.1-1.9-8.1-6c0-4.9,6-6,9.6-6.5C226.2,113.3,225.9,112.3,225.2,112.4L225.2,112.4z"/>
		</g>
	</g>
	<g class="st28">
		<g>
			<path class="st29" d="M198.7,134.5c-7.4,0.6-14.6,2.8-21.1,6.6c-1.6,0.9-4,2.3-3.1,4.5c0.9,2.3,4.4,2.7,6.5,3.1
				c7,1.4,14.5,1.7,20.9-1.8c2.1-1.2,10.6-8.3,4.3-9.5c-1.6-0.3-3.4,0.2-4.9,0.4c-2.2,0.3-4.3,0.8-6.5,1.4
				c-4.3,1.2-8.4,2.8-12.4,4.8c-0.3,0.2-0.3,0.7,0,0.9c4.1,2.1,9.1,2.4,13.3,0.3c0.9-0.5,2.4-1.3,1.9-2.7c-0.8-1.7-4.7-1.3-6-1.1
				c-0.6,0.1-0.7,1.1,0,1c0.8-0.1,1.5-0.2,2.3-0.1c1,0.1,2.1-0.1,2.1,1c0,1.3-2.8,1.8-3.9,2.1c-3.1,0.6-6.2,0.1-9-1.3
				c0,0.3,0,0.6,0,0.9c6.3-3.1,12.9-5.3,19.9-6.2c1.7-0.2,5.6-0.5,4,2.8c-0.8,1.6-2.9,3.1-4.3,4c-2.8,1.8-6.1,2.8-9.4,3.2
				c-3.6,0.4-7.2,0-10.8-0.7c-1.6-0.3-3.2-0.6-4.7-1.2c-1.6-0.6-2.2-2.4-0.9-3.8c0.5-0.5,1.3-0.9,1.9-1.2c6.2-3.6,13.1-5.7,20.2-6.2
				C199.4,135.5,199.4,134.5,198.7,134.5L198.7,134.5z"/>
		</g>
	</g>
	<g class="st28">
		<g>
			<path class="st29" d="M237.8,132.7c-4.9-1.1-9.8-2.2-14.8-2.4c-4-0.1-8.9,0.2-12.4,2.4c-2.3,1.5-3.5,4.2-1.6,6.5
				c2.3,2.7,6.7,3.1,10,3.1c2.2,0,4.5-0.2,6.7-0.5c2.3-0.3,5-0.5,7.1-1.4c2.2-0.9,3.9-3.8,1.6-5.6c-1.3-1-3.4-1.4-5-1.8
				c-2-0.6-4.1-1.1-6.2-1.4c-3.2-0.3-7.9-0.1-10.2,2.6c-2.7,3.1,1.9,4.3,4.2,4.5c3.7,0.3,7.7,0,10.2-3c0.2-0.2,0.2-0.6-0.1-0.8
				c-3.5-1.8-7.4-1.7-10.8,0.3c-0.6,0.3-0.1,1.2,0.5,0.9c3.1-1.8,6.6-1.9,9.7-0.3c0-0.3-0.1-0.5-0.1-0.8c-2.2,2.6-5.6,2.9-8.8,2.7
				c-0.8,0-1.8,0-2.5-0.3c-1.8-0.6-1.1-2.9,0.2-3.8c1.4-0.9,3.6-1.1,5.2-1.1c3.5-0.1,7,1,10.4,2.1c1.3,0.5,5.5,1.6,1.9,4.6
				c-0.6,0.5-1.8,0.6-2.5,0.8c-2,0.4-3.9,0.7-5.9,0.9c-3.8,0.5-7.9,0.7-11.6-0.4c-2.2-0.7-5.1-2.7-3.4-5.4c1-1.6,3.3-2.4,5-2.8
				c7.6-2,15.5-0.2,23,1.5C238.1,133.9,238.4,132.9,237.8,132.7L237.8,132.7z"/>
		</g>
	</g>
	<g class="st28">
		<g>
			<path class="st29" d="M262.4,123.5c-5.1-2.8-9.3-7-11.8-12.3c-0.4-0.8-2-3.8-1.6-4.8c0.4-1.1,2-1.6,3-1.7
				c0.7-0.1,1.4-0.1,2.1-0.1c3.1,0,6.2,0.9,9,2.4c2.4,1.3,6.6,4.3,6.5,7.4c-0.1,4-5.6,4.1-8.4,3.2c-1.7-0.5-3.3-1.5-4.6-2.7
				c-1-0.9-3-3.2-2.6-4.7c1-0.7,2-1.4,3-2.1c0.6,0.2,1.1,0.4,1.6,0.7c0.8,0.4,1.5,1,2.1,1.6c1.3,1.3,2.3,2.8,3.1,4.5
				c0.1-0.3,0.2-0.5,0.3-0.8c-2.9,1.1-6,0-7.4-2.8c-0.3-0.6-1.2-0.1-0.9,0.5c1.6,3.1,5.3,4.6,8.5,3.2c0.3-0.1,0.5-0.4,0.3-0.8
				c-1.4-3-4-6.5-7.4-7.3c-2.4-0.6-4.4,0.9-4.2,3.4c0.4,6,9,10.2,14.3,8.2c2.1-0.8,3.8-2.6,3.3-4.9c-0.6-3-3.9-5.6-6.4-7.2
				c-3-1.8-6.6-2.9-10.1-2.9c-2,0-5.9-0.1-6.2,2.6c-0.2,1.5,0.7,3.3,1.3,4.6c0.9,2.1,2,4,3.4,5.8c2.5,3.3,5.6,5.9,9.3,7.9
				C262.5,124.7,263,123.9,262.4,123.5L262.4,123.5z"/>
		</g>
	</g>
	<g class="st28">
		<g>
			<path class="st29" d="M276.4,117.6c-0.6-4.9,3.5-8.1,7.8-9.3c3.2-0.8,7.8-1.5,11.1-0.5c6.5,2-0.1,7.7-2.7,9.8
				c-3.3,2.6-6.9,5.1-10.9,6.4c-1.7,0.6-4,1.2-5.8,1c-1.7-0.3-4.1-2.1-3.5-4c0.4-1.4,1.4-2.5,2.6-3.4c3.1-2.3,7.6-3.7,11.3-4.5
				c1.3-0.3,6.2-1.3,7.3,0c1.6,1.8-2.2,3.6-3.4,4.2c-1.8,0.9-3.8,1.5-5.8,1.7c-0.9,0.1-6.8-0.1-6-1.5c0.3-0.6-0.6-1.1-0.9-0.5
				c-1.6,3,5,3.2,6.5,3.1c2-0.1,3.9-0.6,5.7-1.3c1.7-0.7,4.6-2.2,5.5-4c1.8-3.4-5.2-3.2-6.8-3c-2.5,0.3-4.9,1.1-7.3,1.9
				c-2.3,0.8-4.7,1.7-6.7,3.1c-2.3,1.7-5,6.2-2,8.6c1.4,1.1,4.2,0.8,5.9,0.6c2.2-0.3,4.4-1,6.4-2c3.5-1.7,19.9-11.1,12.5-16.2
				c-1.6-1.1-3.8-1.2-5.6-1.2c-2.8,0.1-5.8,0.3-8.6,1.2c-4.4,1.4-8.3,5.1-7.7,10C275.5,118.3,276.5,118.3,276.4,117.6L276.4,117.6z"
				/>
		</g>
	</g>
</g>
<path class="st30" d="M228,136.9c-10-5.2-22.7-10.2-31.8-3.7c-3.3,2.4-5.5,5.9-7.4,9.4c-10,18.6-14,40.1-25.3,58
	c-2,3.2-4.3,6.4-5.3,10.1c-2.6,9.9,5.1,19.9,4.1,30.1c-0.9,10-9.7,17.4-12.7,27c-2,6.5-1.3,13.6-0.4,20.4c1.1,8.9,2.1,17.8,3.2,26.8
	c-1.4,17.9,1.1,33.1,15.7,39.8c14.6,6.6,32.1,3.1,46.3-4.3c14.2-7.4,26.2-18.4,39.3-27.8c20.7-14.9,45.3-26.8,58-49
	c3.3-5.8,5.7-12.3,5.8-18.9c0.1-5.8-1.6-11.4-3.3-16.9c-4.7-15.5-9.7-32.4-3.8-47.4c2.5-6.5,7.1-13.4,4.3-19.8c-1-2.4-3-4.3-4.9-6.1
	c-5.8-5.5-11.6-11-17.4-16.5c-4.3-4.1-8.8-8.3-14.6-9.6c-11.8-2.8-23.5,7.5-35.6,6c-1.9-3.4-1.1-8.1,1.7-10.7
	c-5.1-2-11.5-0.5-15.1,3.7c-3.5-5.6-7-11.1-10.4-16.7"/>
<linearGradient id="SVGID_4_" gradientUnits="userSpaceOnUse" x1="158.1123" y1="320.321" x2="252.4837" y2="320.321" gradientTransform="matrix(0.9912 0.1322 -0.1322 0.9912 34.3797 -33.8085)">
	<stop  offset="0" style="stop-color:#1B1238"/>
	<stop  offset="1" style="stop-color:#1B1238"/>
</linearGradient>
<path class="st31" d="M174.7,282.6c-15.1,6.2-26.3,21.2-28,37.4c3.6,1.3,7.9-0.6,10.2-3.7c2.3-3.1,3-7.1,3-11c0-1.7,0-3.6,1.1-4.9
	c0.7-0.8,1.6-1.2,2.6-1.5c4.3-1.4,9.1-1.3,13.3,0.5c1.4,0.6,2.9,1.4,4.4,1.3c1.2,0,2.4-0.6,3.5-1c5.4-1.6,11,1.7,15.8,4.8
	c5.5,3.7,11.1,7.4,16.6,11c2.5,1.7,5.3,3.6,6.1,6.5c0.4,1.2,0.4,2.4,0.4,3.7c0,5.1,0,10.2,0,15.3c0,1.5,0,3.2,0.7,4.5
	c1.7,3.4,6.9,3.6,9.9,1.3c3-2.3,4.3-6.2,5.1-9.9c0.9-4,1.4-8.2,0.7-12.2c-1.9-11.6-12.4-19.6-22.2-26.2c-3.3-2.3-6.6-4.5-9.9-6.8
	c-3.3-2.2-6.7-4.5-10.6-4.9c1.8,0,3.5,0.1,5.3,0.1c-0.1-3.9-2.9-7.6-6.6-8.8c-3.7-1.2-8.1,0.2-10.5,3.3c-0.4,0.5-0.7,1-1.2,1.4
	c-1.1,0.8-2.7,0.5-4-0.1c-3.6-1.4-6.7-3.9-8.9-7c-0.4-0.6-0.9-1.3-1.6-1.5c-1.5-0.5-2.9,1.3-2.6,2.8s1.7,2.6,3.1,3.3
	c1.4,0.7,2.9,1.3,3.9,2.5c-2-0.7-3.9-1.3-5.9-2"/>
<linearGradient id="SVGID_5_" gradientUnits="userSpaceOnUse" x1="211.6833" y1="220.0919" x2="284.0516" y2="220.0919" gradientTransform="matrix(0.9912 0.1322 -0.1322 0.9912 34.3797 -33.8085)">
	<stop  offset="0" style="stop-color:#1B1238"/>
	<stop  offset="1" style="stop-color:#1B1238"/>
</linearGradient>
<path class="st32" d="M284.3,233.5c1.4-1,1.6-3,1-4.6c-0.6-1.6-1.9-2.8-3.1-3.9c-7.4-6.9-15.1-14.1-24.6-17.6
	c-9.3-3.5-19.6-3.5-29.3-4.1c-5.3-0.3-12.6,1-13,7.9c-0.5,8.4,13.1,5.4,18.1,5.2c8.7-0.4,17.5,0.8,25.8,3.4
	c4.7,1.5,9.2,3.4,13.5,5.7C273.7,226.1,284.4,233.5,284.3,233.5z"/>
<linearGradient id="SVGID_6_" gradientUnits="userSpaceOnUse" x1="153.897" y1="219.8372" x2="193.7067" y2="219.8372" gradientTransform="matrix(0.9912 0.1322 -0.1322 0.9912 34.3797 -33.8085)">
	<stop  offset="0" style="stop-color:#1B1238"/>
	<stop  offset="1" style="stop-color:#1B1238"/>
</linearGradient>
<path class="st33" d="M195.5,213.3c-0.6,0.8-1.7,0.8-2.7,0.8c-10.9-0.5-21.8-6.1-32.3-3.2c-1.4,0.4-3.1,1.4-2.8,2.8
	c-0.6-2.4-0.8-5.1,0.4-7.3c0.5-0.9,1.1-1.6,1.8-2.3c0.7-0.7,1.3-1.4,2.1-2c0.8-0.6,1.8-0.9,2.7-1.3c7.6-2.7,16-3.2,23.9-1.5
	C194.3,200.6,200.8,206.7,195.5,213.3z"/>
<linearGradient id="SVGID_7_" gradientUnits="userSpaceOnUse" x1="171.2824" y1="265.3542" x2="222.8341" y2="265.3542" gradientTransform="matrix(0.9912 0.1322 -0.1322 0.9912 34.3797 -33.8085)">
	<stop  offset="0" style="stop-color:#1B1238"/>
	<stop  offset="1" style="stop-color:#1B1238"/>
</linearGradient>
<path class="st34" d="M170.7,278.2c0.1-0.9-0.3-1.9-0.9-2.6c1.2,4.8,6.6,6.9,11.2,8.4c0.5,0.1,0.9,0.3,1.4,0.2
	c0.6-0.1,1-0.7,1.4-1.1c2.9-3.6,7.5-6.3,12.1-5.5c4.6,0.8,8.2,6.2,6.1,10.3c3.6,0.2,7.5,0,10.6-1.8c3.2-1.8,5.5-5.5,4.7-9.1
	c-2.4,3.8-6,8.1-10.4,7.1c0.4-2.5-0.9-5-2.8-6.6c-1.9-1.6-4.4-2.4-6.8-3c-5.4-1.4-10.9-2.1-16.5-2c-3.1,0.1-7.1-0.4-7.7-3.4
	c-0.4-2.1,1.4-3.9,2.8-5.3c4.5-4.5,8-9.8,10.5-15.6c2.1-4.9,3.3-10.3,6.1-14.8c1.8-3,4.5-6.2,3.6-9.6c-4.1,5.3-8.3,10.7-11.3,16.8
	c-2.4,4.9-3.3,10.7-6.5,15.2c-2.6,3.7-6.7,6.1-9.4,9.8c-1.6,2.2-2.9,4.8-2.4,7.6C166.8,274.3,170.6,278.6,170.7,278.2z"/>
<linearGradient id="SVGID_8_" gradientUnits="userSpaceOnUse" x1="170.8601" y1="320.4678" x2="230.6044" y2="320.4678" gradientTransform="matrix(0.9912 0.1322 -0.1322 0.9912 34.3797 -33.8085)">
	<stop  offset="0" style="stop-color:#1B1238"/>
	<stop  offset="1" style="stop-color:#1B1238"/>
</linearGradient>
<path class="st35" d="M173.9,300.3c1.3,0.4,2.5,1,3.8,1.4c3.5,1,7.4,0,11,0.4c4.4,0.5,8.3,2.9,12.1,5.3c3,1.9,6,3.9,9.1,5.8
	c3.6,2.3,7.2,4.7,9.8,8c-3.7,1.2-7.7-0.2-11-2.3c-3.3-2-6.2-4.7-9.7-6.5c-5.4-2.7-11.7-2.8-17.7-2.9c-3.6-0.1-17.5,1.9-19.4-2.2
	C159.2,301.5,170.6,299.9,173.9,300.3z"/>
<linearGradient id="SVGID_9_" gradientUnits="userSpaceOnUse" x1="171.9912" y1="337.4146" x2="229.5969" y2="337.4146" gradientTransform="matrix(0.9912 0.1322 -0.1322 0.9912 34.3797 -33.8085)">
	<stop  offset="0" style="stop-color:#1B1238"/>
	<stop  offset="1" style="stop-color:#1B1238"/>
</linearGradient>
<path class="st36" d="M191,324.9c9.2-0.2,18.4-1.2,27.5-3c0.2,1-0.8,1.7-1.7,2.3c-3.8,2.3-7.6,4.7-11.4,7c-1.9,1.2-3.8,2.3-5.9,3.2
	c-9,3.8-19.3,1-28.7-1.9c-3.3-1-9.5-1.5-10.7-5.3c-1-3.3,1.5-5.8,4.4-6.6c3.6-1,7.3,0.5,10.6,1.7C180.5,324.3,185.3,325.1,191,324.9
	z"/>
<path class="st30" d="M327.7,292.8c3.2-0.1,6.6-0.5,9.3-2.3c2.7-1.8,4.4-5.5,2.9-8.4c-0.4-0.8-1-1.5-1.2-2.4
	c-0.3-1.7,1.2-3.2,2.2-4.5c3.1-4,3.1-9.5,5.1-14.1c2.6-5.8,8.3-9.7,14.3-11.6c4.1-1.3,9.2-1.5,12.1,1.6c2.1,2.2,2.5,5.5,2.9,8.6
	c0.5,5,1,10,0.2,14.9c-0.8,4.5-2.7,8.8-4.7,13c-3.5,7.4-8.2,15.4-16.2,17.2c-1.1,0.2-2.3,0.4-3.3-0.1c-1-0.5-1.7-1.7-1.3-2.8
	c9.2-2.7,17.1-10.3,19-19.6c1.9-9.4-3-20.1-11.9-23.6c-1.9,1.8,2.6,5.1,0.9,7.1c-0.5,0.6-1.4,0.7-2.2,0.7c-2.7,0.2-5.3,0.4-8,0.6
	c2.6,2.4,6.7,2.5,9.4,4.8c3,2.5,3.6,6.8,3.1,10.7c-0.5,4.4-2.3,8.7-5.7,11.5c-3.4,2.8-8.5,3.6-12.3,1.3c-1.9,2.6-4.1,5.5-7.3,6.2
	c-3.2,0.7-7.1-2.5-5.7-5.5c-4,3.4-6.8,8.6-5.8,13.7c1.1,5.7,7.5,8,13.3,7.8c12.1-0.4,10.7,0.1,25.1-6.3c3.1-1.4,3.5-5.8,5-8.8
	c3.8-7.9,7.6-15.7,11.4-23.6c1.8-3.7,3.6-7.6,3.6-11.8c0-6.5-4.5-12.1-8.8-17c-1.4-1.7-2.9-3.4-4.8-4.5c-5.8-3.4-13.1-0.6-19.2,2.3
	c-4.8,2.3-9.8,4.7-13.1,8.8c-6.3,7.9-4.7,19.7-9.5,28.6c-1.1,2-2.5,3.9-4,5.7c-2.5,3.1-5.4,6.3-5.8,10.2c-0.5,4,2.9,8.6,6.7,7.6
	c-0.4-6.2,1.9-12.5,6.2-17c-2.8,0.5-5.6,1.1-8.4,1.6"/>
<path class="st37" d="M350.6,239.5l-64-17.9l-3.9-2.8l-21.6-6.9l-21.2-3.4l-11.8,1.3l-14.4,5.5l-3.1,2.1l-9.2-1.8l-6.3-6l-8.2-5.1
	l-9-2.6l-10.4-1.4l-7.9-0.8l-10.9,2.5l-10.4,1.2l-0.9,6.7l3.6,3l-0.4,3.4l-0.2,14.2l2,10.8l2.9,6.1l5.6,7l5.7,3.9l11.1,2.3l7.5-0.7
	l6.9-2.5l4.8-3.6l3.4-3.8l6.8-12.5l4-10.6l1.4-4.4l4.5,0.3l3.5,3.3l-1.3,7.2l-0.2,9.9l3.5,9.9l6.9,8.3l10.1,5.6l11.9,2.7l14-2.7
	l10.5-8l3.8-6.9l4.2-10.3l1.2-9l2.9-4.7l3.7-1.8l4.6,1.8l64.2,14l4.1,5.4l2.6-0.2L350.6,239.5z M186.1,250.9
	c-3.8,4.8-17.4,9-23.2,7.2c-10.7-3.4-14.5-11-16.8-17.3c-2.7-7.5-1.1-23.5-1.1-23.5s4-11.2,7.4-12.4c9.9-3.5,22.6-0.7,22.6-0.7
	s16.8,8.8,19.2,14.2C197.5,226,191.3,244.3,186.1,250.9z M266.4,253c-6.8,14.8-24.9,13.8-24.9,13.8s-12.7-1.6-18.8-6.5
	c-9.8-7.9-10.4-28.7-10.4-28.7s2.1-15.7,14.2-18.6c7.9-1.9,19.8-1.1,32.4,2.3c4.1,1.1,13.7,12.9,13.7,12.9S269,247.4,266.4,253z"/>
<g>
	<path class="st38" d="M258.9,215.3c-12.6-3.4-24.5-4.3-32.4-2.3c-12.1,2.9-14.2,18.6-14.2,18.6s0.6,20.9,10.4,28.7
		c6.1,4.9,18.8,6.5,18.8,6.5s18.1,1,24.9-13.8c2.6-5.6,6.2-24.8,6.2-24.8S263.1,216.4,258.9,215.3z"/>
	<path class="st38" d="M175,204.1c0,0-12.7-2.8-22.6,0.7c-3.4,1.2-7.4,12.4-7.4,12.4s-1.6,16,1.1,23.5c2.3,6.3,6.1,13.9,16.8,17.3
		c5.8,1.9,19.4-2.4,23.2-7.2c5.2-6.6,11.4-24.9,8-32.5C191.8,212.9,175,204.1,175,204.1z"/>
</g>
</svg>
